<svg width="400" height="227" viewBox="0 0 200 113.5" xmlns="http://www.w3.org/2000/svg">
  <path d="M88.999 34.988c1.508.01 3.026.353 4.43.936l.312.28c.022.167.042.406.042.406l-.27.292-.417.052-.239-.063c-3.578-.821-7.77.042-9.516 3.505-.884 1.747-.78 3.859.156 5.648 1.508 2.87 4.545 4.618 7.093 5.99.395.209.79.417 1.186.614a68.138 68.138 0 0 0 11.43 4.348 101.023 101.023 0 0 0 12.033 2.59c4.837.717 9.725 1.091 14.478.883l.395.136.198.343-.125.385c-.385.229-.624.26-.894.301-5.315.916-10.723 1.092-16.153.822a78.787 78.787 0 0 1-5.637-.51l-.135-.02c-3.422-.479-6.792-1.186-10.026-2.153l-.115-.032a53.38 53.38 0 0 1-4.462-1.643c-3.36-1.435-6.594-3.276-9.298-5.918-2.766-2.694-4.639-6.719-3.682-10.505.978-3.869 4.868-6.646 9.038-6.687zm0 0" fill="#3061b5"/>
  <path d="M96.144 12.533c3.14.031 5.98 2.267 7.873 4.472.593.687 1.103 1.435 1.706 2.132.104.125.072.083.072.083l.167.385c-.052.156-.115.385-.115.385l-.364.167-.395-.115c-2.267-1.778-4.254-4.618-7.582-5.075-3.037-.416-6.22 2.225-6.688 5.304-.28 1.851.24 3.765.926 5.554 1.061 2.746 3.037 6.22 4.66 8.497 3.92 5.502 8.965 10.162 13.739 13.927 3.848 3.037 7.915 5.772 12.19 8.258 2.433 1.404 4.919 2.735 7.478 3.931l.145.073.302.291.01.406-.29.28-.406.022c-6.22-2.018-12.304-4.816-18.004-8.134a80.455 80.455 0 0 1-4.92-3.14l-.072-.053c-3.214-2.236-6.261-4.711-9.028-7.467-2.767-2.777-5.18-5.908-7.01-9.361A35.305 35.305 0 0 1 88 27.25c-.76-2.424-1.175-5.149-.551-7.686.749-3.09 4.285-6.969 8.57-7.031h.125" fill="#eb0f4c"/>
  <path d="M113.846 0c2.017.01 4.004.749 5.502 2.215 2.61 2.538 3.577 6.251 4.368 9.673l-.052.416s-.28.25-.302.26l-.395-.052-.28-.322c-1.145-3.131-2.403-6.5-4.9-8.373-2.745-2.07-7.363-.884-9.173 2.039-1.373 2.215-1.425 5.023-1.227 7.686.229 3.161.905 6.323 1.726 9.381 1.935 7.26 4.868 14.561 8.435 21.113 3.266 6.002 7.094 11.764 12.554 16.548l.198.374-.104.385-.344.187c-.8-.187-.936-.457-1.269-.707-5.346-3.9-9.766-9.038-13.52-14.571-2.33-3.432-4.369-7.125-6.178-10.931-1.737-3.672-3.183-7.582-4.13-11.098-1.164-4.347-1.861-8.892-1.414-13.437.343-3.62 1.8-7.364 5.013-9.299C109.977.51 111.87.01 113.752 0zm0 0" fill="#3fb83a"/>
  <path d="M135.167 2.995c1.903.021 3.776.79 4.95 2.393 2.528 3.473 1.863 8.403 1.238 12.054a36.488 36.488 0 0 1-.686 3.203l-.24.344s-.363.083-.394.083l-.323-.23-.093-.405c.54-4.18.956-8.611-.926-12.252-.51-.998-1.394-1.872-2.548-2.007-3.12-.364-6.012 2.455-7.915 4.763-3.287 4.015-4.992 8.872-5.43 14.333-.3 3.681-.124 7.498.375 11.201 1.123 8.362 3.64 16.319 7.114 24.306l.021.417-.26.312-.395.02a2.113 2.113 0 0 1-.572-.686c-3.183-5.492-5.887-11.264-7.863-17.276-1.32-4.014-2.267-8.195-2.683-12.522-.302-2.995-.291-6.012.094-8.997.384-3.005 1.248-6.011 2.735-8.622 1.914-3.37 4.535-6.375 7.665-8.445 1.758-1.165 3.786-1.955 5.95-1.987zm0 0" fill="#faba07"/>
  <path d="M147.055 16.183c2.673.052 5.086 1.665 6.292 4.462a10.15 10.15 0 0 1 .75 5.18c-.469 3.952-2.882 7.457-5.19 10.588l-.354.239s-.375-.052-.395-.062l-.219-.323.052-.426c1.997-3.745 4.17-7.811 3.37-11.67-.478-2.267-2.07-4.503-4.379-4.202-2.62.333-5.013 2.278-6.438 4.16a56.086 56.086 0 0 0-6.386 10.838 50.459 50.459 0 0 0-3.068 9.111c-1.071 4.576-1.706 9.132-1.28 13.791.084.988.22 1.987.531 2.933v.416l-.28.292-.396-.01-.312-.282c-1.56-3.1-1.778-6.885-1.851-10.338a50.767 50.767 0 0 1 1.248-12.22c.416-1.82.957-3.589 1.58-5.336a40.923 40.923 0 0 1 4.38-8.778c1.05-1.623 2.173-3.225 3.63-4.566 2.33-2.143 5.574-3.817 8.715-3.797" fill="#59c7c5"/>
  <path d="M188.273 78.972c-1.456-.405-2.83-1.123-4.036-2.049l-.228-.364c.03-.156.062-.385.062-.385l.343-.218.406.062c.073.042.146.084.218.115 3.245 1.716 7.52 1.976 10.11-.915 1.3-1.467 1.737-3.526 1.3-5.502-.718-3.173-3.193-5.637-5.305-7.624a40.292 40.292 0 0 0-.988-.894c-3.016-2.642-6.406-5.076-9.911-7.167a100.051 100.051 0 0 0-10.952-5.605c-4.483-1.956-9.101-3.568-13.75-4.608l-.343-.229-.104-.385.208-.332c.436-.125.676-.094.946-.073 5.367.499 10.64 1.726 15.809 3.39 1.8.583 3.567 1.248 5.315 1.956l.125.052a67.922 67.922 0 0 1 9.131 4.67l.104.062a53.26 53.26 0 0 1 3.88 2.746c2.88 2.257 5.523 4.867 7.457 8.123 1.966 3.318 2.736 7.686.843 11.097-1.945 3.484-6.428 5.159-10.463 4.13-.063-.021-.115-.032-.177-.053" fill="#eb0f4c"/>
  <path d="M175.553 98.806c-3.016-.842-5.18-3.733-6.438-6.354-.395-.822-.697-1.665-1.092-2.497l-.052-.104-.073-.416c.094-.135.219-.332.219-.332l.395-.073.353.218c1.737 2.299 2.913 5.565 6.002 6.865 2.829 1.185 6.594-.541 7.842-3.401.749-1.717.749-3.693.54-5.596-.311-2.923-1.32-6.792-2.298-9.413-2.36-6.334-6.032-12.148-9.662-17.015a104.087 104.087 0 0 0-9.652-11.129 95.347 95.347 0 0 0-6.199-5.73c-.052-.042-.125-.105-.125-.105l-.208-.374.094-.385.343-.197.406.083c5.481 3.567 10.63 7.842 15.278 12.522 1.384 1.373 2.684 2.819 3.953 4.296l.052.072c2.517 2.985 4.826 6.178 6.791 9.548 1.945 3.401 3.464 7.052 4.337 10.869.5 2.132.79 4.327.884 6.542.104 2.538-.208 5.284-1.456 7.572-1.529 2.797-5.949 5.626-10.099 4.566-.052 0-.083-.021-.135-.032" fill="#3061b5"/>
  <path d="M155.22 106.336c-1.956-.53-3.672-1.757-4.743-3.567-1.872-3.12-1.841-6.958-1.727-10.463l.167-.395s.343-.167.364-.167l.364.146.187.385c.302 3.318.634 6.895 2.559 9.36 2.121 2.705 6.885 2.757 9.391.396 1.904-1.779 2.684-4.483 3.183-7.094.593-3.12.76-6.354.76-9.516 0-7.51-.947-15.32-2.684-22.58-1.612-6.646-3.807-13.199-7.842-19.231l-.104-.406.208-.343.384-.104c.718.395.78.687 1.04 1.009 4.15 5.159 7.083 11.264 9.288 17.577 1.363 3.932 2.382 8.009 3.13 12.159.729 4.004 1.114 8.154 1.124 11.794 0 4.493-.51 9.07-2.111 13.344-1.27 3.411-3.64 6.636-7.25 7.676-1.82.53-3.775.52-5.605.052-.032-.01-.052-.021-.084-.032" fill="#3fb83a"/>
  <path d="M135.417 97.922c-1.83-.51-3.443-1.747-4.16-3.609-1.55-3.994.374-8.59 1.924-11.96.457-.989.946-1.966 1.487-2.913l.322-.27s.385.02.406.02l.26.302-.021.427c-1.612 3.9-3.152 8.06-2.278 12.064.24 1.103.863 2.174 1.935 2.6 2.922 1.166 6.448-.81 8.882-2.548 4.222-3.026 7.114-7.27 8.955-12.439 1.237-3.474 2.059-7.218 2.537-10.91 1.082-8.383.708-16.714-.582-25.326l.094-.405.322-.24.395.084c.24.333.312.572.375.821 1.653 6.126 2.777 12.398 3.12 18.722.229 4.212.062 8.497-.645 12.782-.489 2.964-1.28 5.887-2.423 8.674-1.144 2.798-2.767 5.47-4.878 7.613-2.715 2.757-6.022 4.982-9.59 6.178-1.996.666-4.16.895-6.25.375-.063-.01-.125-.031-.188-.042" fill="#faba07"/>
  <path d="M127.377 82.092c-2.58-.728-4.483-2.912-4.93-5.938a10.182 10.182 0 0 1 .614-5.19c1.466-3.692 4.711-6.47 7.748-8.893l.406-.135s.353.146.374.166l.125.364-.166.396c-2.892 3.11-6.043 6.469-6.272 10.4-.125 2.32.832 4.899 3.141 5.2 2.621.354 5.44-.904 7.291-2.36a55.582 55.582 0 0 0 8.976-8.81 50.536 50.536 0 0 0 5.325-8.008c2.226-4.14 4.004-8.383 4.815-12.98.167-.988.292-1.987.23-2.975l.124-.405.343-.208.375.114.228.354c.708 3.4-.062 7.103-.894 10.463a50.017 50.017 0 0 1-4.368 11.472 47.908 47.908 0 0 1-2.902 4.753c-1.81 2.62-3.932 5.044-6.5 7.353-1.436 1.28-2.934 2.538-4.691 3.463-2.808 1.467-6.366 2.237-9.392 1.404" fill="#59c7c5"/>
  <path d="M26.21 102.187c-.375-1.176-.78-2.393-1.217-3.63-.437-1.248-.874-2.486-1.3-3.713H10.432c-.437 1.237-.863 2.475-1.3 3.723a182.529 182.529 0 0 0-1.196 3.62H0a565.507 565.507 0 0 1 3.63-10.141A359.489 359.489 0 0 1 7 83.268a365.049 365.049 0 0 1 3.245-7.811 170.903 170.903 0 0 1 3.317-7.229h7.25a277.322 277.322 0 0 1 3.297 7.229 279.915 279.915 0 0 1 3.276 7.81 321.37 321.37 0 0 1 3.37 8.779c1.144 3.11 2.36 6.48 3.64 10.14zm-9.184-26.262a52.317 52.317 0 0 1-.749 2.007c-.333.853-.707 1.83-1.123 2.944-.416 1.112-.884 2.34-1.404 3.681-.52 1.332-1.05 2.736-1.581 4.213h9.714c-.52-1.488-1.03-2.892-1.519-4.223-.478-1.352-.946-2.58-1.383-3.692-.437-1.113-.821-2.09-1.154-2.944-.333-.842-.593-1.508-.801-1.986M46.99 96.362c1.082 0 1.976-.093 2.673-.27.707-.187 1.27-.427 1.695-.739.417-.312.718-.676.885-1.102.156-.427.239-.895.239-1.425 0-1.113-.52-2.028-1.57-2.767-1.04-.738-2.84-1.529-5.388-2.371a40.801 40.801 0 0 1-3.339-1.352 12.505 12.505 0 0 1-2.985-1.914c-.884-.759-1.602-1.695-2.153-2.787-.562-1.103-.832-2.434-.832-3.994 0-1.57.291-2.985.884-4.243a8.963 8.963 0 0 1 2.496-3.214c1.071-.884 2.382-1.56 3.921-2.028 1.53-.479 3.266-.708 5.19-.708 2.288 0 4.264.24 5.939.728 1.664.49 3.037 1.03 4.108 1.623l-2.205 6.022a20.637 20.637 0 0 0-3.161-1.3c-1.155-.375-2.559-.562-4.182-.562-1.83 0-3.151.26-3.952.76-.8.509-1.196 1.29-1.196 2.33 0 .623.146 1.143.437 1.57.291.426.718.81 1.248 1.154.54.343 1.165.645 1.862.926.707.28 1.477.561 2.33.863 1.768.655 3.296 1.3 4.607 1.935 1.31.634 2.392 1.372 3.266 2.225a8.017 8.017 0 0 1 1.924 2.996c.426 1.133.645 2.527.645 4.16 0 3.172-1.113 5.627-3.339 7.374-2.215 1.747-5.564 2.621-10.047 2.621-1.498 0-2.85-.094-4.067-.27a25.8 25.8 0 0 1-3.203-.656c-.936-.26-1.737-.54-2.403-.832-.676-.301-1.237-.572-1.695-.842l2.164-6.074c1.008.561 2.256 1.06 3.744 1.498 1.487.436 3.307.665 5.46.665M77.579 102.873c-2.382 0-4.442-.333-6.178-.998-1.727-.666-3.162-1.602-4.285-2.798-1.134-1.186-1.966-2.61-2.507-4.265-.54-1.643-.8-3.463-.8-5.46V68.228h7.644v20.49c0 1.373.156 2.537.468 3.494.301.968.728 1.758 1.268 2.35a4.527 4.527 0 0 0 1.966 1.311c.76.26 1.602.385 2.517.385 1.862 0 3.37-.572 4.535-1.716 1.154-1.144 1.737-3.089 1.737-5.824v-20.49h7.644v21.124c0 1.997-.28 3.817-.832 5.492-.551 1.664-1.404 3.089-2.548 4.285-1.134 1.196-2.59 2.111-4.358 2.766-1.768.656-3.858.978-6.271.978M105.348 72.711c0 .572-.114 1.113-.343 1.643-.229.52-.52 1.03-.884 1.519-.354.489-.76.957-1.206 1.404-.458.458-.895.884-1.332 1.29-.228.208-.468.447-.738.707-.26.26-.51.53-.749.8-.239.271-.447.52-.645.75-.187.239-.301.426-.343.582h6.708v2.819h-10.4a3.64 3.64 0 0 1-.052-.635v-.54c0-.729.114-1.384.353-1.987.23-.603.53-1.155.916-1.675.374-.52.79-.998 1.269-1.456.468-.447.946-.894 1.404-1.352.364-.343.707-.666 1.019-.978.312-.312.593-.603.832-.904.24-.292.426-.583.562-.874.135-.291.208-.593.208-.884 0-.666-.198-1.134-.572-1.404-.375-.27-.843-.406-1.394-.406-.406 0-.78.063-1.134.198-.353.125-.676.27-.967.447a5.326 5.326 0 0 0-.76.52 5.716 5.716 0 0 0-.467.416l-1.675-2.35a9.04 9.04 0 0 1 2.32-1.519 6.747 6.747 0 0 1 2.818-.593c.915 0 1.706.104 2.361.312.666.208 1.206.51 1.633.895.426.374.749.842.946 1.393.208.552.312 1.165.312 1.862M118.09 76.383c0 2.62-.5 4.638-1.488 6.053-1.009 1.393-2.382 2.1-4.14 2.1-1.757 0-3.14-.707-4.14-2.1-.998-1.415-1.497-3.433-1.497-6.053 0-1.311.136-2.465.395-3.474.27-.999.645-1.852 1.145-2.538.488-.697 1.081-1.227 1.778-1.581.687-.364 1.467-.54 2.32-.54 1.757 0 3.13.706 4.139 2.11.988 1.394 1.487 3.402 1.487 6.023m-3.422 0c0-.79-.03-1.488-.114-2.133-.073-.634-.187-1.185-.354-1.653-.166-.468-.395-.832-.676-1.082-.291-.26-.645-.385-1.06-.385-.417 0-.77.125-1.051.385-.28.25-.5.614-.676 1.082a7.51 7.51 0 0 0-.364 1.653 16.715 16.715 0 0 0-.115 2.133c0 .78.032 1.497.115 2.132.073.655.197 1.206.364 1.674.177.468.395.822.676 1.082.28.25.634.374 1.05.374.416 0 .77-.125 1.061-.374.281-.26.51-.614.676-1.082.167-.468.281-1.02.354-1.674.083-.635.114-1.352.114-2.132M105.348 90.143a4.05 4.05 0 0 1-.343 1.643c-.229.53-.52 1.03-.884 1.529-.354.489-.76.946-1.206 1.404-.458.447-.895.874-1.332 1.28-.228.218-.468.446-.738.717-.26.26-.51.52-.749.8-.239.26-.447.52-.645.75-.187.228-.301.426-.343.572h6.708v2.818h-10.4a3.425 3.425 0 0 1-.052-.624v-.551c0-.718.114-1.383.353-1.987.23-.593.53-1.154.916-1.674.374-.51.79-.999 1.269-1.446.468-.457.946-.905 1.404-1.352.364-.354.707-.676 1.019-.978.312-.312.593-.613.832-.904.24-.292.426-.593.562-.874.135-.302.208-.593.208-.895 0-.665-.198-1.133-.572-1.393-.375-.281-.843-.406-1.394-.406-.406 0-.78.063-1.134.187a5.926 5.926 0 0 0-1.726.968 8.728 8.728 0 0 0-.468.416l-1.675-2.34a8.527 8.527 0 0 1 2.32-1.52 6.754 6.754 0 0 1 2.818-.602c.915 0 1.706.114 2.361.322.666.208 1.206.5 1.633.884.426.385.749.853.946 1.404.208.541.312 1.165.312 1.852M117.236 90.143a4.22 4.22 0 0 1-.332 1.643c-.23.53-.52 1.03-.885 1.529-.353.489-.759.946-1.216 1.404a49.79 49.79 0 0 1-1.332 1.28c-.218.218-.468.446-.728.717-.26.26-.52.52-.749.8-.25.26-.457.52-.644.75-.188.228-.312.426-.354.572h6.719v2.818h-10.411a3.54 3.54 0 0 1-.042-.624v-.551c0-.718.115-1.383.343-1.987.24-.593.541-1.154.916-1.674.374-.51.8-.999 1.269-1.446l1.414-1.352c.354-.354.697-.676 1.009-.978.322-.312.593-.613.832-.904.24-.292.426-.593.562-.874.145-.302.208-.593.208-.895 0-.665-.188-1.133-.562-1.393-.374-.281-.843-.406-1.394-.406-.416 0-.79.063-1.144.187-.353.125-.676.281-.967.448-.291.176-.54.353-.76.52a8.738 8.738 0 0 0-.467.416l-1.675-2.34a8.527 8.527 0 0 1 2.32-1.52 6.801 6.801 0 0 1 2.828-.602c.916 0 1.696.114 2.361.322.666.208 1.207.5 1.633.884.427.385.75.853.947 1.404a5.4 5.4 0 0 1 .301 1.852" fill="#eb0f4c"/>
  <path d="M60.938 113.066c-.084-.24-.177-.49-.26-.739-.094-.239-.188-.489-.271-.738h-2.673c-.094.25-.177.499-.26.749-.094.25-.177.488-.26.728h-1.196c.239-.666.457-1.29.676-1.862.208-.572.416-1.123.613-1.633.208-.51.416-.998.614-1.466.208-.458.406-.916.624-1.363h1.092c.218.447.427.905.624 1.363.198.468.406.956.614 1.466.197.51.405 1.06.624 1.633.218.572.447 1.196.686 1.862zm-1.873-5.097c-.135.323-.301.708-.478 1.176-.177.457-.364.956-.562 1.508h2.09a44.626 44.626 0 0 0-.571-1.519 21.118 21.118 0 0 0-.479-1.165M64.224 112.275c.291 0 .5-.031.635-.104.135-.062.197-.187.197-.364 0-.156-.062-.28-.208-.395-.145-.104-.374-.208-.707-.333a4.016 4.016 0 0 1-.551-.229 1.525 1.525 0 0 1-.437-.29 1.342 1.342 0 0 1-.291-.396 1.341 1.341 0 0 1-.104-.572c0-.437.166-.79.488-1.04.312-.25.76-.385 1.31-.385.282 0 .552.031.812.083.25.052.447.104.572.156l-.208.884c-.114-.052-.27-.093-.457-.145a3.18 3.18 0 0 0-.666-.073c-.218 0-.406.041-.54.125a.36.36 0 0 0-.22.343c0 .083.022.156.042.218a.43.43 0 0 0 .146.167c.062.052.156.104.27.156.104.052.24.104.396.156.26.104.488.197.676.29.176.094.322.198.447.323.114.115.208.25.26.406.052.146.083.333.083.551 0 .447-.177.801-.51 1.03-.332.239-.821.353-1.445.353-.427 0-.76-.03-1.02-.104-.249-.072-.436-.124-.54-.166l.197-.926c.156.063.364.136.583.198.228.052.488.083.79.083M71.12 112.93c-.208.052-.49.104-.832.167a7.488 7.488 0 0 1-1.124.083c-.384 0-.707-.052-.967-.166a1.554 1.554 0 0 1-.624-.448 2.115 2.115 0 0 1-.333-.707 3.942 3.942 0 0 1-.093-.894v-2.673h1.102v2.506c0 .51.073.874.229 1.092.145.219.405.333.78.333.135 0 .27-.01.426-.02.146-.011.25-.021.333-.042v-3.87h1.103zM72.524 108.448c.218-.052.5-.125.832-.177a7.526 7.526 0 0 1 1.134-.083c.395 0 .717.062.977.166.27.104.479.25.624.447.167.188.27.416.333.697.062.27.094.562.094.884v2.684h-1.103v-2.507a3 3 0 0 0-.052-.655 1.035 1.035 0 0 0-.166-.437.644.644 0 0 0-.302-.25 1.346 1.346 0 0 0-.488-.072c-.136 0-.281.01-.437.02-.146.021-.26.042-.333.052v3.849h-1.113zM77.61 110.684c0-.343.052-.676.166-.988a2.203 2.203 0 0 1 1.207-1.331c.301-.125.624-.198.988-.198.457 0 .884.083 1.279.25l-.229.904a3.639 3.639 0 0 0-.437-.135 2.754 2.754 0 0 0-.52-.052c-.426 0-.759.135-.988.406-.218.27-.332.655-.332 1.144 0 .478.104.853.322 1.134.208.27.572.416 1.071.416.198 0 .375-.021.562-.052.187-.042.343-.084.478-.146l.146.915c-.115.063-.302.115-.551.167-.24.052-.5.072-.76.072-.405 0-.759-.062-1.06-.187a2.193 2.193 0 0 1-.76-.52 2.343 2.343 0 0 1-.436-.79 3.154 3.154 0 0 1-.146-1.01M83.424 106.898a.62.62 0 0 1-.198.489.701.701 0 0 1-.489.187.694.694 0 0 1-.478-.187.62.62 0 0 1-.198-.489c0-.218.063-.385.198-.5a.65.65 0 0 1 .478-.186c.188 0 .354.052.49.187.134.114.197.28.197.5m-.125 6.167h-1.103v-4.774H83.3zM89.03 110.674c0 .384-.052.728-.167 1.04a2.2 2.2 0 0 1-.457.79 2.097 2.097 0 0 1-.728.51 2.315 2.315 0 0 1-.936.187 2.28 2.28 0 0 1-.936-.187 1.967 1.967 0 0 1-.718-.51 2.076 2.076 0 0 1-.468-.79 2.986 2.986 0 0 1-.177-1.04c0-.375.062-.718.177-1.02.104-.312.26-.582.468-.79.208-.229.447-.395.728-.51a2.23 2.23 0 0 1 .926-.187c.332 0 .644.062.925.187.281.115.52.281.728.51.198.208.354.478.468.79.115.302.167.645.167 1.02m-1.134 0c0-.479-.104-.843-.302-1.124-.208-.28-.488-.416-.852-.416-.375 0-.656.135-.853.416-.208.281-.312.645-.312 1.124 0 .488.104.863.312 1.144.197.28.478.426.853.426.364 0 .644-.146.852-.426.198-.281.302-.656.302-1.144m.031-4.338-1.487 1.446-.551-.489 1.341-1.601zM90.174 108.448c.218-.052.489-.125.832-.177a7.527 7.527 0 0 1 1.134-.083c.395 0 .717.062.977.166.26.104.468.25.624.447.156.188.27.416.333.697.062.27.094.562.094.884v2.684h-1.103v-2.507c0-.26-.021-.478-.052-.655a1.035 1.035 0 0 0-.166-.437.644.644 0 0 0-.302-.25 1.346 1.346 0 0 0-.488-.072c-.136 0-.281.01-.437.02-.156.021-.26.042-.344.052v3.849h-1.102zM101.344 108.385c0 .219-.052.437-.135.645a3.335 3.335 0 0 1-.354.614 6.2 6.2 0 0 1-.489.572 26.7 26.7 0 0 1-.55.54c-.095.094-.209.209-.323.334-.125.124-.24.25-.354.384-.104.125-.197.25-.28.364a.73.73 0 0 0-.136.302h2.819v.926h-4.025c-.011-.042-.011-.104-.011-.167v-.166c0-.291.041-.562.135-.811.104-.24.219-.479.375-.687.156-.218.322-.416.51-.603.197-.187.374-.375.571-.551.136-.146.281-.281.416-.416.136-.136.25-.27.354-.396a1.65 1.65 0 0 0 .24-.405 1.02 1.02 0 0 0 .093-.427c0-.312-.094-.54-.27-.676a1.096 1.096 0 0 0-.666-.197 1.4 1.4 0 0 0-.479.073c-.145.041-.28.104-.395.166-.104.073-.208.135-.291.208-.083.073-.146.125-.198.177l-.54-.78c.25-.24.55-.437.894-.593a2.87 2.87 0 0 1 1.113-.219c.676 0 1.175.156 1.498.479.312.312.478.749.478 1.31M106.94 109.904c0 1.06-.198 1.882-.593 2.454-.385.572-.926.853-1.612.853-.687 0-1.228-.28-1.623-.853-.385-.572-.582-1.393-.582-2.454 0-.53.052-1.009.145-1.415.105-.416.25-.759.448-1.04.187-.28.416-.489.686-.634a1.96 1.96 0 0 1 .926-.219c.686 0 1.227.281 1.612.853.395.562.593 1.384.593 2.455m-1.144 0c0-.333-.022-.635-.063-.926a2.934 2.934 0 0 0-.176-.749 1.336 1.336 0 0 0-.323-.499.75.75 0 0 0-.5-.177.778.778 0 0 0-.509.177c-.135.125-.25.291-.333.5a2.952 2.952 0 0 0-.166.748 6.548 6.548 0 0 0-.052.926c0 .322.01.634.052.915.031.291.083.541.166.749.084.208.198.374.333.5a.734.734 0 0 0 .51.186.709.709 0 0 0 .5-.187 1.34 1.34 0 0 0 .322-.499c.083-.208.145-.458.176-.749.042-.28.063-.593.063-.915M111.724 108.385c0 .219-.042.437-.135.645a3.337 3.337 0 0 1-.354.614 6.202 6.202 0 0 1-.489.572c-.187.187-.364.364-.55.54-.095.094-.209.209-.323.334-.125.124-.24.25-.354.384-.104.125-.198.25-.28.364-.084.125-.126.219-.126.302h2.808v.926h-4.025c-.01-.042-.01-.104-.01-.167v-.166c0-.291.041-.562.145-.811a2.9 2.9 0 0 1 .364-.687c.156-.218.323-.416.51-.603.198-.187.385-.375.572-.551l.416-.416c.135-.136.25-.27.354-.396a1.65 1.65 0 0 0 .239-.405 1.02 1.02 0 0 0 .094-.427c0-.312-.094-.54-.27-.676a1.096 1.096 0 0 0-.666-.197 1.4 1.4 0 0 0-.479.073c-.146.041-.28.104-.385.166-.114.073-.218.135-.301.208-.083.073-.156.125-.188.177l-.55-.78c.26-.24.561-.437.894-.593a2.87 2.87 0 0 1 1.113-.219c.676 0 1.175.156 1.498.479.322.312.478.749.478 1.31M116.914 108.385c0 .219-.042.437-.135.645a3.337 3.337 0 0 1-.354.614 4.925 4.925 0 0 1-.489.572c-.177.187-.364.364-.551.54l-.333.334c-.114.124-.229.25-.343.384-.104.125-.198.25-.28.364-.084.125-.126.219-.126.302h2.819v.926h-4.036c-.01-.042-.01-.104-.01-.167v-.166c0-.291.041-.562.145-.811.094-.24.219-.479.364-.687.156-.218.323-.416.52-.603.188-.187.375-.375.562-.551l.416-.416c.135-.136.25-.27.354-.396.104-.135.187-.27.25-.405.051-.135.082-.281.082-.427 0-.312-.083-.54-.27-.676a1.096 1.096 0 0 0-.666-.197 1.4 1.4 0 0 0-.478.073c-.146.041-.27.104-.385.166-.114.073-.218.135-.302.208-.083.073-.145.125-.197.177l-.54-.78c.26-.24.55-.437.894-.593a2.832 2.832 0 0 1 1.113-.219c.676 0 1.175.156 1.498.479.322.312.478.749.478 1.31M17.764 54.208a16.384 16.384 0 0 0-.78-1.279 24.525 24.525 0 0 0-.977-1.342c-.136.177-.292.375-.458.614-.166.229-.333.468-.5.707-.166.25-.311.489-.457.718-.135.218-.25.416-.333.582H12.72a26.55 26.55 0 0 1 1.134-1.81c.426-.623.894-1.268 1.383-1.944l-2.403-3.599h1.592l1.612 2.413 1.612-2.413h1.529l-2.382 3.557a30.85 30.85 0 0 1 1.456 2.039c.427.644.78 1.227 1.082 1.757zM20.375 46.855h1.331v7.353h-1.331ZM23.474 46.855h1.332v7.353h-1.332zM32.783 51.785c0 .364-.042.697-.115 1.02a2.074 2.074 0 0 1-.416.81 1.92 1.92 0 0 1-.78.552c-.332.135-.749.208-1.248.208-.468 0-.873-.073-1.217-.208-.343-.125-.613-.26-.79-.416l.478-1.05c.177.124.396.238.656.342.26.115.52.167.79.167.447 0 .78-.115.988-.333.198-.229.312-.624.312-1.175v-4.847h1.342zM38.982 54.042c-.25.062-.562.125-.968.197a8.392 8.392 0 0 1-1.3.094c-.447 0-.821-.062-1.123-.187a1.813 1.813 0 0 1-.728-.53 2.256 2.256 0 0 1-.385-.812 4.555 4.555 0 0 1-.114-1.04v-3.11h1.279v2.913c0 .592.094 1.019.26 1.268.177.26.489.385.915.385.156 0 .312-.01.49-.02.176-.01.3-.032.394-.053v-4.493h1.28zM40.313 51.463c0-.49.073-.916.218-1.29.136-.364.333-.676.572-.915.24-.25.52-.427.832-.552.312-.124.635-.187.957-.187.76 0 1.363.24 1.79.718.426.468.634 1.175.634 2.122v.228c-.011.094-.011.177-.011.24h-3.671c.041.447.197.8.478 1.04.28.25.676.364 1.217.364.312 0 .593-.032.853-.084.26-.052.457-.114.613-.176l.167 1.05c-.073.031-.167.073-.291.104-.125.042-.27.083-.427.114a6.964 6.964 0 0 1-.52.073c-.177.021-.364.042-.562.042a3.37 3.37 0 0 1-1.268-.229 2.27 2.27 0 0 1-.895-.603 2.563 2.563 0 0 1-.52-.915 3.618 3.618 0 0 1-.166-1.144m3.723-.573a1.444 1.444 0 0 0-.291-.926 1.005 1.005 0 0 0-.353-.27 1.028 1.028 0 0 0-.49-.104c-.197 0-.374.042-.52.115a1.04 1.04 0 0 0-.374.291 1.38 1.38 0 0 0-.25.416 3.612 3.612 0 0 0-.114.478zM51.265 53.647c0 .884-.229 1.539-.676 1.945-.447.405-1.134.613-2.06.613-.343 0-.665-.031-.998-.083a5.093 5.093 0 0 1-.874-.229l.24-1.092c.218.094.468.167.748.229.27.052.583.083.905.083.52 0 .884-.104 1.103-.322.218-.208.332-.53.332-.947v-.208a3.394 3.394 0 0 1-.51.187 2.5 2.5 0 0 1-.717.094c-.353 0-.676-.052-.967-.166a2.015 2.015 0 0 1-.76-.5 2.364 2.364 0 0 1-.488-.821 3.432 3.432 0 0 1-.177-1.144c0-.396.073-.77.187-1.113.125-.343.312-.624.552-.874.239-.229.52-.426.863-.561a3.128 3.128 0 0 1 1.154-.198c.416 0 .811.031 1.196.094.364.062.687.135.947.197zm-3.578-2.361c0 .55.125.946.354 1.196.239.26.551.374.925.374a2 2 0 0 0 1.02-.28v-2.882a2.42 2.42 0 0 0-.344-.052 3.418 3.418 0 0 0-.51-.03c-.467 0-.82.155-1.07.467-.25.302-.375.707-.375 1.207M57.932 51.431c0 .437-.073.832-.198 1.196a2.56 2.56 0 0 1-.54.926c-.23.25-.52.447-.843.593a2.69 2.69 0 0 1-1.092.208c-.395 0-.76-.063-1.082-.208a2.686 2.686 0 0 1-.842-.593 2.72 2.72 0 0 1-.541-.926 3.395 3.395 0 0 1-.198-1.196c0-.447.063-.842.198-1.196.125-.364.312-.665.551-.915.24-.26.52-.458.843-.593a2.625 2.625 0 0 1 1.07-.208c.386 0 .75.063 1.082.208.333.135.604.333.843.593.229.25.416.551.54.915.136.354.209.75.209 1.196m-1.321 0c0-.55-.125-.998-.354-1.32-.239-.313-.572-.479-.998-.479-.427 0-.76.166-.988.478-.24.323-.354.77-.354 1.321 0 .552.115.999.354 1.321.228.323.561.489.988.489.426 0 .759-.166.998-.489.229-.322.354-.77.354-1.32M60.646 53.283c.344 0 .583-.042.739-.115.156-.083.239-.229.239-.426a.53.53 0 0 0-.25-.447c-.166-.125-.447-.26-.832-.396-.228-.093-.437-.176-.634-.27a2.3 2.3 0 0 1-.51-.343 1.333 1.333 0 0 1-.333-.458 1.586 1.586 0 0 1-.124-.666c0-.51.187-.904.561-1.206.385-.291.884-.437 1.529-.437.333 0 .645.031.936.083.302.063.52.125.676.177l-.239 1.04a3.078 3.078 0 0 0-.54-.166 3.325 3.325 0 0 0-.76-.083c-.27 0-.478.052-.645.135a.43.43 0 0 0-.239.405c0 .094.01.177.042.24a.734.734 0 0 0 .166.197c.083.063.187.125.312.187.125.063.28.125.468.188.302.114.562.218.77.332.218.104.395.23.53.375.135.135.24.291.302.468a1.9 1.9 0 0 1 .093.634c0 .53-.197.936-.592 1.207-.385.27-.947.416-1.675.416-.489 0-.884-.052-1.186-.135a4.894 4.894 0 0 1-.624-.188l.23-1.07c.186.072.415.145.675.218.27.072.572.104.915.104M15.175 62.414c.488 0 .832-.083 1.06-.25.219-.155.323-.384.323-.686a.903.903 0 0 0-.115-.457 1.2 1.2 0 0 0-.312-.343 3.297 3.297 0 0 0-.51-.292c-.197-.083-.426-.166-.675-.26-.26-.093-.5-.187-.739-.301a2.156 2.156 0 0 1-.624-.406 1.865 1.865 0 0 1-.437-.582c-.114-.23-.166-.5-.166-.822 0-.666.229-1.186.686-1.56.468-.385 1.092-.572 1.883-.572.458 0 .874.052 1.227.156.354.104.635.208.843.333l-.416 1.081c-.24-.135-.5-.239-.79-.312a4.112 4.112 0 0 0-.885-.104c-.364 0-.645.073-.842.23-.208.145-.302.353-.302.623 0 .167.031.302.094.416.072.125.166.229.291.323.125.083.27.166.437.25.166.072.343.155.551.218.343.135.655.26.926.384.27.136.499.292.686.479.187.177.333.385.437.634.094.24.146.541.146.884 0 .666-.24 1.186-.708 1.54-.468.374-1.154.55-2.07.55-.301 0-.582-.02-.831-.051a7.274 7.274 0 0 1-.666-.146c-.198-.062-.364-.114-.51-.177-.135-.062-.25-.114-.333-.166l.385-1.092c.198.104.458.208.78.322.323.104.718.156 1.176.156M23.62 63.246c-.25.063-.572.125-.967.188a7.28 7.28 0 0 1-1.31.104c-.438 0-.812-.063-1.114-.188a1.916 1.916 0 0 1-.728-.53 2.256 2.256 0 0 1-.385-.811 4.148 4.148 0 0 1-.114-1.04v-3.11h1.29v2.912c0 .593.083 1.02.25 1.269.176.26.478.385.914.385.156 0 .323-.01.49-.021.176-.02.3-.031.384-.052v-4.493h1.29zM28.425 59.013c-.114-.03-.26-.072-.447-.114a3.984 3.984 0 0 0-.655-.052c-.136 0-.292.01-.448.042-.166.03-.27.052-.332.072v4.452h-1.29v-5.284c.25-.093.561-.187.925-.27a6.509 6.509 0 0 1 1.54-.104c.114.01.229.031.343.042l.322.062c.105.031.198.052.26.073zM31.379 57.724c.426 0 .78.052 1.071.156.291.104.52.26.707.447.167.187.292.416.364.697.073.27.115.561.115.894v3.37c-.208.042-.5.094-.905.146a8.804 8.804 0 0 1-1.352.093c-.333 0-.635-.03-.915-.093a1.785 1.785 0 0 1-.697-.312 1.323 1.323 0 0 1-.458-.552c-.114-.228-.166-.499-.166-.832 0-.322.062-.592.187-.81a1.55 1.55 0 0 1 .5-.542c.218-.135.457-.239.738-.29.28-.063.572-.095.873-.095.146 0 .292.01.448.032.156.01.322.041.499.083v-.208c0-.146-.01-.291-.052-.427a.894.894 0 0 0-.187-.353.737.737 0 0 0-.354-.24 1.555 1.555 0 0 0-.54-.083c-.302 0-.573.021-.823.063a3.97 3.97 0 0 0-.603.145l-.156-1.04a5.17 5.17 0 0 1 .707-.166c.312-.063.645-.083.999-.083m.114 4.784c.385 0 .687-.02.895-.062V61.02a2.955 2.955 0 0 0-.302-.063 3.024 3.024 0 0 0-.873 0c-.146.021-.281.063-.396.115a.947.947 0 0 0-.29.239.758.758 0 0 0-.105.385c0 .312.104.52.291.634.187.125.448.177.78.177M38.368 60.49c0-.582-.073-.998-.218-1.258-.146-.26-.416-.385-.812-.385-.145 0-.29.01-.468.031-.166.021-.301.042-.384.052v4.483h-1.28v-5.377c.24-.063.572-.135.968-.198a7.07 7.07 0 0 1 1.269-.094c.384 0 .696.052.946.146.24.104.447.229.603.395.083-.062.177-.124.302-.187a1.83 1.83 0 0 1 .405-.166 2.22 2.22 0 0 1 .468-.135c.167-.042.333-.052.5-.052.437 0 .79.062 1.071.187.28.125.5.29.655.51.156.228.27.499.333.81.052.323.094.666.094 1.04v3.12h-1.29V60.49c0-.582-.062-.998-.208-1.258s-.416-.385-.822-.385c-.207 0-.395.031-.582.104a1.412 1.412 0 0 0-.416.198c.062.166.094.364.114.561.032.198.032.406.032.635v3.068h-1.28ZM44.078 60.657c0-.479.073-.916.218-1.28.146-.374.344-.676.583-.915.239-.25.51-.437.821-.561a2.78 2.78 0 0 1 .957-.177c.77 0 1.363.239 1.79.707.436.468.644 1.186.644 2.122v.239c-.01.094-.01.166-.021.24h-3.661c.03.446.187.79.468 1.04.28.238.686.363 1.217.363.312 0 .592-.031.853-.083.26-.062.468-.114.613-.187l.167 1.06c-.073.032-.167.073-.292.105-.125.041-.26.072-.426.104a5.09 5.09 0 0 1-1.071.114c-.49 0-.916-.073-1.28-.218a2.472 2.472 0 0 1-.894-.604 2.563 2.563 0 0 1-.52-.915 4.014 4.014 0 0 1-.167-1.154m3.724-.572c0-.177-.021-.344-.073-.5a1.303 1.303 0 0 0-.208-.416 1.318 1.318 0 0 0-.353-.28 1.188 1.188 0 0 0-.5-.094c-.197 0-.364.031-.52.104-.145.083-.27.177-.374.291-.104.125-.177.26-.24.427a2.204 2.204 0 0 0-.114.468zM53.615 59.013a8.048 8.048 0 0 0-.436-.114 3.984 3.984 0 0 0-.656-.052c-.145 0-.29.01-.457.042-.156.03-.26.052-.333.072v4.452h-1.28v-5.284c.25-.093.562-.187.926-.27a6.428 6.428 0 0 1 1.54-.104c.104.01.218.031.332.042.115.02.23.041.333.062.104.031.187.052.26.073zM56.164 56.236c0 .24-.083.427-.24.572a.781.781 0 0 1-.54.208.84.84 0 0 1-.572-.208c-.156-.145-.23-.332-.23-.572 0-.25.074-.447.23-.582a.802.802 0 0 1 .572-.218c.208 0 .395.072.54.218.157.135.24.333.24.582m-.136 7.177h-1.29v-5.554h1.29zM57.35 60.636c0-.406.062-.79.186-1.144.136-.364.312-.666.552-.936.239-.26.53-.468.873-.614a2.841 2.841 0 0 1 1.144-.218c.52 0 1.02.093 1.477.28l-.27 1.051a2.825 2.825 0 0 0-1.103-.218c-.51 0-.884.156-1.154.468-.26.312-.385.759-.385 1.33 0 .563.125.989.364 1.311.25.323.666.49 1.259.49.218 0 .436-.022.644-.063a2.69 2.69 0 0 0 .552-.167l.187 1.061a2.384 2.384 0 0 1-.645.198 4.993 4.993 0 0 1-.884.083c-.478 0-.884-.073-1.238-.218a2.306 2.306 0 0 1-1.383-1.53 3.747 3.747 0 0 1-.177-1.164M64.515 57.724c.427 0 .79.052 1.082.156.28.104.52.26.686.447.177.187.302.416.375.697.073.27.114.561.114.894v3.37c-.197.042-.499.094-.894.146a8.945 8.945 0 0 1-1.363.093c-.332 0-.634-.03-.915-.093a1.785 1.785 0 0 1-.697-.312 1.323 1.323 0 0 1-.457-.552c-.115-.228-.167-.499-.167-.832 0-.322.063-.592.187-.81.125-.22.292-.396.5-.542.218-.135.457-.239.738-.29.281-.063.572-.095.884-.095.135 0 .281.01.447.032.146.01.312.041.49.083v-.208c0-.146-.011-.291-.053-.427a.874.874 0 0 0-.176-.353.855.855 0 0 0-.354-.24 1.663 1.663 0 0 0-.551-.083c-.291 0-.572.021-.812.063-.26.041-.457.093-.613.145l-.156-1.04a5.17 5.17 0 0 1 .707-.166c.312-.063.645-.083.999-.083m.114 4.784c.395 0 .697-.02.894-.062V61.02a2.924 2.924 0 0 0-.749-.094c-.145 0-.29.01-.426.031-.156.021-.28.063-.395.115a.903.903 0 0 0-.28.239.668.668 0 0 0-.105.385c0 .312.094.52.28.634.188.125.448.177.78.177M68.343 58.036c.25-.063.572-.135.967-.198a8.435 8.435 0 0 1 1.31-.094c.458 0 .833.063 1.145.188.301.124.54.29.717.51.177.228.312.499.385.81.073.313.115.666.115 1.04v3.12h-1.29V60.49c0-.291-.01-.551-.052-.759a1.34 1.34 0 0 0-.198-.51.636.636 0 0 0-.353-.28 1.511 1.511 0 0 0-.562-.094c-.156 0-.333.01-.51.031-.176.02-.301.042-.395.052v4.483h-1.279zM79.576 60.625c0 .448-.063.843-.188 1.207a2.844 2.844 0 0 1-.55.926c-.23.25-.51.447-.843.592a2.607 2.607 0 0 1-1.082.208c-.395 0-.76-.062-1.082-.208a2.467 2.467 0 0 1-.842-.592 2.653 2.653 0 0 1-.541-.926 3.412 3.412 0 0 1-.208-1.207c0-.436.073-.832.208-1.185.125-.364.302-.666.551-.926.229-.25.51-.447.843-.582a2.558 2.558 0 0 1 1.071-.208c.385 0 .749.062 1.071.208.333.135.614.333.843.582.239.26.416.562.551.926.135.353.198.749.198 1.185m-1.321 0c0-.55-.115-.988-.354-1.31-.24-.322-.572-.478-.988-.478-.426 0-.76.156-.999.478-.239.322-.353.76-.353 1.31 0 .562.114.999.353 1.332.24.333.573.489.999.489.416 0 .749-.156.988-.49.24-.332.354-.769.354-1.33M82.29 62.487c.343 0 .593-.041.749-.114.156-.083.229-.229.229-.427 0-.187-.083-.332-.25-.457-.166-.125-.437-.25-.821-.385-.23-.094-.448-.177-.645-.28a2.2 2.2 0 0 1-.5-.334 1.208 1.208 0 0 1-.332-.457 1.62 1.62 0 0 1-.125-.666c0-.51.187-.915.561-1.206.375-.292.884-.437 1.53-.437.322 0 .634.03.935.093.292.052.52.115.666.167l-.229 1.04a3.384 3.384 0 0 0-.54-.167 2.86 2.86 0 0 0-.77-.083c-.26 0-.479.042-.635.135a.438.438 0 0 0-.25.406c0 .094.022.166.053.24a.58.58 0 0 0 .166.197c.073.062.177.125.302.177.135.062.291.124.468.197.312.104.561.219.78.333.208.104.385.229.52.364.146.146.239.302.312.479a1.9 1.9 0 0 1 .094.634c0 .53-.198.936-.593 1.206-.395.27-.957.406-1.675.406-.499 0-.884-.042-1.185-.125a5.645 5.645 0 0 1-.624-.187l.218-1.071c.197.073.416.145.686.218.27.073.572.104.905.104" fill="#545151"/>
</svg>
