<?xml version="1.0" encoding="UTF-8"?>
<svg width="294px" height="106px" viewBox="0 0 294 106" version="1.1" xmlns="http://www.w3.org/2000/svg" xmlns:xlink="http://www.w3.org/1999/xlink">
    <title>Artboard</title>
    <defs>
        <polygon id="path-1" points="8.8817842e-16 1.42108547e-14 59.7088381 1.42108547e-14 59.7088381 67.9138201 8.8817842e-16 67.9138201"></polygon>
        <polygon id="path-3" points="0 0 28.7407 0 28.7407 29.327 0 29.327"></polygon>
        <polygon id="path-5" points="0 0 31.171 0 31.171 29.4108 0 29.4108"></polygon>
        <polygon id="path-7" points="0 7.10542736e-15 30.208 7.10542736e-15 30.208 29.4105 0 29.4105"></polygon>
        <polygon id="path-9" points="0 0 28.7407 0 28.7407 29.327 0 29.327"></polygon>
    </defs>
    <g id="Artboard" stroke="none" stroke-width="1" fill="none" fill-rule="evenodd">
        <g id="Group-54" transform="translate(-0.000000, -1.000000)">
            <g id="Group-53" transform="translate(0.000000, 1.567800)">
                <g id="Group-4" transform="translate(-0.000000, 36.721180)">
                    <mask id="mask-2" fill="white">
                        <use xlink:href="#path-1"></use>
                    </mask>
                    <g id="Clip-3"></g>
                    <path d="M7.18,67.9140201 L59.595,67.9140201 C59.693,67.9140201 59.745,67.7990201 59.68,67.7260201 L0.198,0.0390200692 C0.129,-0.0399799308 8.8817842e-16,0.00902006925 8.8817842e-16,0.114020069 L8.8817842e-16,60.7330201 C8.8817842e-16,64.6990201 3.215,67.9140201 7.18,67.9140201" id="Fill-2" fill="#194E70" mask="url(#mask-2)"></path>
                </g>
                <path d="M11.1033,36.7231 L67.9023,100.7531 C67.9713,100.8311 68.1003,100.7831 68.1003,100.6781 L68.1003,74.1611 C68.1003,74.1331 68.0903,74.1061 68.0723,74.0851 L34.7953,36.5731 C34.7743,36.5481 34.7433,36.5341 34.7113,36.5341 L11.1883,36.5341 C11.0903,36.5341 11.0383,36.6501 11.1033,36.7231" id="Fill-5" fill="#D2112A"></path>
                <path d="M60.6903,36.5336 L44.5033,36.5336 C44.4053,36.5336 44.3533,36.6496 44.4183,36.7226 L67.9023,63.1966 C67.9713,63.2746 68.1003,63.2256 68.1003,63.1216 L68.0833,43.9206 C68.0793,39.8406 64.7713,36.5336 60.6903,36.5336" id="Fill-7" fill="#E88312"></path>
                <path d="M99.555,10.3696 C99.505,9.3136 99.172,8.5476 98.556,8.0696 C97.94,7.5926 97.204,7.3536 96.35,7.3536 L94.088,7.3536 L94.088,19.0426 L96.539,19.0426 C97.368,19.0426 98.066,18.7976 98.631,18.3066 C99.197,17.8166 99.505,17.0446 99.555,15.9876 C99.579,15.4606 99.598,14.9646 99.612,14.4986 C99.624,14.0336 99.631,13.5816 99.631,13.1406 C99.631,12.7016 99.624,12.2626 99.612,11.8216 C99.598,11.3826 99.579,10.8976 99.555,10.3696 L99.555,10.3696 Z M96.539,0.0006 C98.298,0.0006 99.932,0.2266 101.44,0.6796 C102.949,1.1326 104.262,1.7916 105.381,2.6586 C106.499,3.5256 107.385,4.6066 108.039,5.9016 C108.693,7.1966 109.057,8.6856 109.132,10.3696 C109.158,10.8976 109.171,11.3946 109.171,11.8586 L109.171,13.2166 L109.171,14.5556 C109.171,15.0086 109.158,15.4856 109.132,15.9876 C109.057,17.7726 108.705,19.3186 108.077,20.6266 C107.448,21.9326 106.594,23.0146 105.513,23.8686 C104.432,24.7236 103.149,25.3576 101.667,25.7726 C100.183,26.1876 98.537,26.3946 96.727,26.3946 L85.679,26.3946 C85.402,26.3946 85.163,26.2946 84.963,26.0936 C84.761,25.8916 84.661,25.6536 84.661,25.3776 L84.661,1.0186 C84.661,0.7426 84.761,0.5046 84.963,0.3026 C85.163,0.1016 85.402,0.0006 85.679,0.0006 L96.539,0.0006 Z" id="Fill-9" fill="#092A34"></path>
                <path d="M129.682,15.6108 L127.534,8.5968 L125.422,15.6108 L129.682,15.6108 Z M131.643,0.0008 C132.146,0.0008 132.536,0.1388 132.812,0.4158 C133.088,0.6918 133.265,0.9678 133.34,1.2458 L141.748,25.3008 C141.773,25.3778 141.786,25.4648 141.786,25.5648 C141.786,25.7918 141.704,25.9868 141.541,26.1498 C141.377,26.3138 141.183,26.3948 140.957,26.3948 L133.981,26.3948 C133.478,26.3948 133.126,26.2888 132.925,26.0748 C132.724,25.8608 132.586,25.6538 132.511,25.4528 L131.606,22.9638 L123.499,22.9638 L122.594,25.4528 C122.518,25.6538 122.38,25.8608 122.179,26.0748 C121.977,26.2888 121.625,26.3948 121.123,26.3948 L114.148,26.3948 C113.921,26.3948 113.726,26.3138 113.563,26.1498 C113.399,25.9868 113.318,25.7918 113.318,25.5648 C113.318,25.4648 113.33,25.3778 113.355,25.3008 L121.764,1.2458 C121.84,0.9678 122.015,0.6918 122.292,0.4158 C122.569,0.1388 122.958,0.0008 123.461,0.0008 L131.643,0.0008 Z" id="Fill-11" fill="#092A34"></path>
                <path d="M170.1033,0.0004 C170.3793,0.0004 170.6183,0.1024 170.8193,0.3024 C171.0203,0.5044 171.1213,0.7424 171.1213,1.0194 L171.1213,25.3774 C171.1213,25.6534 171.0203,25.8924 170.8193,26.0934 C170.6183,26.2944 170.3793,26.3954 170.1033,26.3954 L164.1453,26.3954 C163.6423,26.3954 163.2783,26.2814 163.0513,26.0554 C162.8263,25.8294 162.6743,25.6534 162.6003,25.5274 L156.2273,15.9124 L156.2273,25.3774 C156.2273,25.6534 156.1263,25.8924 155.9253,26.0934 C155.7243,26.2944 155.4853,26.3954 155.2093,26.3954 L148.3843,26.3954 C148.1073,26.3954 147.8683,26.2944 147.6683,26.0934 C147.4663,25.8924 147.3663,25.6534 147.3663,25.3774 L147.3663,1.0194 C147.3663,0.7424 147.4663,0.5044 147.6683,0.3024 C147.8683,0.1024 148.1073,0.0004 148.3843,0.0004 L154.3413,0.0004 C154.8443,0.0004 155.2093,0.1134 155.4363,0.3394 C155.6613,0.5654 155.8123,0.7424 155.8873,0.8674 L162.2603,11.3134 L162.2603,1.0194 C162.2603,0.7424 162.3603,0.5044 162.5623,0.3024 C162.7623,0.1024 163.0013,0.0004 163.2783,0.0004 L170.1033,0.0004 Z" id="Fill-13" fill="#092A34"></path>
                <path d="M178.8026,26.395 C178.5256,26.395 178.2866,26.294 178.0866,26.093 C177.8846,25.892 177.7846,25.654 177.7846,25.377 L177.7846,1.019 C177.7846,0.743 177.8846,0.504 178.0866,0.302 C178.2866,0.102 178.5256,0 178.8026,0 L186.4946,0 C186.7716,0 187.0106,0.102 187.2116,0.302 C187.4126,0.504 187.5126,0.743 187.5126,1.019 L187.5126,25.377 C187.5126,25.654 187.4126,25.892 187.2116,26.093 C187.0106,26.294 186.7716,26.395 186.4946,26.395 L178.8026,26.395 Z" id="Fill-15" fill="#092A34"></path>
                <path d="M215.1888,18.6655 C215.4658,18.6655 215.7048,18.7665 215.9058,18.9675 C216.1068,19.1685 216.2068,19.4065 216.2068,19.6835 L216.2068,25.3775 C216.2068,25.6535 216.1068,25.8925 215.9058,26.0935 C215.7048,26.2945 215.4658,26.3945 215.1888,26.3945 L196.1848,26.3945 C195.9078,26.3945 195.6688,26.2945 195.4688,26.0935 C195.2668,25.8925 195.1668,25.6535 195.1668,25.3775 L195.1668,1.0195 C195.1668,0.7425 195.2668,0.5045 195.4688,0.3025 C195.6688,0.1025 195.9078,0.0005 196.1848,0.0005 L203.7258,0.0005 C204.0028,0.0005 204.2418,0.1025 204.4428,0.3025 C204.6438,0.5045 204.7448,0.7425 204.7448,1.0195 L204.7448,18.6655 L215.1888,18.6655 Z" id="Fill-17" fill="#092A34"></path>
                <path d="M222.3055,26.395 C222.0285,26.395 221.7895,26.294 221.5895,26.093 C221.3875,25.892 221.2875,25.654 221.2875,25.377 L221.2875,1.019 C221.2875,0.743 221.3875,0.504 221.5895,0.302 C221.7895,0.102 222.0285,0 222.3055,0 L229.9975,0 C230.2745,0 230.5135,0.102 230.7145,0.302 C230.9155,0.504 231.0155,0.743 231.0155,1.019 L231.0155,25.377 C231.0155,25.654 230.9155,25.892 230.7145,26.093 C230.5135,26.294 230.2745,26.395 229.9975,26.395 L222.3055,26.395 Z" id="Fill-19" fill="#092A34"></path>
                <path d="M260.3509,0.0004 C260.6279,0.0004 260.8669,0.1024 261.0679,0.3024 C261.2689,0.5044 261.3689,0.7424 261.3689,1.0194 L261.3689,7.0894 C261.3689,7.3664 261.2689,7.6044 261.0679,7.8064 C260.8669,8.0074 260.6279,8.1064 260.3509,8.1064 L254.0919,8.1064 L254.0919,25.3774 C254.0919,25.6534 253.9919,25.8924 253.7899,26.0934 C253.5879,26.2944 253.3509,26.3954 253.0739,26.3954 L245.5329,26.3954 C245.2559,26.3954 245.0169,26.2944 244.8159,26.0934 C244.6149,25.8924 244.5149,25.6534 244.5149,25.3774 L244.5149,8.1064 L238.2549,8.1064 C237.9779,8.1064 237.7399,8.0074 237.5389,7.8064 C237.3369,7.6044 237.2369,7.3664 237.2369,7.0894 L237.2369,1.0194 C237.2369,0.7424 237.3369,0.5044 237.5389,0.3024 C237.7399,0.1024 237.9779,0.0004 238.2549,0.0004 L260.3509,0.0004 Z" id="Fill-21" fill="#092A34"></path>
                <path d="M291.5345,0.0004 C291.8105,0.0004 292.0495,0.1024 292.2515,0.3024 C292.4515,0.5044 292.5525,0.7424 292.5525,1.0194 L292.5525,25.3774 C292.5525,25.6534 292.4515,25.8924 292.2515,26.0934 C292.0495,26.2944 291.8105,26.3954 291.5345,26.3954 L284.1435,26.3954 C283.8665,26.3954 283.6285,26.2944 283.4285,26.0934 C283.2255,25.8924 283.1255,25.6534 283.1255,25.3774 L283.1255,17.2314 L277.0165,17.2314 L277.0165,25.3774 C277.0165,25.6534 276.9175,25.8924 276.7165,26.0934 C276.5135,26.2944 276.2755,26.3954 275.9995,26.3954 L268.6085,26.3954 C268.3315,26.3954 268.0935,26.3014 267.8925,26.1114 C267.6905,25.9244 267.5905,25.6784 267.5905,25.3774 L267.5905,1.0194 C267.5905,0.7424 267.6905,0.5044 267.8925,0.3024 C268.0935,0.1024 268.3315,0.0004 268.6085,0.0004 L275.9995,0.0004 C276.2755,0.0004 276.5135,0.1024 276.7165,0.3024 C276.9175,0.5044 277.0165,0.7424 277.0165,1.0194 L277.0165,8.9374 L283.1255,8.9374 L283.1255,1.0194 C283.1255,0.7424 283.2255,0.5044 283.4285,0.3024 C283.6285,0.1024 283.8665,0.0004 284.1435,0.0004 L291.5345,0.0004 Z" id="Fill-23" fill="#092A34"></path>
                <path d="M104.7235,36.5766 L112.5155,36.5766 C112.8235,36.5766 113.0885,36.6886 113.3115,36.9126 C113.5355,37.1366 113.6475,37.4006 113.6475,37.7086 L113.6475,64.7726 C113.6475,65.0806 113.5355,65.3456 113.3115,65.5686 C113.0885,65.7926 112.8235,65.9036 112.5155,65.9036 L105.7705,65.9036 C105.1005,65.9036 104.5415,65.6106 104.0945,65.0246 L94.9615,53.3766 L94.9615,64.7726 C94.9615,65.0806 94.8495,65.3456 94.6265,65.5686 C94.4025,65.7926 94.1375,65.9036 93.8295,65.9036 L86.0375,65.9036 C85.7295,65.9036 85.4655,65.7926 85.2415,65.5686 C85.0175,65.3456 84.9065,65.0806 84.9065,64.7726 L84.9065,37.7086 C84.9065,37.4006 85.0175,37.1366 85.2415,36.9126 C85.4655,36.6886 85.7295,36.5766 86.0375,36.5766 L92.8255,36.5766 C93.4945,36.5766 94.0395,36.8556 94.4585,37.4146 L103.5925,50.0246 L103.5925,37.7086 C103.5925,37.4006 103.7025,37.1366 103.9275,36.9126 C104.1505,36.6886 104.4155,36.5766 104.7235,36.5766" id="Fill-25" fill="#092A34"></path>
                <path d="M130.8792,48.0717 L130.8792,54.4097 C130.8792,55.4917 131.2632,56.3237 132.0312,56.9047 C132.7992,57.4857 133.8392,57.7767 135.1522,57.7767 C136.4652,57.7767 137.5052,57.4797 138.2742,56.8847 C139.0422,56.2907 139.4262,55.4527 139.4262,54.3697 L139.4262,48.1107 C139.4262,47.0287 139.0422,46.1907 138.2742,45.5957 C137.5052,45.0017 136.4652,44.7047 135.1522,44.7047 C133.8392,44.7047 132.7992,44.9957 132.0312,45.5757 C131.2632,46.1577 130.8792,46.9887 130.8792,48.0717 M150.7382,48.7487 L150.7382,53.7317 C150.7382,56.5377 150.0392,58.8797 148.6432,60.7587 C147.2462,62.6377 145.4172,63.9717 143.1552,64.7617 C140.8922,65.5507 138.2252,65.9457 135.1522,65.9457 C132.0802,65.9457 129.4132,65.5507 127.1502,64.7617 C124.8882,63.9717 123.0582,62.6377 121.6622,60.7587 C120.2652,58.8797 119.5672,56.5097 119.5672,53.6507 L119.5672,48.8297 C119.5672,44.7177 121.0132,41.6407 123.9032,39.5977 C126.7952,37.5557 130.5452,36.5357 135.1522,36.5357 C139.7612,36.5357 143.5112,37.5557 146.4022,39.5977 C149.2932,41.6407 150.7382,44.6917 150.7382,48.7487" id="Fill-27" fill="#092A34"></path>
                <path d="M187.9276,64.4379 C188.0386,64.6049 188.0946,64.8009 188.0946,65.0249 C188.0946,65.2489 188.0046,65.4509 187.8226,65.6319 C187.6406,65.8139 187.4246,65.9039 187.1736,65.9039 L176.3646,65.9039 C175.7216,65.9039 175.2186,65.6809 174.8556,65.2339 L167.5666,56.2259 L167.5666,64.7729 C167.5666,65.0809 167.4546,65.3449 167.2306,65.5689 C167.0076,65.7919 166.7416,65.9039 166.4346,65.9039 L157.8036,65.9039 C157.4966,65.9039 157.2316,65.7919 157.0086,65.5689 C156.7846,65.3449 156.6726,65.0809 156.6726,64.7729 L156.6726,37.7089 C156.6726,37.4009 156.7846,37.1359 157.0086,36.9129 C157.2316,36.6889 157.4966,36.5769 157.8036,36.5769 L166.4346,36.5769 C166.7416,36.5769 167.0076,36.6889 167.2306,36.9129 C167.4546,37.1359 167.5666,37.4009 167.5666,37.7089 L167.5666,45.5839 L174.1856,37.2889 C174.6046,36.8139 175.1206,36.5769 175.7366,36.5769 L185.8326,36.5769 C186.0836,36.5769 186.3006,36.6669 186.4826,36.8489 C186.6636,37.0309 186.7546,37.2409 186.7546,37.4779 C186.7546,37.7149 186.6846,37.9169 186.5446,38.0849 L176.6156,50.1929 L187.9276,64.4379 Z" id="Fill-29" fill="#092A34"></path>
                <path d="M204.0838,57.7338 L220.8008,57.7338 C221.1078,57.7338 221.3728,57.8458 221.5968,58.0698 C221.8198,58.2938 221.9318,58.5588 221.9318,58.8658 L221.9318,64.7728 C221.9318,65.0808 221.8198,65.3448 221.5968,65.5688 C221.3728,65.7928 221.1078,65.9038 220.8008,65.9038 L194.3218,65.9038 C194.0148,65.9038 193.7488,65.7928 193.5258,65.5688 C193.3028,65.3448 193.1908,65.0808 193.1908,64.7728 L193.1908,37.7088 C193.1908,37.4008 193.3028,37.1358 193.5258,36.9128 C193.7488,36.6888 194.0148,36.5768 194.3218,36.5768 L220.3818,36.5768 C220.6878,36.5768 220.9538,36.6888 221.1778,36.9128 C221.4008,37.1358 221.5128,37.4008 221.5128,37.7088 L221.5128,43.6158 C221.5128,43.9228 221.4008,44.1878 221.1778,44.4118 C220.9538,44.6348 220.6878,44.7468 220.3818,44.7468 L204.0838,44.7468 L204.0838,47.3858 L218.0778,47.3858 C218.3838,47.3858 218.6488,47.4988 218.8728,47.7208 C219.0968,47.9448 219.2088,48.2108 219.2088,48.5168 L219.2088,53.9638 C219.2088,54.2718 219.0968,54.5368 218.8728,54.7588 C218.6488,54.9838 218.3838,55.0938 218.0778,55.0938 L204.0838,55.0938 L204.0838,57.7338 Z" id="Fill-31" fill="#092A34"></path>
                <path d="M240.1561,44.3696 L240.1561,48.8096 L245.3931,48.8096 C246.0071,48.8096 246.4821,48.6076 246.8181,48.2036 C247.1521,47.7986 247.3201,47.2886 247.3201,46.6736 C247.3201,46.0596 247.1591,45.5206 246.8391,45.0606 C246.5171,44.5996 246.0351,44.3696 245.3931,44.3696 L240.1561,44.3696 Z M259.4701,64.6046 C259.5251,64.7176 259.5541,64.8706 259.5541,65.0656 C259.5541,65.2626 259.4631,65.4506 259.2811,65.6326 C259.0991,65.8136 258.8841,65.9036 258.6321,65.9036 L249.1211,65.9036 C248.2831,65.9036 247.6971,65.5556 247.3621,64.8566 L243.6751,56.5606 L240.1561,56.5606 L240.1561,64.7726 C240.1561,65.0806 240.0441,65.3456 239.8211,65.5686 C239.5971,65.7926 239.3311,65.9036 239.0251,65.9036 L229.9751,65.9036 C229.6681,65.9036 229.4021,65.7926 229.1791,65.5686 C228.9551,65.3456 228.8441,65.0806 228.8441,64.7726 L228.8441,37.7086 C228.8441,37.4006 228.9551,37.1366 229.1791,36.9126 C229.4021,36.6886 229.6681,36.5766 229.9751,36.5766 L246.2731,36.5766 C250.0991,36.5766 253.1291,37.4846 255.3641,39.3006 C257.5981,41.1166 258.7161,43.5886 258.7161,46.7156 C258.7161,50.5146 257.2491,53.2656 254.3171,54.9696 L259.4701,64.6046 Z" id="Fill-33" fill="#092A34"></path>
                <g id="Group-37" transform="translate(264.413000, 36.576800)">
                    <mask id="mask-4" fill="white">
                        <use xlink:href="#path-3"></use>
                    </mask>
                    <g id="Clip-36"></g>
                    <path d="M10.893,21.157 L27.61,21.157 C27.916,21.157 28.182,21.269 28.406,21.493 C28.628,21.717 28.741,21.982 28.741,22.289 L28.741,28.196 C28.741,28.504 28.628,28.768 28.406,28.992 C28.182,29.216 27.916,29.327 27.61,29.327 L1.131,29.327 C0.823,29.327 0.558,29.216 0.335,28.992 C0.111,28.768 0,28.504 0,28.196 L0,1.132 C0,0.824 0.111,0.559 0.335,0.336 C0.558,0.112 0.823,0 1.131,0 L27.191,0 C27.497,0 27.763,0.112 27.987,0.336 C28.21,0.559 28.322,0.824 28.322,1.132 L28.322,7.039 C28.322,7.346 28.21,7.611 27.987,7.835 C27.763,8.058 27.497,8.17 27.191,8.17 L10.893,8.17 L10.893,10.809 L24.886,10.809 C25.193,10.809 25.458,10.922 25.682,11.144 C25.906,11.368 26.018,11.634 26.018,11.94 L26.018,17.387 C26.018,17.695 25.906,17.96 25.682,18.182 C25.458,18.407 25.193,18.517 24.886,18.517 L10.893,18.517 L10.893,21.157 Z" id="Fill-35" fill="#092A34" mask="url(#mask-4)"></path>
                </g>
                <path d="M115.994,103.1274 C116.105,103.2944 116.161,103.4894 116.161,103.7134 C116.161,103.9374 116.07,104.1404 115.889,104.3214 C115.707,104.5034 115.491,104.5934 115.24,104.5934 L104.43,104.5934 C103.788,104.5934 103.285,104.3704 102.922,103.9234 L95.632,94.9154 L95.632,103.4624 C95.632,103.7704 95.52,104.0344 95.297,104.2584 C95.073,104.4814 94.808,104.5934 94.501,104.5934 L85.87,104.5934 C85.562,104.5934 85.297,104.4814 85.074,104.2584 C84.85,104.0344 84.739,103.7704 84.739,103.4624 L84.739,76.3974 C84.739,76.0904 84.85,75.8254 85.074,75.6024 C85.297,75.3784 85.562,75.2664 85.87,75.2664 L94.501,75.2664 C94.808,75.2664 95.073,75.3784 95.297,75.6024 C95.52,75.8254 95.632,76.0904 95.632,76.3974 L95.632,84.2734 L102.251,75.9784 C102.671,75.5034 103.187,75.2664 103.802,75.2664 L113.899,75.2664 C114.15,75.2664 114.366,75.3564 114.548,75.5384 C114.73,75.7204 114.82,75.9294 114.82,76.1664 C114.82,76.4034 114.751,76.6064 114.611,76.7744 L104.682,88.8824 L115.994,103.1274 Z" id="Fill-38" fill="#092A34"></path>
                <g id="Group-42" transform="translate(119.567200, 75.224200)">
                    <mask id="mask-6" fill="white">
                        <use xlink:href="#path-5"></use>
                    </mask>
                    <g id="Clip-41"></g>
                    <path d="M11.312,11.537 L11.312,17.874 C11.312,18.957 11.696,19.789 12.464,20.37 C13.232,20.951 14.272,21.242 15.585,21.242 C16.898,21.242 17.938,20.945 18.707,20.35 C19.475,19.756 19.859,18.918 19.859,17.835 L19.859,11.576 C19.859,10.493 19.475,9.656 18.707,9.061 C17.938,8.467 16.898,8.17 15.585,8.17 C14.272,8.17 13.232,8.461 12.464,9.041 C11.696,9.623 11.312,10.454 11.312,11.537 M31.171,12.214 L31.171,17.197 C31.171,20.003 30.472,22.345 29.076,24.224 C27.679,26.102 25.85,27.437 23.588,28.227 C21.325,29.016 18.658,29.411 15.585,29.411 C12.513,29.411 9.846,29.016 7.583,28.227 C5.321,27.437 3.491,26.102 2.095,24.224 C0.698,22.345 0,19.975 0,17.116 L0,12.295 C0,8.183 1.446,5.106 4.336,3.063 C7.228,1.021 10.978,0 15.585,0 C20.194,0 23.944,1.021 26.835,3.063 C29.726,5.106 31.171,8.156 31.171,12.214" id="Fill-40" fill="#092A34" mask="url(#mask-6)"></path>
                </g>
                <path d="M167.7611,96.4233 L184.4781,96.4233 C184.7841,96.4233 185.0501,96.5353 185.2741,96.7593 C185.4961,96.9833 185.6091,97.2473 185.6091,97.5553 L185.6091,103.4623 C185.6091,103.7703 185.4961,104.0343 185.2741,104.2583 C185.0501,104.4823 184.7841,104.5933 184.4781,104.5933 L157.9991,104.5933 C157.6911,104.5933 157.4261,104.4823 157.2031,104.2583 C156.9791,104.0343 156.8681,103.7703 156.8681,103.4623 L156.8681,76.3973 C156.8681,76.0903 156.9791,75.8253 157.2031,75.6023 C157.4261,75.3783 157.6911,75.2663 157.9991,75.2663 L184.0581,75.2663 C184.3651,75.2663 184.6311,75.3783 184.8551,75.6023 C185.0781,75.8253 185.1901,76.0903 185.1901,76.3973 L185.1901,82.3053 C185.1901,82.6113 185.0781,82.8773 184.8551,83.1003 C184.6311,83.3243 184.3651,83.4363 184.0581,83.4363 L167.7611,83.4363 L167.7611,86.0753 L181.7541,86.0753 C182.0611,86.0753 182.3261,86.1883 182.5501,86.4103 C182.7741,86.6343 182.8861,86.9003 182.8861,87.2063 L182.8861,92.6533 C182.8861,92.9603 182.7741,93.2263 182.5501,93.4483 C182.3261,93.6723 182.0611,93.7833 181.7541,93.7833 L167.7611,93.7833 L167.7611,96.4233 Z" id="Fill-43" fill="#092A34"></path>
                <path d="M203.8328,83.059 L203.8328,87.499 L209.0698,87.499 C209.6838,87.499 210.1588,87.297 210.4948,86.893 C210.8298,86.488 210.9968,85.977 210.9968,85.363 C210.9968,84.749 210.8358,84.21 210.5158,83.75 C210.1938,83.289 209.7118,83.059 209.0698,83.059 L203.8328,83.059 Z M223.1468,103.294 C223.2028,103.407 223.2308,103.56 223.2308,103.755 C223.2308,103.951 223.1398,104.14 222.9578,104.322 C222.7758,104.503 222.5608,104.593 222.3098,104.593 L212.7988,104.593 C211.9608,104.593 211.3748,104.245 211.0398,103.546 L207.3528,95.25 L203.8328,95.25 L203.8328,103.462 C203.8328,103.77 203.7208,104.035 203.4978,104.258 C203.2738,104.482 203.0088,104.593 202.7018,104.593 L193.6518,104.593 C193.3448,104.593 193.0798,104.482 192.8558,104.258 C192.6318,104.035 192.5208,103.77 192.5208,103.462 L192.5208,76.397 C192.5208,76.09 192.6318,75.826 192.8558,75.602 C193.0798,75.378 193.3448,75.266 193.6518,75.266 L209.9498,75.266 C213.7758,75.266 216.8068,76.174 219.0408,77.99 C221.2748,79.805 222.3928,82.278 222.3928,85.405 C222.3928,89.204 220.9258,91.955 217.9938,93.659 L223.1468,103.294 Z" id="Fill-45" fill="#092A34"></path>
                <g id="Group-49" transform="translate(227.907500, 75.224500)">
                    <mask id="mask-8" fill="white">
                        <use xlink:href="#path-7"></use>
                    </mask>
                    <g id="Clip-48"></g>
                    <path d="M27.295,13.813 C29.236,15.203 30.208,17.287 30.208,20.065 C30.208,22.843 28.797,25.095 25.976,26.822 C23.154,28.547 19.412,29.411 14.748,29.411 C10.083,29.411 6.459,28.56 3.875,26.858 C1.292,25.156 0,23.06 0,20.57 C0,19.96 0.321,19.656 0.963,19.656 L9.553,19.656 C10.139,19.656 10.614,19.829 10.977,20.171 C11.759,20.884 13.114,21.242 15.041,21.242 C17.694,21.242 19.021,20.85 19.021,20.068 C19.021,19.583 18.602,19.198 17.764,18.915 C16.926,18.631 15.264,18.355 12.778,18.084 C4.874,17.168 0.922,14.242 0.922,9.305 C0.922,6.527 2.192,4.282 4.734,2.57 C7.276,0.856 10.676,7.10542736e-15 14.937,7.10542736e-15 C19.195,7.10542736e-15 22.638,0.92 25.264,2.763 C27.888,4.605 29.202,6.551 29.202,8.601 C29.202,8.878 29.111,9.1 28.93,9.266 C28.748,9.432 28.503,9.515 28.196,9.515 L19.189,9.515 C18.686,9.515 18.253,9.357 17.89,9.04 C17.219,8.46 16.214,8.169 14.873,8.169 C13.002,8.169 12.066,8.547 12.066,9.302 C12.066,9.707 12.429,10.024 13.155,10.253 C13.881,10.482 15.334,10.719 17.513,10.961 C22.093,11.474 25.354,12.424 27.295,13.813" id="Fill-47" fill="#092A34" mask="url(#mask-8)"></path>
                </g>
                <g id="Group-52" transform="translate(264.413000, 75.266300)">
                    <mask id="mask-10" fill="white">
                        <use xlink:href="#path-9"></use>
                    </mask>
                    <g id="Clip-51"></g>
                    <path d="M10.893,21.157 L27.61,21.157 C27.916,21.157 28.182,21.269 28.406,21.493 C28.628,21.717 28.741,21.981 28.741,22.289 L28.741,28.196 C28.741,28.504 28.628,28.768 28.406,28.992 C28.182,29.216 27.916,29.327 27.61,29.327 L1.131,29.327 C0.823,29.327 0.558,29.216 0.335,28.992 C0.111,28.768 0,28.504 0,28.196 L0,1.131 C0,0.824 0.111,0.559 0.335,0.336 C0.558,0.112 0.823,0 1.131,0 L27.191,0 C27.497,0 27.763,0.112 27.987,0.336 C28.21,0.559 28.322,0.824 28.322,1.131 L28.322,7.039 C28.322,7.345 28.21,7.611 27.987,7.834 C27.763,8.058 27.497,8.17 27.191,8.17 L10.893,8.17 L10.893,10.809 L24.886,10.809 C25.193,10.809 25.458,10.922 25.682,11.144 C25.906,11.368 26.018,11.634 26.018,11.94 L26.018,17.387 C26.018,17.694 25.906,17.96 25.682,18.182 C25.458,18.406 25.193,18.517 24.886,18.517 L10.893,18.517 L10.893,21.157 Z" id="Fill-50" fill="#092A34" mask="url(#mask-10)"></path>
                </g>
            </g>
        </g>
    </g>
</svg>