<svg xmlns="http://www.w3.org/2000/svg" width="118" height="50.18" viewBox="0 0 118 50.18"><g transform="translate(5324 16166.647)"><path d="M0,0H118V50.179H0Z" transform="translate(-5324 -16166.647)" fill="none"/><path d="M11.822,9.036h4.991c-.482,4.156-3.809,6.881-8.341,6.881H8.406C3.612,15.917,0,12.73,0,7.958S3.5,0,8.406,0h.065C13,0,16.33,2.726,16.813,6.881H11.822a3.45,3.45,0,0,0-3.35-2.374H8.406A3.334,3.334,0,0,0,4.9,7.958a3.334,3.334,0,0,0,3.5,3.451h.065a3.423,3.423,0,0,0,3.35-2.374Z" transform="translate(-5288.927 -16153.792)" fill="#25335E"/><path d="M14.893,4.243l-8.036,6.9h8.036v4.243H0V11.146l8.062-6.9H0V0H14.893Z" transform="translate(-5271.001 -16153.527)" fill="#25335E"/><path d="M4.816,4.176V5.715h7.151v4H4.816v1.472h8.641v4.2H0V0H13.457V4.177H4.816Z" transform="translate(-5254.189 -16153.527)" fill="#25335E"/><path d="M11.822,9.036h4.991c-.482,4.156-3.81,6.881-8.341,6.881H8.406C3.612,15.917,0,12.73,0,7.958S3.5,0,8.406,0h.065C13,0,16.33,2.726,16.813,6.881H11.822A3.449,3.449,0,0,0,8.473,4.507H8.408a3.334,3.334,0,0,0-3.5,3.451,3.334,3.334,0,0,0,3.5,3.451h.065a3.421,3.421,0,0,0,3.349-2.374Z" transform="translate(-5239.656 -16153.792)" fill="#25335E"/><path d="M15.149,0V15.389H10.332V9.672H4.816v5.716H0V0H4.816V5.387h5.516V0Z" transform="translate(-5221.149 -16153.528)" fill="#25335E"/><path d="M15.018,4.243h-5.1V15.39H5.1V4.243H0V0H15.018Z" transform="translate(-5288.033 -16135.698)" fill="#25335E"/><path d="M16.88,7.958c0,4.771-3.5,7.958-8.408,7.958H8.408C3.613,15.917,0,12.728,0,7.958S3.5,0,8.408,0h.065C13.377,0,16.88,3.21,16.88,7.958Zm-4.9,0a3.335,3.335,0,0,0-3.5-3.451H8.408A3.335,3.335,0,0,0,4.9,7.958a3.335,3.335,0,0,0,3.5,3.451h.065A3.323,3.323,0,0,0,11.976,7.958Z" transform="translate(-5272.388 -16135.962)" fill="#25335E"/><path d="M0,8.377V0H4.816V7.937c0,1.628.723,3.056,2.737,3.056h.065c2.036,0,2.737-1.429,2.737-3.056V0h4.816V8.377c0,4.771-2.869,7.277-7.553,7.277H7.553C2.867,15.654,0,13.148,0,8.377Z" transform="translate(-5254.195 -16135.699)" fill="#25335E"/><path d="M0,0H8.341c3.918,0,6.5,2.66,6.5,5.936a5.7,5.7,0,0,1-2.627,4.858l3.022,4.6H9.655l-2.08-3.518H4.838V15.39H0ZM8.341,7.629a1.693,1.693,0,0,0,0-3.386h-3.5V7.629Z" transform="translate(-5237.671 -16135.699)" fill="#25335E"/><path d="M.307,10.168l.809-3.244C2.241,2.4,5.478,0,10.173,0c5.434,0,8.656,3.022,7.284,8.48l-.023.081H11.7l.161-.63C12.338,5.988,11.774,4.7,9.786,4.7c-1.565,0-2.392.936-2.814,2.614L6.092,10.8c-.457,1.819-.018,3.25,2.058,3.25,1.583,0,2.374-.919,2.831-2.721l.21-.75h5.735l-.263.962c-1.09,4.345-3.992,7.207-9,7.207-5.628,0-8.671-3.3-7.352-8.584Z" transform="translate(-5313.604 -16166.647)" fill="#25335E"/><path d="M5.406,10.288H0L.963,6.53A8.463,8.463,0,0,1,9.543,0H21.362c2.415,0,4.761.431,6.45,1.923a4.547,4.547,0,0,1,1.529,4.608l-.94,3.758H22.958l.6-2.409a1.9,1.9,0,0,0-.2-1.612,2.046,2.046,0,0,0-1.732-.7H9.228A3,3,0,0,0,6.018,7.9l-.613,2.391Z" transform="translate(-5323.999 -16145.893)" fill="#25335E"/><path d="M0,21.847,5.457,0H12.12L6.663,21.847Z" transform="translate(-5317.948 -16138.314)" fill="#25335E"/></g></svg>