<?xml version="1.0" encoding="utf-8"?>
<!-- Generator: Adobe Illustrator 23.1.0, SVG Export Plug-In . SVG Version: 6.00 Build 0)  -->
<svg version="1.1" id="Layer_1" xmlns="http://www.w3.org/2000/svg" xmlns:xlink="http://www.w3.org/1999/xlink" x="0px" y="0px"
	 width="429.2px" height="181.6px" viewBox="0 0 429.2 181.6" style="enable-background:new 0 0 429.2 181.6;" xml:space="preserve"
	>
<style type="text/css">
	.st0{fill:#2E3192;}
	.st1{fill:#ED1C24;}
</style>
<g>
	<path class="st0" d="M372.7,127.8c3.3,3.2,7.3,5.3,11.7,6.2c17.4,3.6,35.7-10,41.2-39.5c4-21.4-3.2-42.1-19.7-46.4
		c-4.3-1.1-7.7-0.9-7.7-0.9s16.5-23.7,5.6-37.6c-9.7-12.4-30.8-10.7-49.2,7.2c-0.9,0.9-0.3,1.6,0.7,0.8c4.7-3.8,32.4-19.6,41.8-3
		c3.2,5.6,1.3,22.2-17.2,35.8c-2.8,2-2.6,5.5-1.6,8.5c0.9,2.9,5.4,19.6-3,48.4c-0.4,1.3,0.4,1.3,0.9,0.7c3.9-4.7,14.6-19.6,14.2-46
		c-0.1-6.2,5.2-12.8,14.1-9.9c12.2,3.9,15.9,21.7,11.5,41.5c-5.4,24.6-17.5,36.1-29.8,36.3c-5.6,0.1-9.8-1.6-13-3
		C372.7,126.5,372.2,127.2,372.7,127.8"/>
	<path class="st0" d="M347.5,38.4c5.3-0.9,8.6-6.5,7.4-12.5c-1.2-5.9-6.4-10-11.7-9.1c-5.3,0.9-8.6,6.5-7.4,12.4
		C337,35.3,342.2,39.3,347.5,38.4"/>
	<path class="st0" d="M347.4,89.9c7.2,9,10.7,25.3,8.4,42.6c-3.2,25.2-17.3,44.1-32.9,42.1c-14.9-1.9-24.5-21.5-21.1-49.2
		c2.7-22.3,14.1-40.4,27.1-42.6c0.7-0.1,1.4-0.2,1.4-0.6c-0.1-0.5-0.7-0.4-1.4-0.4c-18,0.7-33.9,17.3-37.4,41.1
		c-4.8,32.8,9.3,53.7,28.9,56.3c19.5,2.5,38.3-18,41.9-45.9c2.3-17.7-3.8-34.3-13.9-43.9c-0.8-0.7-1.2-1-1.4-0.8
		C346.8,88.9,346.9,89.3,347.4,89.9"/>
	<path class="st0" d="M354.8,60.6l-11-2.3c2.4,40.2-8.7,66.5-11.6,73.8c-0.5,1.1-1.4,1.1-1.1-0.5c3.6-22.5,6.1-51.4,0-76l-11.7-2.4
		c-1.3-0.2-1.6,0.1-1.8,1.1c-2.1,11.5,7.6,11.7,9.6,10.2c0.8-0.6,1.4,0,0.7,0.7c-6.8,6.6-19.3,0.6-17.3-14.8
		c0.5-3.7,2.3-7.2,7.5-6.3l40.6,8.3c7.3,1.4,6.6,6.8,5.5,10.4c-3.4,11.6,2.1,14.8,8.5,11.8c0.5-0.2,1,0.3,0.3,0.9
		c-4.1,3.9-18.2,4.5-16.7-13.3C356.2,61.3,355.9,60.8,354.8,60.6"/>
</g>
<g>
	<path class="st0" d="M36.2,101H10.7v-5.9h25.4c1.3,0,2.9,0.5,2.9,3C39.1,98.8,39.1,100.9,36.2,101 M36.2,116.2H10.7v-5.9h25.4
		c1.3,0,2.9,0.5,2.9,3C39.1,114,39.1,116.1,36.2,116.2 M36.2,85.8H1.6v39.7h34.6c4.9,0,12.1-3.3,12.1-12.2c0-3.2-0.9-5.7-2.4-7.6
		c1.4-1.9,2.4-4.4,2.4-7.6C48.3,89,41.1,85.8,36.2,85.8"/>
</g>
<rect x="210" y="85.8" class="st0" width="9.2" height="39.7"/>
<g>
	<path class="st0" d="M256.1,85.8h-20.8c-8.4,0-11.5,7-11.5,11.6v28h9.2v-28c0-2.4,1.8-2.4,2.3-2.4l20.7,0c0.8,0,2.4,0.1,2.4,2.4v28
		h9.2v-28C267.6,88.9,260.7,85.8,256.1,85.8"/>
	<path class="st0" d="M61.9,101v-5.9h25.4c1.3,0,2.9,0.5,2.9,3c0,0.8,0,2.9-2.9,3H61.9z M97.1,105.6c1.4-1.9,2.4-4.4,2.4-7.6
		c0-9-7.2-12.2-12.1-12.2H52.7v39.7h9.2v-15.2h25.4c1.3,0,2.9,0.5,2.9,3l0,12.2h9.2l0-12.2C99.5,110,98.5,107.5,97.1,105.6"/>
</g>
<polygon class="st0" points="117,95.1 133.3,95.1 133.3,125.4 142.5,125.4 142.5,95.1 158.6,95.1 158.6,85.8 117,85.8 "/>
<g>
	<path class="st0" d="M170.8,99.8v-2.4c0-2.4,1.8-2.4,2.3-2.4l20.7,0c0.8,0,2.4,0.1,2.4,2.4v2.3H170.8z M193.9,85.8h-20.8
		c-8.4,0-11.5,7-11.5,11.6v28h9.2v-16.4h25.4v16.4h9.2v-28C205.4,88.9,198.5,85.8,193.9,85.8"/>
</g>
<rect x="104.1" y="85.8" class="st0" width="9.2" height="39.7"/>
<g>
	<path class="st1" d="M50.4,55c0-1.2,0.5-2.7,2.6-2.7h20.2c1.2,0,2.6,0.5,2.6,2.7v13.6c0,0.7,0,2.6-2.7,2.7H53
		c-1.2,0-2.6-0.5-2.6-2.7V55z M53,79.7h20.2c4.4,0,10.9-2.9,10.9-11V55c0-8.1-6.5-11-10.9-11H53c-8,0-10.9,6.6-10.9,11v13.6
		C42.1,76.8,48.6,79.7,53,79.7"/>
	<path class="st1" d="M98.6,79.7h18.7c7.6,0,10.3-6.3,10.3-10.5V44h-8.2l0,25.1c0,0.8-0.1,2.2-2.1,2.2H98.6c-2.1,0-2.1-1.6-2.1-2.1
		V44h-8.2v25.2C88.2,76.9,94.4,79.7,98.6,79.7"/>
	<path class="st1" d="M162.9,52.4c1.2,0,2.6,0.5,2.6,2.7c0,0.7,0,2.6-2.6,2.7H140v-5.3H162.9z M140,66h22.9c1.2,0,2.6,0.5,2.6,2.7
		v10.9h8.2V68.7c0-2.9-0.9-5.2-2.1-6.8c1.3-1.7,2.1-3.9,2.1-6.8c0-8.1-6.5-11-10.9-11h-31.1v35.5h8.2V66z"/>
	<polygon class="st1" points="1.6,44 1.6,52.4 16.3,52.4 16.3,79.7 24.5,79.7 24.5,52.4 39,52.4 39,44 	"/>
	<g>
		<path class="st1" d="M242.6,44c-7.6,0-10.4,6.3-10.4,10.5v25.3h8.2V65h20.9v-8.3h-20.9v-2.1c0-0.5,0-2.1,2.1-2.1h25V44H242.6z"/>
		<path class="st1" d="M194.3,55c0-1.2,0.5-2.7,2.6-2.7h20.2c1.2,0,2.6,0.5,2.6,2.7v13.6c0,0.7,0,2.6-2.7,2.7h-20.2
			c-1.2,0-2.6-0.5-2.6-2.7V55z M196.9,79.7h20.2c4.4,0,10.9-2.9,10.9-11V55c0-8.1-6.5-11-10.9-11h-20.2c-8,0-10.9,6.6-10.9,11v13.6
			C186.1,76.8,192.6,79.7,196.9,79.7"/>
	</g>
</g>
</svg>
