<?xml version="1.0" encoding="utf-8"?>
<!-- Generator: Adobe Illustrator 25.2.1, SVG Export Plug-In . SVG Version: 6.00 Build 0)  -->
<svg version="1.1" id="Ebene_1" xmlns="http://www.w3.org/2000/svg" xmlns:xlink="http://www.w3.org/1999/xlink" x="0px" y="0px"
	 viewBox="0 0 600 400" style="enable-background:new 0 0 600 400;" xml:space="preserve">
<style type="text/css">
	.st0{fill:#1D1D1B;}
	.st1{display:none;}
	.st2{display:inline;fill-rule:evenodd;clip-rule:evenodd;fill:#BC5151;}
	.st3{display:inline;fill-rule:evenodd;clip-rule:evenodd;fill:#0089AF;}
	.st4{display:inline;fill-rule:evenodd;clip-rule:evenodd;fill:#FDC73A;}
	.st5{display:inline;fill-rule:evenodd;clip-rule:evenodd;fill:#BDD143;}
	.st6{display:inline;}
	.st7{fill:#FFFFFF;}
	.st8{display:inline;fill:#FFFFFF;}
	.st9{display:inline;fill-rule:evenodd;clip-rule:evenodd;fill:#FFFFFF;}
	.st10{display:inline;fill-rule:evenodd;clip-rule:evenodd;fill:#BCD042;}
	.st11{fill-rule:evenodd;clip-rule:evenodd;fill:#FDC73A;}
	.st12{fill:#FFEC00;}
	.st13{fill:none;}
</style>
<rect class="st0" width="600" height="400"/>
<g id="OÖ_Classics" class="st1">
	<polyline id="Upper_Austria_40_" class="st2" points="178.4,286.1 173.6,309 168,309.7 163.8,309.2 159.5,307.7 159,307.4 
		158.4,307 155.2,303.6 152.5,302 149.7,301.6 145,301.9 143,302.5 141.7,303.6 140.8,306.1 140.5,306.8 139.2,307.6 134,309.1 
		131.8,310 131.6,308.2 129.9,304.5 122.2,296.4 121.1,294.8 120.2,292.8 119.6,290.7 119.8,288.4 120.5,287.3 121.2,287 121.9,287 
		122.6,286.7 123,286.1 178.4,286.1 	"/>
	<polygon id="Upper_Austria_38_" class="st2" points="214.6,114.3 221.5,81.2 219.9,82.6 216.2,84.6 201.1,87.3 189.7,91.8 
		187.9,93.1 183.8,97 180.3,99 178.6,100.4 178.7,100.8 172.6,102 171,102.9 170,104 168,107.1 166.5,108.8 162.2,111.9 
		161.7,112.4 160.5,114.3 	"/>
	<polygon class="st3" points="344.6,114.3 361.4,34.4 356.3,32 353.7,28.9 352.1,30 349.6,36.6 347.9,38.4 342.1,40.9 339.9,42.6 
		339.1,43 338,43.1 327.1,39.2 311.5,37.5 307.8,35.9 306.9,35.1 305,32.7 304.5,31.8 304,29.5 304.2,29.1 304.8,28.8 305.6,27.3 
		305.9,27 306.4,27.1 306.9,27 307.1,25.9 306.8,24.9 306.2,24.5 305.4,24.1 304.9,23.6 304.2,22.3 302.3,19.4 303.2,19.6 
		283.1,114.2 	"/>
	<polygon class="st3" points="308.6,286.2 291.8,366.4 287.2,363.2 286.2,362.9 284.7,363.3 280.6,365.2 275.2,366.7 273,368.3 
		272.3,368.3 271.8,366.8 271.6,365.5 270.4,362.4 265.4,356.5 260.6,357.2 258.9,356.8 256,355.7 252.7,355.1 251.2,354.4 
		248.5,352.8 247.5,352.7 246.3,352.9 234.6,358.8 232.8,360.3 232,360.2 246.9,286.1 	"/>
	<polygon class="st4" points="358.2,114.3 357.7,109.6 358,108.7 358.5,107.3 358.8,105.9 359.5,99.3 359.7,98.3 359.8,97.9 
		360,97.6 360.3,97.3 361.1,96.6 361.8,96.2 363.3,95 368.2,95.1 370.1,95.7 371.8,96.9 373.2,98.5 376.2,102.8 378.1,104.5 
		380.4,105.2 396.1,101.4 397.6,100.2 399.2,97.8 400.8,96.2 402.8,95.4 408.2,95.1 409.5,95.4 410.8,96.2 412.5,98.2 412.5,94.5 
		413.3,80.3 412,72.1 411.4,70.7 409.4,69.1 408.8,63.7 406.1,62.7 403.6,59.3 403.1,57.6 403.1,56.1 403.3,55.1 403.3,53.6 
		403.4,53 403.6,52.7 404,52.6 406.5,52.8 406.8,52.6 406.9,51.9 406.8,50.1 405.7,48.3 404.1,47 402.3,46.4 398.3,45.8 394.8,44 
		391.2,42.5 384.3,40.9 382.3,39 382.1,38.5 380.4,40.2 378.6,40.1 377.7,39 377.1,37.4 375.9,35.8 375.2,35.7 373.5,36.3 
		372.6,36.2 372.3,35.5 372.3,34.4 372.1,33.3 371.4,32.7 369.8,32.8 368.3,33.5 367,34 366.5,34.2 365.1,34.7 348.5,114.3 	"/>
	<polygon class="st4" points="321.4,286.1 321.6,286.8 321.9,287.2 322,287.7 322,288.3 321.4,289.3 320.2,290.8 320,291.1 
		319.9,291.5 319.9,292.4 319.8,292.9 318.3,295.8 317.8,296.3 317.2,296.6 316.4,296.9 316.3,297.6 318.3,300 335.9,313.4 
		341.7,316.3 345.2,317.4 347.5,318.7 349.8,320.5 351,321.9 351.8,323.1 351.7,326.2 349.8,329 348.3,335.1 348.2,338.9 348,340.8 
		346.1,344.9 339.1,350.5 323.3,356.9 322.1,358.5 321.7,359.6 320.5,360.8 318.6,361.8 315.2,362.8 312.4,364.5 307.5,368.2 
		304.8,369 301.6,369.1 299.4,368.4 297,367.3 295.6,366.7 312.4,286.1 	"/>
	<polygon class="st5" points="279.3,114.3 299.3,19 297.7,18.4 290.3,14.3 287.9,12.3 285.9,10.7 283.8,9.6 279.4,8.4 276.1,15.3 
		275.9,16.9 276.4,16.7 277.6,19 278.1,19.5 279.5,20.2 278,21.6 277.8,23.6 278.3,29 278.3,31.8 277.9,34.2 277.2,36.3 275.4,40.4 
		274.8,41.2 273.9,42.1 273,42.5 270.8,42.9 270.4,42.8 269.5,44.7 268.5,49.1 268.2,48.9 263.7,46.8 262.1,44.2 260.3,42.9 
		258.4,41.9 247,38.7 243.3,39.2 239.7,40.5 238.7,41.4 238.1,42.6 238.2,43.2 238.5,43.9 238.9,46.9 240,48.5 240.2,50 239.9,51.6 
		238.4,54.7 237.9,56.3 237.7,57.8 237.9,62.5 237.7,64.2 237.2,65.4 236.7,66.2 236.5,67.1 235.8,70.6 234.3,73.2 225.3,81.1 
		218.2,114.3 	"/>
	<polygon class="st5" points="243.5,286.1 228.3,359.7 227.7,362.1 227.1,364.4 226.8,366.3 226.6,369.6 226.7,371.2 226.9,371.9 
		227.1,372.9 228,374.6 229.2,376.2 230.6,377.8 231.4,379.1 232.4,381.3 233,384 233,386.1 232.6,387.9 232.2,388.6 231.8,389.1 
		229,391.5 228.7,392.1 227.3,392.5 226.3,393 216.1,391 209.8,387 205.9,383 205.1,380.8 204.8,378.3 205.5,376.2 207.1,373.3 
		207.8,372 208.1,370.4 207.8,368.9 205.9,365.8 210,353.3 209.4,352 208.6,350.4 205.9,350.1 203.6,349.1 202.5,348.5 201.9,347.9 
		201.6,347.4 201.1,346.2 201.3,345.4 202,344.8 206.3,344.6 208.1,344.3 209.4,342.6 206.9,340.2 187,335.8 185.3,334.6 
		184.3,333.2 183.8,331.8 182.4,325.8 182.1,323.6 182,321.5 182.3,316.9 182.6,314.9 182.9,313.5 183.3,312.7 183.9,312.2 
		184.6,312.1 187.6,313 189.2,313.1 190.8,312.7 191.8,311.5 191.9,310.3 190.9,309.1 189.9,308.4 188.8,307.9 185.5,305.4 
		178,308.9 177.2,309 182,286.1 	"/>
	<g class="st6">
		<path class="st7" d="M163.6,260.3c-3.7,5.5-8.7,8.3-14.8,8.3s-10.6-1.7-13.3-5.2c-2.8-3.5-4.1-9-4.1-16.6c0-5.5,1-13.9,2.9-25.2
			c2.8-15.9,6.1-27.1,9.8-33.7c3.7-6.6,8.9-9.8,15.7-9.8c6,0,10.4,1.7,13.3,5c2.8,3.3,4.2,8.7,4.2,16.1c0,2.6-0.2,6.1-0.6,10.6
			h-15.9c0.8-5.4,1.2-9.4,1.2-12.1c0-3.2-0.7-4.7-2.2-4.7s-2.8,2-4,6.1c-1.2,4-2.8,12.1-4.9,24.1c-2.3,13.2-3.4,21.9-3.4,26.1
			c0,3.1,0.7,4.6,2.2,4.6c1.2,0,2.3-1.3,3.1-4c0.9-2.7,2.1-8.1,3.5-16.3h16.2C170.3,245.9,167.3,254.8,163.6,260.3z"/>
		<path class="st7" d="M174.4,267.4l15.6-88h16.3l-12.9,73.1h18.2l-2.6,14.8h-34.6V267.4z"/>
		<path class="st7" d="M215,267.4l28.4-88h19.1l-2.3,88h-15.9l0.8-14.3h-10.2l-4.1,14.3H215z M238.9,240h7l3.4-37.9h-0.4L238.9,240z
			"/>
		<path class="st7" d="M287.4,268.6c-12.4,0-18.6-6.9-18.6-20.6c0-2.9,0.2-5.9,0.7-9.1H285c-0.6,3.7-0.9,6.6-0.9,9c0,4,1.1,6,3.4,6
			c1.5,0,2.6-1.1,3.6-3.3c0.9-2.2,1.4-5.2,1.4-9.1c0-4.1-2-8.6-6.1-13.6c-6.3-7.7-9.5-15.5-9.5-23.3c0-8.2,1.8-14.6,5.4-19.3
			s8.6-7.1,14.9-7.1c11.9,0,17.8,6.6,17.8,19.9c0,2.4-0.2,4.7-0.5,6.8h-15.4c0.3-2.3,0.5-4.3,0.6-6.1c0-3.9-0.9-5.9-2.8-5.9
			c-2.4,0-3.7,3.2-3.7,9.6c0,4.3,2,8.9,5.9,13.9c6.4,8.2,9.6,16,9.6,23.5c0,8.5-2,15.4-5.9,20.8
			C298.8,265.9,293.7,268.6,287.4,268.6z"/>
		<path class="st7" d="M333.4,268.6c-12.4,0-18.6-6.9-18.6-20.6c0-2.9,0.2-5.9,0.7-9.1H331c-0.6,3.7-0.9,6.6-0.9,9c0,4,1.1,6,3.4,6
			c1.5,0,2.6-1.1,3.6-3.3c0.9-2.2,1.4-5.2,1.4-9.1c0-4.1-2-8.6-6.1-13.6c-6.3-7.7-9.5-15.5-9.5-23.3c0-8.2,1.8-14.6,5.4-19.3
			s8.6-7.1,14.9-7.1c11.9,0,17.8,6.6,17.8,19.9c0,2.4-0.2,4.7-0.5,6.8h-15.4c0.3-2.3,0.5-4.3,0.6-6.1c0-3.9-0.9-5.9-2.8-5.9
			c-2.4,0-3.7,3.2-3.7,9.6c0,4.3,2,8.9,5.9,13.9c6.4,8.2,9.6,16,9.6,23.5c0,8.5-2,15.4-5.9,20.8
			C344.8,265.9,339.7,268.6,333.4,268.6z"/>
		<path class="st7" d="M358.1,267.4l15.6-88h16.4l-15.6,88H358.1z"/>
		<path class="st7" d="M420.2,260.3c-3.7,5.5-8.7,8.3-14.8,8.3c-6.1,0-10.6-1.7-13.3-5.2c-2.8-3.5-4.1-9-4.1-16.6
			c0-5.5,1-13.9,2.9-25.2c2.8-15.9,6.1-27.1,9.8-33.7c3.7-6.6,8.9-9.8,15.7-9.8c6,0,10.4,1.7,13.3,5c2.8,3.3,4.2,8.7,4.2,16.1
			c0,2.6-0.2,6.1-0.6,10.6h-15.9c0.8-5.4,1.2-9.4,1.2-12.1c0-3.2-0.7-4.7-2.2-4.7s-2.8,2-4,6.1c-1.2,4-2.8,12.1-4.9,24.1
			c-2.3,13.2-3.4,21.9-3.4,26.1c0,3.1,0.7,4.6,2.2,4.6c1.2,0,2.3-1.3,3.1-4c0.9-2.7,2.1-8.1,3.5-16.3h16.2
			C426.9,245.9,423.9,254.8,420.2,260.3z"/>
		<path class="st7" d="M452.2,268.6c-12.4,0-18.6-6.9-18.6-20.6c0-2.9,0.2-5.9,0.7-9.1h15.4c-0.6,3.7-0.9,6.6-0.9,9c0,4,1.1,6,3.4,6
			c1.5,0,2.6-1.1,3.6-3.3c0.9-2.2,1.4-5.2,1.4-9.1c0-4.1-2-8.6-6.1-13.6c-6.3-7.7-9.5-15.5-9.5-23.3c0-8.2,1.8-14.6,5.4-19.3
			s8.6-7.1,14.9-7.1c11.9,0,17.8,6.6,17.8,19.9c0,2.4-0.2,4.7-0.5,6.8H464c0.3-2.3,0.5-4.3,0.6-6.1c0-3.9-0.9-5.9-2.8-5.9
			c-2.4,0-3.7,3.2-3.7,9.6c0,4.3,2,8.9,5.9,13.9c6.4,8.2,9.6,16,9.6,23.5c0,8.5-2,15.4-5.9,20.8
			C463.7,265.9,458.6,268.6,452.2,268.6z"/>
	</g>
	<g class="st6">
		<path class="st7" d="M157.1,165.7c-1.9,0-3.2-0.5-4.1-1.6c-0.9-1-1.3-2.8-1.3-5.4c0-2.5,0.4-5.8,1.2-10.1c1.1-6,2.2-10.1,3.4-12.5
			s2.9-3.5,5.1-3.5c1.9,0,3.2,0.5,4.1,1.6c0.9,1.1,1.3,2.9,1.3,5.4s-0.4,5.8-1.2,10.1c-1.1,6-2.2,10.1-3.4,12.4
			C161,164.6,159.3,165.7,157.1,165.7z M157.2,162.6c1.1,0,1.9-0.9,2.6-2.7s1.5-5.3,2.4-10.3c0.8-4.8,1.2-8.2,1.2-10.1
			c0-1.3-0.2-2.2-0.5-2.7s-0.8-0.8-1.5-0.8c-1,0-1.9,0.9-2.6,2.7c-0.7,1.8-1.5,5.3-2.4,10.4c-0.8,4.8-1.2,8.2-1.2,10.1
			c0,1.3,0.2,2.2,0.5,2.7C156,162.3,156.5,162.6,157.2,162.6z"/>
		<path class="st7" d="M182.8,141.9c-0.6,3.5-2.3,5.7-5,6.5v0.1c2.1,0.9,3.1,2.7,3.1,5.5c0,0.7-0.1,1.7-0.3,2.7
			c-0.5,3-1.5,5.2-3,6.5c-1.4,1.3-3.5,2-6.3,2h-4.7l5.7-32h3.1c2.6,0,4.5,0.6,5.7,1.7c1.2,1.1,1.9,2.7,1.9,4.8
			C183,140.5,182.9,141.2,182.8,141.9z M177.1,156.2c0.2-0.8,0.2-1.6,0.2-2.5c0-1.3-0.3-2.3-0.9-2.9c-0.6-0.6-1.6-0.9-3-0.9h-0.7
			l-2.1,12.2h0.9c1.7,0,3-0.4,3.8-1.3C176.1,160,176.7,158.5,177.1,156.2z M174,146.8c1.6,0,2.7-0.4,3.5-1.1c0.8-0.7,1.3-2,1.7-3.8
			c0.1-0.6,0.2-1.3,0.2-1.9c0-1.2-0.3-2.1-0.9-2.7c-0.6-0.6-1.6-0.9-3.1-0.9h-0.3l-1.9,10.4H174z"/>
		<path class="st7" d="M182.5,165.3l5.7-32H199l-0.6,3.1H191l-1.8,10.3h6.4l-0.6,3.1h-6.4l-2.2,12.2h7.3l-0.5,3.1h-10.7V165.3z"/>
		<path class="st7" d="M205.4,133.3c2.6,0,4.5,0.6,5.7,1.8s1.8,2.9,1.8,5c0,0.7-0.1,1.5-0.2,2.4c-0.6,3.7-2.2,6.1-4.6,7.2l1.5,15.5
			h-3.5l-1.3-14.8h-2.3l-2.6,14.8h-3.4l5.7-32h3.2V133.3z M209.2,142.2c0.1-0.6,0.2-1.3,0.2-2c0-2.5-1.3-3.8-3.8-3.8H205l-1.9,10.9
			h1.4c1.3,0,2.3-0.4,3.1-1.2C208.3,145.3,208.9,144,209.2,142.2z"/>
		<path class="st7" d="M218.9,165.7c-1.9,0-3.2-0.5-4.1-1.6c-0.9-1-1.3-2.8-1.3-5.4c0-2.5,0.4-5.8,1.2-10.1c1.1-6,2.2-10.1,3.4-12.5
			s2.9-3.5,5.1-3.5c1.9,0,3.2,0.5,4.1,1.6c0.9,1.1,1.3,2.9,1.3,5.4s-0.4,5.8-1.2,10.1c-1.1,6-2.2,10.1-3.4,12.4
			C222.8,164.6,221.1,165.7,218.9,165.7z M219,162.6c1.1,0,1.9-0.9,2.6-2.7s1.5-5.3,2.4-10.3c0.8-4.8,1.2-8.2,1.2-10.1
			c0-1.3-0.2-2.2-0.5-2.7s-0.8-0.8-1.5-0.8c-1,0-1.9,0.9-2.6,2.7c-0.7,1.8-1.5,5.3-2.4,10.4c-0.8,4.8-1.2,8.2-1.2,10.1
			c0,1.3,0.2,2.2,0.5,2.7C217.8,162.3,218.3,162.6,219,162.6z M221.5,130.9c-0.6,0-1.1-0.2-1.4-0.5c-0.4-0.4-0.6-0.8-0.6-1.4
			c0-0.7,0.2-1.2,0.7-1.7s1-0.7,1.7-0.7c0.6,0,1.1,0.2,1.4,0.5c0.4,0.4,0.6,0.8,0.6,1.4c0,0.7-0.2,1.2-0.7,1.7
			C222.7,130.6,222.1,130.9,221.5,130.9z M227.7,130.9c-0.6,0-1.1-0.2-1.4-0.5c-0.4-0.4-0.6-0.8-0.6-1.4c0-0.7,0.2-1.2,0.7-1.7
			s1-0.7,1.7-0.7c0.6,0,1.1,0.2,1.4,0.5c0.4,0.4,0.6,0.8,0.6,1.4c0,0.7-0.2,1.2-0.7,1.7S228.3,130.9,227.7,130.9z"/>
		<path class="st7" d="M234.2,165.7c-1.9,0-3.2-0.5-4.1-1.5c-0.9-1-1.3-2.6-1.3-4.8c0-1,0.1-2.1,0.3-3.4h3.3
			c-0.2,1.3-0.3,2.4-0.3,3.2c0,2.3,0.7,3.4,2.2,3.4c1,0,1.8-0.7,2.3-2s0.8-2.9,0.8-4.7c0-1.9-0.8-3.8-2.3-5.8c-2-2.7-3.1-5.3-3.1-8
			c0-2.9,0.6-5.2,1.7-6.8s2.7-2.4,4.7-2.4c3.4,0,5.1,2,5.1,6.1c0,0.5-0.1,1.4-0.2,2.6h-3.4c0.1-0.9,0.2-1.7,0.2-2.4
			c0-2.1-0.6-3.1-1.8-3.1c-0.9,0-1.6,0.6-2.1,1.7c-0.5,1.1-0.7,2.5-0.7,4.1c0,1.8,0.8,3.8,2.3,5.8c2,2.7,3.1,5.4,3.1,8
			c0,3.2-0.6,5.7-1.8,7.5C237.9,164.8,236.2,165.7,234.2,165.7z"/>
		<path class="st7" d="M245.6,165.3l5-28.8h-4.5l0.5-3.1H259l-0.5,3.1H254l-5,28.8H245.6z"/>
		<path class="st7" d="M256.4,165.3l5.7-32h10.8l-0.6,3.1H265l-1.8,10.3h6.4l-0.6,3.1h-6.4l-2.2,12.2h7.3l-0.5,3.1h-10.8V165.3z"/>
		<path class="st7" d="M279.3,133.3c2.6,0,4.5,0.6,5.7,1.8s1.8,2.9,1.8,5c0,0.7-0.1,1.5-0.2,2.4c-0.6,3.7-2.2,6.1-4.6,7.2l1.5,15.5
			H280l-1.3-14.8h-2.3l-2.6,14.8h-3.4l5.7-32h3.2V133.3z M283,142.2c0.1-0.6,0.2-1.3,0.2-2c0-2.5-1.3-3.8-3.8-3.8h-0.5l-1.9,10.9
			h1.4c1.3,0,2.3-0.4,3.1-1.2C282.2,145.3,282.7,144,283,142.2z"/>
		<path class="st7" d="M295.4,133.3c2.6,0,4.5,0.6,5.7,1.8s1.8,2.9,1.8,5c0,0.7-0.1,1.5-0.2,2.4c-0.6,3.7-2.2,6.1-4.6,7.2l1.5,15.5
			h-3.5l-1.3-14.8h-2.3l-2.6,14.8h-3.4l5.7-32h3.2V133.3z M299.2,142.2c0.1-0.6,0.2-1.3,0.2-2c0-2.5-1.3-3.8-3.8-3.8H295l-1.9,10.9
			h1.4c1.3,0,2.3-0.4,3.1-1.2C298.3,145.3,298.9,144,299.2,142.2z"/>
		<path class="st7" d="M302.6,165.3l5.7-32H319l-0.6,3.1h-7.3l-1.8,10.3h6.4l-0.6,3.1h-6.4l-2.2,12.2h7.3l-0.5,3.1h-10.7V165.3z"/>
		<path class="st7" d="M316.6,165.3l5.7-32h3.4l-5.6,32H316.6z"/>
		<path class="st7" d="M330.4,165.7c-1.8,0-3-0.5-3.8-1.6s-1.2-2.9-1.2-5.4c0-2.4,0.4-5.7,1.1-10c1.1-5.9,2.2-10,3.4-12.4
			c1.2-2.4,2.9-3.6,4.9-3.6c1.7,0,3,0.5,3.8,1.6s1.2,2.8,1.2,5.2c0,0.9-0.1,2-0.2,3.5h-3.4c0.2-1.5,0.3-2.8,0.3-3.8
			c0-2.3-0.6-3.4-1.7-3.4c-1,0-1.8,0.9-2.4,2.8c-0.7,1.8-1.5,5.3-2.3,10.3c-0.9,4.7-1.3,8.1-1.3,10.1c0,2.3,0.6,3.4,1.8,3.4
			c0.8,0,1.4-0.6,2-1.9c0.6-1.3,1.2-3.4,1.8-6.5h3.5c-0.8,4.1-1.8,7.1-2.9,8.9C333.8,164.8,332.3,165.7,330.4,165.7z"/>
		<path class="st7" d="M339.2,165.3l5.7-32h3.4l-2.4,13.4h5.5l2.4-13.4h3.4l-5.6,32h-3.4l2.7-15.4h-5.5l-2.7,15.4H339.2z"/>
	</g>
</g>
<g class="st1">
	<path class="st8" d="M24.5,244.7c-3.3,0-5.8-0.9-7.2-2.7c-1.5-1.8-2.2-4.8-2.2-9c0-3.7,0.6-8.8,1.7-15.2c1.6-9.3,3.4-15.7,5.5-19.4
		c2-3.7,4.9-5.5,8.7-5.5c3.3,0,5.7,0.9,7.2,2.7s2.2,4.8,2.2,9c0,3.6-0.6,8.7-1.7,15.2c-1.7,9.3-3.5,15.7-5.5,19.4
		C31,242.9,28.2,244.7,24.5,244.7z M24.5,238.1c1.3,0,2.3-1.3,3.2-3.8c0.9-2.6,2-7.6,3.3-15.1c1.4-7.6,2-12.7,2.1-15.4
		c0-2.8-0.8-4.2-2.3-4.2c-1.3,0-2.3,1.3-3.2,3.8c-0.9,2.6-2,7.6-3.3,15.1c-1.3,7.7-2,12.9-2,15.4c0,1.6,0.2,2.7,0.5,3.3
		C23.2,237.8,23.8,238.1,24.5,238.1z"/>
	<path class="st8" d="M66.3,207.6c-0.9,5.4-3.5,8.8-7.7,10v0.2c3.3,1.5,4.9,4.4,4.9,8.7c0,1.2-0.2,2.5-0.5,4.1
		c-0.8,4.7-2.4,8.1-4.8,10.2c-2.4,2.1-5.8,3.2-10.2,3.2h-9.1l8.9-50.3h5.6c8.9,0,13.3,3.5,13.3,10.4
		C66.7,205.1,66.6,206.2,66.3,207.6z M55.6,229.4c0.2-1.2,0.4-2.3,0.4-3.5c0-1.8-0.4-3-1.1-3.8c-0.8-0.8-2-1.2-3.6-1.2h-0.8
		l-2.9,16.4h0.9c2.2,0,3.8-0.6,4.8-1.8C54.2,234.4,55,232.3,55.6,229.4z M51.8,214.3c2.1,0,3.7-0.5,4.7-1.4s1.7-2.7,2.2-5.3
		c0.2-0.9,0.3-1.9,0.3-2.8c0-1.6-0.4-2.7-1.1-3.4c-0.8-0.7-2.1-1.1-3.9-1.1l-2.4,14H51.8z"/>
	<path class="st8" d="M64.9,244l8.9-50.3h18.5l-1.1,6.6H79.9l-2.3,13.6h9.7l-1.2,6.7h-9.6l-3,16.8h11.2l-1.2,6.6L64.9,244L64.9,244z
		"/>
	<path class="st8" d="M102.5,193.7c8.7,0,13,3.7,13,11.2c0,1.1-0.1,2.5-0.4,4c-1,5.5-3.2,9.2-6.7,11.2l1.9,23.8h-7.4l-1.3-22h-2.8
		l-3.9,22h-7.3l8.9-50.3h6V193.7z M99.9,215.2h1.5c1.7,0,3-0.6,4-1.7s1.7-2.9,2.1-5.3c0.2-0.9,0.3-1.9,0.3-2.8
		c0-3.4-1.6-5.1-4.8-5.1h-0.5L99.9,215.2z"/>
	<path class="st8" d="M125.3,244.7c-3.3,0-5.8-0.9-7.2-2.7c-1.5-1.8-2.2-4.8-2.2-9c0-3.7,0.6-8.8,1.7-15.2
		c1.6-9.3,3.4-15.7,5.5-19.4c2-3.7,4.9-5.5,8.7-5.5c3.3,0,5.7,0.9,7.2,2.7s2.2,4.8,2.2,9c0,3.6-0.6,8.7-1.7,15.2
		c-1.7,9.3-3.5,15.7-5.5,19.4C131.8,242.9,129,244.7,125.3,244.7z M125.3,238.1c1.3,0,2.3-1.3,3.2-3.8c0.9-2.6,2-7.6,3.3-15.1
		c1.4-7.6,2-12.7,2.1-15.4c0-2.8-0.8-4.2-2.3-4.2c-1.3,0-2.3,1.3-3.2,3.8c-0.9,2.6-2,7.6-3.3,15.1c-1.3,7.7-2,12.9-2,15.4
		c0,1.6,0.2,2.7,0.5,3.3C124,237.8,124.5,238.1,125.3,238.1z M128.4,190.7c-1.2,0-2.1-0.3-2.8-1c-0.7-0.7-1-1.6-1-2.7
		c0-1.4,0.4-2.5,1.3-3.4s2-1.3,3.3-1.3c1.2,0,2.1,0.4,2.8,1.1c0.7,0.7,1,1.6,1,2.7c0,1.3-0.5,2.4-1.4,3.3
		C130.7,190.3,129.6,190.7,128.4,190.7z M139,190.7c-1.2,0-2.1-0.3-2.8-1s-1-1.6-1-2.7c0-1.4,0.4-2.5,1.3-3.4c0.9-0.9,2-1.3,3.3-1.3
		c1.2,0,2.1,0.4,2.8,1.1c0.7,0.7,1.1,1.6,1.1,2.7c0,1.3-0.5,2.4-1.4,3.3C141.4,190.3,140.3,190.7,139,190.7z"/>
	<path class="st8" d="M150.3,244.7c-3.3,0-5.7-0.9-7.3-2.7c-1.5-1.8-2.3-4.5-2.3-8.2c0-1.6,0.2-3.4,0.5-5.3h7
		c-0.3,2.2-0.4,3.9-0.4,5.1c0,1.7,0.2,2.8,0.7,3.5c0.4,0.7,1.1,1,2,1c1.2,0,2.1-0.8,2.8-2.5c0.7-1.6,1-3.8,1-6.4
		c0-2.7-1.2-5.6-3.6-8.5c-3.4-4.4-5.1-8.7-5.1-13c0-4.7,1-8.3,2.9-10.9c1.9-2.6,4.6-3.9,7.9-3.9c6,0,9,3.5,9,10.5
		c0,1.4-0.1,2.7-0.3,4h-7c0.2-1.3,0.3-2.5,0.3-3.6c0-2.8-0.7-4.2-2.2-4.2c-2.2,0-3.3,2.4-3.3,7.3c0,2.8,1.2,5.6,3.5,8.6
		c3.4,4.3,5.1,8.7,5.1,13c0,5-1,8.9-3.1,11.8C156.4,243.2,153.7,244.7,150.3,244.7z"/>
	<path class="st8" d="M168.6,244l7.7-43.7h-7l1.1-6.6h21.4l-1.1,6.6h-7.1L176,244H168.6z"/>
	<path class="st8" d="M186.8,244l8.9-50.3h18.5l-1.1,6.6h-11.2l-2.3,13.6h9.7l-1.2,6.7h-9.6l-3,16.8h11.2l-1.2,6.6L186.8,244
		L186.8,244z"/>
	<path class="st8" d="M224.5,193.7c8.7,0,13,3.7,13,11.2c0,1.1-0.1,2.5-0.4,4c-1,5.5-3.2,9.2-6.7,11.2l1.9,23.8h-7.4l-1.3-22h-2.8
		l-3.9,22h-7.3l8.9-50.3h6V193.7z M221.9,215.2h1.5c1.7,0,3-0.6,4-1.7s1.7-2.9,2.1-5.3c0.2-0.9,0.3-1.9,0.3-2.8
		c0-3.4-1.6-5.1-4.8-5.1h-0.5L221.9,215.2z"/>
	<path class="st8" d="M251.1,193.7c8.7,0,13,3.7,13,11.2c0,1.1-0.1,2.5-0.4,4c-1,5.5-3.2,9.2-6.7,11.2l1.9,23.8h-7.4l-1.3-22h-2.8
		l-3.9,22h-7.3l8.9-50.3h6V193.7z M248.5,215.2h1.5c1.7,0,3-0.6,4-1.7s1.7-2.9,2.1-5.3c0.2-0.9,0.3-1.9,0.3-2.8
		c0-3.4-1.6-5.1-4.8-5.1h-0.5L248.5,215.2z"/>
	<path class="st8" d="M262.7,244l8.9-50.3H290l-1.1,6.6h-11.2l-2.3,13.6h9.7l-1.2,6.7h-9.6l-3,16.8h11.2l-1.2,6.6L262.7,244
		L262.7,244z"/>
	<path class="st8" d="M285.3,244l8.9-50.3h7.4l-8.9,50.3H285.3z"/>
	<path class="st8" d="M309,244.7c-3.1,0-5.4-0.9-6.8-2.8c-1.4-1.8-2.1-4.8-2.1-9c0-3.6,0.6-8.6,1.7-15c1.7-9.2,3.5-15.6,5.6-19.4
		c2-3.7,4.8-5.6,8.3-5.6c3.1,0,5.3,0.9,6.7,2.7c1.4,1.8,2.2,4.7,2.2,8.7c0,1.4-0.1,3.3-0.4,5.8H317c0.4-2.5,0.6-4.7,0.6-6.5
		c0-2.7-0.6-4-1.9-4c-1.2,0-2.2,1.3-3,3.9c-0.9,2.6-1.9,7.6-3.2,15.1c-1.4,7.6-2,12.7-2,15.4s0.7,4.1,2,4.1c1,0,1.8-0.9,2.5-2.7
		s1.5-5,2.4-9.8h7.4c-1.3,6.8-2.9,11.7-4.8,14.6C314.8,243.2,312.2,244.7,309,244.7z"/>
	<path class="st8" d="M322.5,244l8.8-50.3h7.4l-3.6,20.3h6.8l3.6-20.3h7.4L344,244h-7.4l4.2-23.4H334l-4.1,23.4H322.5z"/>
	<path class="st8" d="M374.6,193.7c8.7,0,13,3.7,13,11.2c0,1.1-0.1,2.5-0.4,4c-1,5.5-3.2,9.2-6.7,11.2l1.9,23.8H375l-1.3-22h-2.8
		l-3.9,22h-7.3l8.9-50.3h6V193.7z M372,215.2h1.5c1.7,0,3-0.6,4-1.7c1-1.1,1.7-2.9,2.1-5.3c0.2-0.9,0.3-1.9,0.3-2.8
		c0-3.4-1.6-5.1-4.8-5.1h-0.5L372,215.2z"/>
	<path class="st8" d="M396.8,244.7c-3,0-5.4-0.9-7-2.6c-1.7-1.7-2.5-4.1-2.5-7.2c0-1.2,0.1-2.4,0.3-3.5l6.7-37.8h7.4l-6.7,37.9
		c-0.2,1.6-0.4,2.7-0.4,3.3c0,2.1,0.9,3.1,2.8,3.1c1,0,1.7-0.5,2.3-1.4c0.6-0.9,1.1-2.4,1.4-4.6l6.8-38.5h7.2l-7,39.6
		c-0.6,3.7-1.9,6.5-3.9,8.5C402.3,243.7,399.8,244.7,396.8,244.7z"/>
	<path class="st8" d="M411.4,244l8.8-50.3h6.9l2.8,29.8h0.1l5.2-29.8h6.6l-8.9,50.3h-6.3l-2.8-32.1h-0.1L418,244H411.4z"/>
	<path class="st8" d="M453.2,193.7c4.2,0,7.3,1.2,9.2,3.5s2.9,5.9,2.9,10.7c0,3.3-0.4,7.2-1.2,12c-1.5,8.7-3.6,14.9-6.4,18.6
		c-2.8,3.7-6.5,5.6-11.2,5.6h-8.2l8.9-50.3h6V193.7z M456.5,219.2c1-5.4,1.5-9.4,1.5-12.1c0-2.4-0.4-4.1-1.1-5.2
		c-0.7-1.1-1.9-1.6-3.5-1.6l-6.6,37.1h0.8c2.1,0,3.8-1.3,5.1-4C454.1,230.7,455.3,226,456.5,219.2z"/>
	<path class="st8" d="M464.2,244l8.9-50.3h18.5l-1.1,6.6h-11.2l-2.5,14.2h9.8l-1.2,6.6h-9.7l-4,22.8L464.2,244L464.2,244z"/>
	<path class="st8" d="M482.8,244l16.7-50.3h8.2l-1,50.3h-7.2l0.4-10.1H493l-3,10.1H482.8z M495,227.6h5.2l1.4-21.9h-0.2L495,227.6z"
		/>
	<path class="st8" d="M510.5,244l8.8-50.3h7.4l-3.6,20.3h6.8l3.6-20.3h7.4L532,244h-7.4l4.2-23.4H522l-4.1,23.4H510.5z"/>
	<path class="st8" d="M552.3,193.7c8.7,0,13,3.7,13,11.2c0,1.1-0.1,2.5-0.4,4c-1,5.5-3.2,9.2-6.7,11.2l1.9,23.8h-7.4l-1.3-22h-2.8
		l-3.9,22h-7.3l8.9-50.3h6V193.7z M549.7,215.2h1.5c1.7,0,3-0.6,4-1.7s1.7-2.9,2.1-5.3c0.2-0.9,0.3-1.9,0.3-2.8
		c0-3.4-1.6-5.1-4.8-5.1h-0.5L549.7,215.2z"/>
	<path class="st8" d="M568.8,244l7.7-43.7h-7l1.1-6.6H592l-1.1,6.6h-7.1l-7.7,43.7H568.8z"/>
</g>
<g id="Eröffnungsrennen" class="st1">
	<polyline id="Upper_Austria_41_" class="st2" points="73.2,281 68.5,303.1 63.2,303.7 59.1,303.3 54.9,301.8 54.4,301.5 
		53.9,301.2 50.8,297.9 48.2,296.3 45.5,296 41,296.2 39.1,296.8 37.8,297.9 37,300.2 36.7,300.9 35.4,301.8 30.4,303.2 28.3,304 
		28,302.3 26.4,298.8 19,290.9 18,289.4 17,287.5 16.5,285.4 16.7,283.2 17.4,282.1 18,281.9 18.7,281.9 19.4,281.6 19.8,281 
		73.2,281 	"/>
	<polygon id="Upper_Austria_22_" class="st2" points="108.1,115.3 114.8,83.4 113.2,84.7 109.7,86.7 95.1,89.3 84.1,93.6 82.4,94.9 
		78.4,98.7 75,100.6 73.4,101.9 73.5,102.3 67.6,103.4 66,104.3 65.1,105.3 63.1,108.4 61.8,110 57.5,113 57.1,113.5 56,115.3 	"/>
	<polygon class="st2" points="233.5,115.3 249.7,38.3 244.8,36 242.2,33 240.7,34 238.3,40.4 236.6,42.1 231.1,44.5 229,46.2 
		228.1,46.5 227.1,46.6 216.6,42.9 201.6,41.2 198,39.7 197.1,38.9 195.3,36.6 194.8,35.8 194.3,33.6 194.5,33.1 195.1,32.9 
		195.8,31.4 196.1,31.1 196.7,31.2 197.1,31.1 197.3,30.1 197.1,29.1 196.4,28.7 195.7,28.4 195.2,27.9 194.5,26.5 192.7,23.8 
		193.5,24 174.2,115.2 	"/>
	<polygon class="st2" points="198.8,281.1 182.5,358.4 178.1,355.3 177.1,355.1 175.7,355.5 171.7,357.3 166.6,358.7 164.4,360.2 
		163.8,360.3 163.2,358.8 163.1,357.6 161.9,354.6 157.1,348.9 152.4,349.5 150.8,349.1 148,348.1 144.8,347.5 143.4,346.9 
		140.8,345.3 139.9,345.2 138.7,345.4 127.4,351.1 125.6,352.6 124.9,352.5 139.3,281 	"/>
	<polygon class="st2" points="246.6,115.3 246.2,110.8 246.4,109.9 246.9,108.6 247.2,107.2 247.8,100.9 248,99.9 248.2,99.5 
		248.4,99.2 248.7,98.9 249.4,98.2 250.1,97.9 251.5,96.7 256.3,96.7 258.1,97.4 259.7,98.5 261.1,100 264,104.2 265.8,105.9 
		268,106.6 283.1,102.9 284.6,101.7 286.1,99.4 287.7,97.9 289.6,97.1 294.9,96.8 296,97.1 297.3,97.9 298.9,99.8 299,96.2 
		299.7,82.5 298.5,74.6 297.9,73.2 296,71.7 295.4,66.5 292.8,65.6 290.3,62.2 289.9,60.6 289.9,59.2 290.1,58.2 290.1,56.8 
		290.2,56.2 290.4,55.9 290.8,55.8 293.2,56 293.5,55.8 293.6,55.1 293.4,53.4 292.4,51.7 290.9,50.4 289.1,49.8 285.3,49.3 
		281.9,47.5 278.4,46 271.8,44.5 269.9,42.7 269.6,42.2 268,43.8 266.2,43.7 265.4,42.7 264.8,41.2 263.7,39.7 263,39.5 261.3,40.1 
		260.5,40 260.2,39.3 260.2,38.2 260,37.2 259.4,36.6 257.7,36.7 256.3,37.4 255.1,37.9 254.6,38.1 253.2,38.5 237.2,115.3 	"/>
	<polygon class="st2" points="211.1,281 211.3,281.6 211.6,282.1 211.7,282.5 211.7,283.1 211.1,284.1 209.9,285.5 209.8,285.8 
		209.7,286.2 209.7,287.1 209.6,287.6 208.1,290.4 207.6,290.8 207.1,291.2 206.3,291.4 206.2,292.1 208.1,294.4 225.1,307.3 
		230.7,310.1 234,311.1 236.3,312.4 238.5,314.1 239.6,315.5 240.4,316.7 240.3,319.7 238.5,322.4 237,328.2 236.9,331.9 
		236.7,333.8 235,337.7 228.2,343.1 213,349.2 211.8,350.8 211.4,351.9 210.3,353 208.4,354 205.1,355 202.4,356.6 197.7,360.2 
		195.1,361 192,361 189.9,360.3 187.5,359.3 186.2,358.7 202.5,281 	"/>
	<polygon class="st2" points="170.5,115.3 189.8,23.4 188.2,22.8 181.1,18.9 178.8,16.9 176.9,15.4 174.9,14.3 170.6,13.2 
		167.4,19.9 167.2,21.4 167.7,21.2 168.9,23.4 169.4,23.9 170.7,24.6 169.3,25.9 169,27.8 169.6,33 169.5,35.7 169.2,38 168.5,40.1 
		166.7,44.1 166.2,44.8 165.3,45.7 164.5,46.1 162.3,46.4 161.9,46.3 161,48.2 160.1,52.4 159.8,52.2 155.5,50.2 153.9,47.7 
		152.2,46.5 150.3,45.5 139.3,42.4 135.8,42.9 132.3,44.2 131.4,45 130.8,46.2 130.8,46.7 131.2,47.5 131.6,50.3 132.6,51.9 
		132.8,53.3 132.5,54.8 131.1,57.9 130.6,59.3 130.4,60.8 130.6,65.3 130.4,67 129.9,68.1 129.4,68.9 129.2,69.8 128.6,73.1 
		127.1,75.6 118.4,83.3 111.6,115.3 	"/>
	<polygon class="st2" points="136,281 121.3,352 120.7,354.2 120.2,356.5 119.9,358.4 119.7,361.5 119.8,363.1 119.9,363.7 
		120.1,364.7 121,366.3 122.2,367.9 123.5,369.4 124.3,370.7 125.3,372.8 125.8,375.4 125.9,377.5 125.5,379.1 125.1,379.8 
		124.7,380.3 122,382.6 121.7,383.2 120.4,383.6 119.4,384.1 109.6,382.2 103.5,378.3 99.7,374.4 98.9,372.3 98.7,369.9 99.3,367.9 
		100.9,365.1 101.5,363.9 101.8,362.2 101.5,360.9 99.8,357.8 103.6,345.8 103.1,344.5 102.3,343 99.7,342.7 97.5,341.8 96.5,341.1 
		95.9,340.6 95.6,340.1 95,338.9 95.2,338.2 96,337.6 100.1,337.4 101.8,337.1 103.1,335.4 100.7,333.2 81.5,328.9 79.8,327.7 
		78.9,326.4 78.4,325 77.1,319.3 76.8,317.2 76.7,315.1 76.9,310.7 77.2,308.8 77.5,307.4 77.9,306.7 78.5,306.2 79.2,306.1 
		82.1,306.9 83.6,307.1 85.1,306.7 86.1,305.5 86.2,304.3 85.3,303.2 84.3,302.5 83.2,302 80,299.6 72.8,303 72.1,303.1 76.6,281 	
		"/>
	<g class="st6">
		<path class="st7" d="M44.7,166l5.5-30.8H54l-4.8,27.4h6.7l-0.6,3.5L44.7,166L44.7,166z"/>
		<path class="st7" d="M57.9,166l5.5-30.8h10.8l-0.6,3.5h-7L65,148h6l-0.6,3.5h-6l-2,11.1h6.9l-0.6,3.5H57.9V166z"/>
		<path class="st7" d="M78.3,166.4c-1.9,0-3.3-0.5-4.2-1.6c-0.9-1.1-1.3-2.8-1.3-5.4c0-2.3,0.4-5.5,1.1-9.5c1-5.7,2.1-9.7,3.3-11.9
			s2.9-3.4,5.1-3.4c1.9,0,3.3,0.5,4.2,1.6c0.9,1.1,1.3,2.9,1.3,5.4c0,2.3-0.4,5.5-1.1,9.5c-1,5.7-2.1,9.7-3.3,11.9
			C82.2,165.3,80.5,166.4,78.3,166.4z M78.3,162.9c0.9,0,1.7-0.8,2.3-2.5s1.3-4.9,2.1-9.6c0.8-4.7,1.2-7.9,1.2-9.6
			c0-1.1-0.1-1.9-0.4-2.3c-0.3-0.4-0.7-0.6-1.3-0.6c-0.9,0-1.7,0.8-2.3,2.5c-0.6,1.7-1.3,4.9-2.1,9.6c-0.8,4.7-1.2,7.9-1.2,9.6
			c0,1.1,0.1,1.9,0.4,2.3S77.7,162.9,78.3,162.9z"/>
		<path class="st7" d="M87.4,166l5.4-30.8h3.7l1.8,19.6h0.1l3.4-19.6h3.4L99.8,166h-3.3l-1.9-21.1h-0.1L90.8,166H87.4z"/>
		<path class="st7" d="M112.5,135.1c2.5,0,4.3,0.7,5.4,2.1c1.1,1.4,1.7,3.6,1.7,6.5c0,2-0.3,4.5-0.8,7.4c-0.9,5.3-2.2,9.2-3.9,11.4
			c-1.7,2.3-3.9,3.4-6.8,3.4h-4.5l5.5-30.8L112.5,135.1L112.5,135.1z M114.9,150.8c0.6-3.3,0.9-5.8,0.9-7.5s-0.3-2.9-0.8-3.6
			c-0.5-0.7-1.3-1.1-2.5-1.1h-0.2l-4.2,23.9h0.7c1.5,0,2.6-0.9,3.6-2.6S114.2,155.1,114.9,150.8z"/>
		<path class="st7" d="M119.4,166l5.5-30.8h3.8l-5.5,30.8H119.4z"/>
		<path class="st7" d="M127.1,166l5.4-30.8h3.7l1.8,19.6h0.1l3.4-19.6h3.4l-5.4,30.8h-3.3l-1.9-21.1h-0.1l-3.7,21.1H127.1z"/>
		<path class="st7" d="M148.9,166.4c-1.5,0-2.6-0.6-3.3-1.7c-0.7-1.1-1.1-2.9-1.1-5.4c0-2.1,0.4-5.2,1.1-9.3c1-5.6,2.1-9.6,3.3-11.9
			c1.3-2.3,2.9-3.4,5-3.4c1.8,0,3.1,0.5,4,1.6c0.8,1,1.3,2.8,1.3,5.2c0,0.7,0,1.3,0,1.6h-3.8c0.1-1,0.1-1.7,0.1-1.9c0-2-0.5-3-1.6-3
			c-0.9,0-1.6,0.8-2.2,2.5c-0.6,1.7-1.3,4.9-2.1,9.6c-0.8,4.8-1.3,7.9-1.3,9.5c0,2.1,0.6,3.1,1.7,3.1c1.5,0,2.6-2.1,3.3-6.4l0.7-4.2
			h-2.4l0.6-3.5h6.4l-3,17.2H153l0.1-2.8H153C151.9,165.3,150.6,166.4,148.9,166.4z"/>
		<path class="st7" d="M184.3,166.4c-1.8,0-3.2-0.5-4.1-1.5c-1-1-1.4-2.4-1.4-4.2c0-0.7,0.1-1.4,0.2-2.1l4.2-23.5h3.9l-4.2,23.6
			c-0.1,0.9-0.2,1.6-0.2,2c0,1.5,0.7,2.2,2.1,2.2c0.7,0,1.2-0.3,1.6-0.9c0.4-0.6,0.7-1.6,0.9-2.9l4.2-24h3.8l-4.3,24.5
			c-0.4,2.2-1.2,3.9-2.3,5C187.4,165.8,186,166.4,184.3,166.4z"/>
		<path class="st7" d="M193.4,166l5.5-30.8h3.4c5,0,7.6,2.2,7.6,6.7c0,0.9-0.1,1.8-0.2,2.6c-1,5.3-3.8,8-8.3,8h-1.6l-2.4,13.5H193.4
			z M200.3,149h1.2c1.2,0,2.1-0.4,2.8-1.1c0.7-0.8,1.2-2,1.5-3.7c0.1-0.8,0.2-1.5,0.2-2c0-2.3-1.1-3.5-3.3-3.5h-0.5L200.3,149z"/>
		<path class="st7" d="M208.7,166l5.5-30.8h3.4c5,0,7.6,2.2,7.6,6.7c0,0.9-0.1,1.8-0.2,2.6c-1,5.3-3.8,8-8.3,8h-1.6l-2.4,13.5H208.7
			z M215.5,149h1.2c1.2,0,2.1-0.4,2.8-1.1c0.7-0.8,1.2-2,1.5-3.7c0.1-0.8,0.2-1.5,0.2-2c0-2.3-1.1-3.5-3.3-3.5h-0.5L215.5,149z"/>
		<path class="st7" d="M223.9,166l5.5-30.8h10.8l-0.6,3.5h-7L231,148h6l-0.6,3.5h-6l-2,11.1h6.9l-0.6,3.5h-10.8V166z"/>
		<path class="st7" d="M246.5,135.1c5.1,0,7.6,2.2,7.6,6.7c0,0.7-0.1,1.5-0.2,2.5c-0.6,3.5-2,5.8-4.3,6.9l1.3,14.8H247l-1-13.9h-2
			l-2.5,13.9h-3.8l5.5-30.8L246.5,135.1L246.5,135.1z M249.9,143.9c0.1-0.6,0.2-1.2,0.2-1.8c0-2.3-1.1-3.4-3.3-3.4h-0.5l-1.7,9.9
			h1.2c1.2,0,2.1-0.4,2.7-1.1C249.1,146.7,249.6,145.5,249.9,143.9z"/>
		<path class="st7" d="M258.7,166l10.4-30.8h4.1l-0.5,30.8h-3.8l0.2-6.7h-4.5l-2.1,6.7H258.7z M265.7,155.7h3.5l0.7-13.5h-0.2
			L265.7,155.7z"/>
		<path class="st7" d="M281.4,166.4c-1.8,0-3.2-0.5-4.1-1.5c-1-1-1.4-2.4-1.4-4.2c0-0.7,0.1-1.4,0.2-2.1l4.2-23.5h3.9l-4.2,23.6
			c-0.1,0.9-0.2,1.6-0.2,2c0,1.5,0.7,2.2,2.1,2.2c0.7,0,1.2-0.3,1.6-0.9c0.4-0.6,0.7-1.6,0.9-2.9l4.2-24h3.8l-4.3,24.5
			c-0.4,2.2-1.2,3.9-2.3,5C284.5,165.8,283.1,166.4,281.4,166.4z"/>
		<path class="st7" d="M296.4,166.4c-1.9,0-3.3-0.5-4.2-1.6c-0.9-1.1-1.3-2.6-1.3-4.7c0-1,0.1-2.1,0.3-3.4h3.7
			c-0.2,1.3-0.3,2.3-0.3,3.1c0,1.1,0.2,1.9,0.5,2.4s0.8,0.7,1.5,0.7c0.8,0,1.4-0.6,1.9-1.7c0.5-1.1,0.7-2.6,0.7-4.3
			s-0.7-3.5-2.2-5.4c-2-2.6-3-5.2-3-7.9c0-2.9,0.5-5.1,1.6-6.6s2.7-2.3,4.7-2.3c3.4,0,5.2,2,5.2,6.1c0,0.9-0.1,1.7-0.2,2.5h-3.7
			c0.1-0.8,0.2-1.6,0.2-2.4c0-1.8-0.5-2.7-1.6-2.7c-0.7,0-1.3,0.5-1.7,1.4c-0.4,0.9-0.6,2.2-0.6,3.7c0,1.7,0.7,3.5,2.2,5.4
			c2,2.6,3,5.2,3,7.9c0,3.1-0.6,5.5-1.8,7.2C300.1,165.5,298.5,166.4,296.4,166.4z"/>
		<path class="st7" d="M307.7,166l4.8-27.4h-4.3l0.6-3.5h12.5l-0.6,3.5h-4.4l-4.8,27.4H307.7z"/>
		<path class="st7" d="M327.4,135.1c5.1,0,7.6,2.2,7.6,6.7c0,0.7-0.1,1.5-0.2,2.5c-0.6,3.5-2,5.8-4.3,6.9l1.3,14.8h-3.9l-1-13.9h-2
			l-2.5,13.9h-3.8l5.5-30.8L327.4,135.1L327.4,135.1z M330.8,143.9c0.1-0.6,0.2-1.2,0.2-1.8c0-2.3-1.1-3.4-3.3-3.4h-0.5l-1.7,9.9
			h1.2c1.2,0,2.1-0.4,2.7-1.1C330,146.7,330.5,145.5,330.8,143.9z"/>
		<path class="st7" d="M334.5,166l5.5-30.8h3.8l-5.5,30.8H334.5z"/>
		<path class="st7" d="M341,166l10.4-30.8h4.1L355,166h-3.8l0.2-6.7h-4.5l-2.1,6.7H341z M348,155.7h3.5l0.7-13.5H352L348,155.7z"/>
	</g>
	<g class="st6">
		<path class="st7" d="M25.9,261.6l12.2-69.4h25.5l-1.5,9.1H46.5l-3.2,18.8h13.4l-1.7,9.2H41.7l-4.1,23.1H53l-1.6,9.1L25.9,261.6
			L25.9,261.6z"/>
		<path class="st7" d="M77.8,192.2c12,0,17.9,5.2,17.9,15.5c0,1.5-0.2,3.4-0.5,5.6c-1.3,7.6-4.4,12.7-9.2,15.5l2.6,32.9H78.3
			l-1.8-30.4h-3.9l-5.4,30.4H57.1l12.2-69.4h8.5V192.2z M74.2,221.9h2.1c2.3,0,4.1-0.8,5.5-2.3s2.3-4,2.9-7.4
			c0.3-1.3,0.4-2.6,0.4-3.9c0-4.7-2.2-7-6.6-7.1h-0.6L74.2,221.9z"/>
		<path class="st7" d="M109.2,262.6c-4.6,0-7.9-1.2-10-3.7c-2-2.4-3.1-6.6-3.1-12.4c0-5.2,0.8-12.2,2.4-21
			c2.2-12.8,4.7-21.7,7.6-26.8c2.8-5,6.8-7.6,11.9-7.6c4.6,0,7.9,1.2,9.9,3.7c2.1,2.5,3.1,6.6,3.1,12.4c0,5-0.8,12-2.4,21
			c-2.3,12.8-4.8,21.7-7.6,26.7C118.2,260,114.3,262.6,109.2,262.6z M109.3,253.4c1.7,0,3.2-1.8,4.4-5.3c1.2-3.5,2.7-10.5,4.5-20.9
			c1.9-10.4,2.8-17.5,2.8-21.2c0-3.8-1.1-5.7-3.2-5.7c-1.7,0-3.2,1.8-4.4,5.3c-1.2,3.5-2.7,10.5-4.5,20.9
			c-1.8,10.7-2.7,17.7-2.7,21.2c0,2.2,0.2,3.7,0.7,4.5C107.4,253,108.2,253.4,109.3,253.4z M113.5,188.1c-1.6,0-2.9-0.5-3.9-1.4
			s-1.4-2.2-1.4-3.7c0-1.9,0.6-3.4,1.8-4.6c1.2-1.2,2.8-1.8,4.6-1.8c1.6,0,2.9,0.5,3.8,1.5s1.4,2.2,1.4,3.8c0,1.8-0.6,3.3-1.9,4.5
			C116.7,187.5,115.2,188.1,113.5,188.1z M128.2,188.1c-1.6,0-2.9-0.5-3.8-1.4s-1.4-2.2-1.4-3.7c0-1.9,0.6-3.4,1.8-4.6
			c1.2-1.2,2.7-1.8,4.5-1.8c1.6,0,2.9,0.5,3.9,1.5s1.4,2.2,1.4,3.8c0,1.8-0.6,3.3-1.9,4.5C131.5,187.5,130,188.1,128.2,188.1z"/>
		<path class="st7" d="M129.1,261.6l12.2-69.4h25.5l-1.5,9.1h-15.5l-3.4,19.6h13.5l-1.7,9.1h-13.4l-5.6,31.5L129.1,261.6
			L129.1,261.6z"/>
		<path class="st7" d="M160,261.6l12.2-69.4h25.5l-1.5,9.1h-15.5l-3.4,19.6h13.5l-1.7,9.1h-13.4l-5.6,31.5L160,261.6L160,261.6z"/>
		<path class="st7" d="M190.8,261.6l12.1-69.4h9.5l3.8,41.2h0.2l7.1-41.2h9.1l-12.3,69.4h-8.6l-3.9-44.4h-0.2l-7.9,44.4H190.8z"/>
		<path class="st7" d="M243.3,262.6c-4.2,0-7.4-1.2-9.7-3.6s-3.5-5.7-3.5-9.9c0-1.7,0.1-3.3,0.4-4.8l9.2-52.1H250l-9.2,52.3
			c-0.3,2.2-0.5,3.7-0.5,4.6c0,2.9,1.3,4.3,3.8,4.3c1.3,0,2.4-0.6,3.2-1.9c0.8-1.2,1.4-3.3,1.9-6.3l9.4-53.1h9.9l-9.7,54.6
			c-0.9,5-2.7,8.9-5.4,11.7C250.8,261.2,247.4,262.6,243.3,262.6z"/>
		<path class="st7" d="M263.4,261.6l12.1-69.4h9.5l3.8,41.2h0.2l7.1-41.2h9.1l-12.3,69.4h-8.6l-3.9-44.4h-0.2l-7.9,44.4H263.4z"/>
		<path class="st7" d="M313.2,262.6c-3.4,0-5.9-1.3-7.6-4c-1.7-2.6-2.5-6.8-2.5-12.4c0-4,0.8-10.8,2.4-20.6
			c2.2-12.6,4.8-21.5,7.6-26.7c2.8-5.2,6.8-7.8,11.9-7.8c4.3,0,7.4,1.2,9.5,3.7c2,2.5,3,6.5,3,12c0,1.7,0,3-0.1,3.9h-9.8
			c0.2-1.9,0.3-3.5,0.3-4.7c0-3.8-1-5.7-3-5.7c-1.7,0-3.1,1.8-4.4,5.4c-1.2,3.6-2.7,10.5-4.5,20.7c-1.9,10.4-2.8,17.5-2.8,21
			c0,4,1.1,5.9,3.2,5.9c2.8,0,5-4.6,6.6-13.8l1.4-8.1h-4.8l1.6-9.3h15l-7,39.2h-6.9l0.1-6.2h-0.2C320,260.2,317,262.6,313.2,262.6z"
			/>
		<path class="st7" d="M350.7,262.6c-4.6,0-7.9-1.2-10-3.7s-3.2-6.2-3.2-11.3c0-2.2,0.2-4.7,0.6-7.3h9.6c-0.4,3-0.6,5.4-0.6,7
			c0,2.3,0.3,3.9,0.9,4.8c0.6,0.9,1.5,1.4,2.8,1.4c1.6,0,2.9-1.1,3.8-3.4c0.9-2.3,1.4-5.2,1.4-8.8c0-3.8-1.6-7.7-4.9-11.7
			c-4.7-6-7-12-7.1-17.9c0-6.5,1.3-11.5,4-15.1s6.3-5.4,11-5.4c8.3,0,12.5,4.8,12.4,14.5c0,1.9-0.1,3.7-0.4,5.5h-9.6
			c0.3-1.8,0.4-3.5,0.4-5c0-3.8-1-5.7-3-5.7c-3,0-4.5,3.4-4.5,10.1c0,3.8,1.6,7.8,4.9,11.8c4.7,6,7,11.9,7,17.9
			c0,6.8-1.4,12.3-4.2,16.3C359.2,260.5,355.4,262.6,350.7,262.6z"/>
		<path class="st7" d="M389.5,192.2c12,0,17.9,5.2,17.9,15.5c0,1.5-0.2,3.4-0.5,5.6c-1.3,7.6-4.4,12.7-9.2,15.5l2.6,32.9H390
			l-1.8-30.4h-3.9l-5.4,30.4h-10.1l12.2-69.4h8.5V192.2z M385.9,221.9h2.1c2.3,0,4.1-0.8,5.5-2.3s2.3-4,2.9-7.4
			c0.3-1.3,0.4-2.6,0.4-3.9c0-4.7-2.2-7-6.6-7.1h-0.6L385.9,221.9z"/>
		<path class="st7" d="M405.5,261.6l12.2-69.4h25.5l-1.5,9.1h-15.5l-3.2,18.8h13.4l-1.7,9.2h-13.3l-4.1,23.1h15.4l-1.6,9.1
			L405.5,261.6L405.5,261.6z"/>
		<path class="st7" d="M436.7,261.6l12.1-69.4h9.5l3.8,41.2h0.2l7.1-41.2h9.1l-12.3,69.4h-8.6l-3.9-44.4h-0.2l-7.9,44.4H436.7z"/>
		<path class="st7" d="M473.8,261.6l12.1-69.4h9.5l3.8,41.2h0.2l7.1-41.2h9.1l-12.3,69.4h-8.6l-3.9-44.4h-0.2l-7.9,44.4H473.8z"/>
		<path class="st7" d="M510.9,261.6l12.2-69.4h25.5l-1.5,9.1h-15.5l-3.2,18.8h13.4l-1.7,9.2h-13.3l-4.1,23.1h15.4l-1.6,9.1
			L510.9,261.6L510.9,261.6z"/>
		<path class="st7" d="M542.2,261.6l12.1-69.4h9.5l3.8,41.2h0.2l7.1-41.2h9.1l-12.3,69.4h-8.6l-3.9-44.4H559l-7.9,44.4H542.2z"/>
	</g>
	<polygon class="st9" points="166.1,170.3 162.9,170.3 170.7,132.8 173.9,132.8 	"/>
</g>
<g id="Innenstadtkriterium" class="st1">
	<polyline id="Upper_Austria_49_" class="st10" points="64.2,271.7 59.9,292 55,292.6 51.2,292.2 47.4,290.8 46.9,290.6 46.4,290.3 
		43.6,287.2 41.2,285.8 38.7,285.5 34.6,285.7 32.8,286.3 31.6,287.2 30.8,289.4 30.6,290.1 29.4,290.8 24.8,292.1 22.9,292.9 
		22.6,291.3 21.1,288.1 14.3,280.9 13.4,279.4 12.5,277.7 12,275.7 12.2,273.8 12.8,272.7 13.4,272.5 14.1,272.5 14.7,272.3 
		15,271.7 64.2,271.7 	"/>
	<polygon id="Upper_Austria_21_" class="st10" points="96.3,119.2 102.5,89.8 101,91 97.8,92.9 84.3,95.2 74.2,99.2 72.6,100.4 
		69,103.9 65.9,105.6 64.3,106.8 64.5,107.2 59.1,108.3 57.6,109 56.7,110 54.9,112.8 53.7,114.3 49.8,117 49.4,117.5 48.3,119.1 	
		"/>
	<polygon class="st10" points="211.7,119.2 226.6,48.3 222.1,46.2 219.8,43.4 218.3,44.4 216.2,50.2 214.6,51.8 209.5,54 
		207.6,55.6 206.8,55.9 205.9,56 196.2,52.6 182.4,51 179.1,49.6 178.2,48.9 176.6,46.8 176.1,46 175.7,43.9 175.9,43.5 176.4,43.3 
		177.1,41.9 177.4,41.7 177.8,41.8 178.3,41.7 178.5,40.7 178.2,39.8 177.6,39.4 176.9,39.2 176.4,38.7 175.8,37.5 174.2,35 
		174.9,35.2 157.1,119.1 	"/>
	<polygon class="st10" points="179.8,271.8 164.8,342.9 160.8,340.1 159.9,339.9 158.5,340.2 154.9,341.9 150.1,343.2 148.2,344.6 
		147.6,344.7 147.1,343.3 146.9,342.2 145.8,339.4 141.4,334.2 137.1,334.8 135.6,334.4 133.1,333.4 130.1,332.9 128.8,332.3 
		126.4,330.9 125.6,330.8 124.5,331 114.1,336.2 112.4,337.6 111.8,337.5 125,271.7 	"/>
	<polygon class="st10" points="223.8,119.1 223.4,115 223.6,114.2 224.1,113 224.3,111.7 224.9,105.9 225.1,105 225.2,104.6 
		225.4,104.4 225.7,104.1 226.4,103.5 227,103.1 228.3,102 232.7,102.1 234.4,102.7 235.8,103.7 237.1,105.1 239.8,109 241.4,110.5 
		243.5,111.1 257.4,107.7 258.8,106.6 260.2,104.6 261.6,103.2 263.4,102.4 268.2,102.1 269.3,102.4 270.5,103.1 272,104.9 
		272,101.6 272.7,89 271.5,81.8 271,80.4 269.2,79 268.7,74.3 266.3,73.4 264.1,70.3 263.6,68.8 263.6,67.5 263.8,66.7 263.8,65.3 
		263.9,64.8 264.1,64.5 264.4,64.5 266.7,64.6 267,64.4 267.1,63.8 266.9,62.2 266,60.6 264.6,59.5 263,58.9 259.4,58.4 256.3,56.8 
		253.1,55.4 247,54 245.2,52.3 245,51.9 243.5,53.4 241.9,53.3 241.1,52.3 240.5,50.9 239.5,49.5 238.9,49.4 237.4,49.9 236.6,49.8 
		236.3,49.2 236.3,48.2 236.2,47.3 235.6,46.7 234.1,46.9 232.7,47.5 231.6,47.9 231.2,48.1 229.9,48.5 215.2,119.2 	"/>
	<polygon class="st10" points="191.1,271.7 191.3,272.3 191.5,272.7 191.7,273.1 191.7,273.7 191.2,274.6 190,275.9 189.9,276.1 
		189.8,276.5 189.8,277.3 189.7,277.8 188.3,280.3 187.9,280.8 187.4,281 186.7,281.3 186.6,281.9 188.3,284 204,295.9 209.1,298.5 
		212.2,299.4 214.3,300.6 216.4,302.2 217.4,303.4 218.1,304.6 218,307.3 216.3,309.8 215,315.2 214.9,318.5 214.7,320.3 
		213.1,323.8 206.9,328.9 192.8,334.5 191.8,336 191.4,337 190.3,338 188.7,338.9 185.6,339.8 183.2,341.2 178.8,344.6 176.4,345.3 
		173.5,345.3 171.6,344.7 169.4,343.8 168.2,343.2 183.2,271.7 	"/>
	<polygon class="st10" points="153.8,119.2 171.5,34.6 170.1,34.1 163.5,30.4 161.4,28.6 159.6,27.3 157.8,26.2 153.8,25.2 
		150.9,31.3 150.7,32.8 151.2,32.6 152.2,34.6 152.7,35.1 153.9,35.7 152.6,36.9 152.4,38.7 152.9,43.4 152.8,45.9 152.5,48 
		151.9,50 150.3,53.6 149.8,54.3 149,55.1 148.2,55.5 146.2,55.8 145.9,55.7 145,57.4 144.2,61.3 143.9,61.1 139.9,59.3 138.5,57 
		136.9,55.8 135.2,54.9 125.1,52 121.8,52.5 118.6,53.7 117.7,54.5 117.2,55.5 117.3,56.1 117.5,56.7 117.9,59.4 118.8,60.8 
		119.1,62.1 118.8,63.5 117.5,66.3 117,67.7 116.8,69 117,73.2 116.8,74.7 116.4,75.7 115.9,76.5 115.7,77.3 115.2,80.4 113.8,82.7 
		105.8,89.7 99.5,119.2 	"/>
	<polygon class="st10" points="122,271.7 108.5,337 107.9,339.1 107.4,341.2 107.2,342.9 107,345.8 107.1,347.2 107.2,347.8 
		107.4,348.8 108.2,350.2 109.3,351.7 110.5,353.1 111.3,354.3 112.2,356.2 112.6,358.6 112.7,360.5 112.3,362 112,362.7 
		111.6,363.1 109.1,365.3 108.8,365.8 107.6,366.1 106.7,366.6 97.7,364.8 92.1,361.2 88.6,357.7 87.9,355.7 87.7,353.6 88.2,351.7 
		89.7,349.1 90.3,348 90.5,346.5 90.3,345.2 88.6,342.4 92.2,331.4 91.7,330.1 91,328.8 88.6,328.5 86.5,327.6 85.6,327 85.1,326.6 
		84.8,326.1 84.3,325 84.5,324.3 85.2,323.8 89,323.6 90.6,323.3 91.8,321.8 89.5,319.7 71.8,315.8 70.3,314.7 69.4,313.5 69,312.2 
		67.8,306.9 67.5,305 67.4,303.1 67.6,299 67.9,297.3 68.2,296 68.5,295.3 69,294.9 69.7,294.8 72.4,295.6 73.8,295.7 75.2,295.3 
		76.1,294.3 76.1,293.1 75.3,292.1 74.4,291.5 73.4,291 70.5,288.9 63.8,291.9 63.2,292 67.4,271.7 	"/>
	<g class="st6">
		<path class="st7" d="M40.3,165.9l1.4-28.4h3.6l-1.5,20.4h0.1l6.1-20.4h2.8l-1,20.4h0.1l5.6-20.4H61l-8.6,28.4h-3.6l0.9-18.3h-0.1
			L44,165.9H40.3z"/>
		<path class="st7" d="M58.4,165.9l5-28.4h9.9l-0.5,3.2h-6.4l-1.5,8.5h5.6l-0.6,3.2h-5.5l-1.8,10.2H69l-0.5,3.2H58.4V165.9z"/>
		<path class="st7" d="M71,165.9l5-28.4h3.5l-4.4,25.2h6.1l-0.5,3.2H71z"/>
		<path class="st7" d="M88.6,166.3c-1.8,0-3.1-0.5-3.9-1.5s-1.2-2.4-1.2-4.3c0-0.9,0.1-1.9,0.3-3.1h3.4c-0.2,1.2-0.2,2.1-0.3,2.9
			c0,1,0.1,1.8,0.4,2.2s0.7,0.6,1.3,0.6c0.7,0,1.3-0.5,1.7-1.6c0.5-1,0.7-2.4,0.7-4s-0.7-3.2-2-5c-1.9-2.4-2.8-4.8-2.8-7.2
			c0-2.6,0.5-4.7,1.5-6.1c1-1.4,2.4-2.1,4.3-2.1c3.2,0,4.7,1.9,4.7,5.6c0,0.8-0.1,1.6-0.2,2.3h-3.4c0.1-0.8,0.2-1.5,0.2-2.2
			c0-1.7-0.5-2.5-1.4-2.5c-0.7,0-1.2,0.4-1.6,1.3c-0.4,0.8-0.6,2-0.6,3.4c0,1.6,0.7,3.2,2,5c1.9,2.4,2.8,4.8,2.8,7.3
			c0,2.8-0.5,5-1.6,6.7C92,165.5,90.5,166.3,88.6,166.3z"/>
		<path class="st7" d="M119.4,166.3c-1.6,0-2.9-0.5-3.8-1.4s-1.3-2.2-1.3-3.9c0-0.7,0.1-1.3,0.2-1.9l3.8-21.6h3.6l-3.8,21.7
			c-0.1,0.8-0.2,1.4-0.2,1.8c0,1.4,0.6,2.1,1.9,2.1c0.6,0,1.1-0.3,1.5-0.8s0.7-1.5,0.9-2.7l3.9-22.1h3.5l-4,22.6
			c-0.4,2-1.1,3.5-2.1,4.6C122.3,165.8,121,166.3,119.4,166.3z"/>
		<path class="st7" d="M127.8,165.9l5-28.4h3.1c4.6,0,7,2.1,7,6.2c0,0.8-0.1,1.6-0.2,2.4c-0.9,4.9-3.5,7.4-7.7,7.4h-1.5l-2.2,12.4
			L127.8,165.9L127.8,165.9z M134.1,150.3h1.1c1.1,0,1.9-0.4,2.5-1.1c0.6-0.7,1.1-1.8,1.3-3.4c0.1-0.8,0.2-1.4,0.2-1.9
			c0-2.1-1-3.2-3-3.2h-0.4L134.1,150.3z"/>
		<path class="st7" d="M141.9,165.9l5-28.4h3.1c4.6,0,7,2.1,7,6.2c0,0.8-0.1,1.6-0.2,2.4c-0.9,4.9-3.5,7.4-7.7,7.4h-1.5l-2.2,12.4
			L141.9,165.9L141.9,165.9z M148.1,150.3h1.1c1.1,0,1.9-0.4,2.5-1.1c0.6-0.7,1.1-1.8,1.3-3.4c0.1-0.8,0.2-1.4,0.2-1.9
			c0-2.1-1-3.2-3-3.2h-0.4L148.1,150.3z"/>
		<path class="st7" d="M155.9,165.9l5-28.4h9.9l-0.5,3.2h-6.4l-1.5,8.5h5.6l-0.6,3.2h-5.5l-1.8,10.2h6.4l-0.5,3.2h-10.1V165.9z"/>
		<path class="st7" d="M176.7,137.5c4.7,0,7,2,7,6.1c0,0.6-0.1,1.4-0.2,2.3c-0.5,3.2-1.9,5.3-4,6.4l1.2,13.6h-3.6l-0.9-12.8h-1.8
			l-2.3,12.8h-3.5l5-28.4L176.7,137.5L176.7,137.5z M179.8,145.6c0.1-0.5,0.2-1.1,0.2-1.7c0-2.1-1-3.2-3-3.2h-0.4l-1.6,9.1h1.1
			c1.1,0,1.9-0.3,2.5-1C179.1,148.2,179.5,147.1,179.8,145.6z"/>
		<path class="st7" d="M187.9,165.9l9.5-28.4h3.8l-0.5,28.4h-3.5l0.2-6.2h-4.1l-2,6.2H187.9z M194.3,156.5h3.3l0.6-12.4h-0.1
			L194.3,156.5z"/>
		<path class="st7" d="M208.8,166.3c-1.6,0-2.9-0.5-3.8-1.4c-0.9-0.9-1.3-2.2-1.3-3.9c0-0.7,0.1-1.3,0.2-1.9l3.8-21.6h3.6l-3.8,21.7
			c-0.1,0.8-0.2,1.4-0.2,1.8c0,1.4,0.6,2.1,1.9,2.1c0.6,0,1.1-0.3,1.5-0.8s0.7-1.5,0.9-2.7l3.9-22.1h3.5l-4,22.6
			c-0.4,2-1.1,3.5-2.1,4.6C211.7,165.8,210.4,166.3,208.8,166.3z"/>
		<path class="st7" d="M222.7,166.3c-1.8,0-3.1-0.5-3.9-1.5c-0.8-1-1.2-2.4-1.2-4.3c0-0.9,0.1-1.9,0.3-3.1h3.4
			c-0.2,1.2-0.2,2.1-0.3,2.9c0,1,0.1,1.8,0.4,2.2c0.3,0.4,0.7,0.6,1.3,0.6c0.7,0,1.3-0.5,1.7-1.6c0.5-1,0.7-2.4,0.7-4s-0.7-3.2-2-5
			c-1.9-2.4-2.8-4.8-2.8-7.2c0-2.6,0.5-4.7,1.5-6.1c1-1.4,2.4-2.1,4.3-2.1c3.2,0,4.7,1.9,4.7,5.6c0,0.8-0.1,1.6-0.2,2.3h-3.4
			c0.1-0.8,0.2-1.5,0.2-2.2c0-1.7-0.5-2.5-1.4-2.5c-0.7,0-1.2,0.4-1.6,1.3c-0.4,0.8-0.6,2-0.6,3.4c0,1.6,0.7,3.2,2,5
			c1.9,2.4,2.8,4.8,2.8,7.3c0,2.8-0.5,5-1.6,6.7C226,165.5,224.5,166.3,222.7,166.3z"/>
		<path class="st7" d="M233,165.9l4.4-25.2h-3.9l0.5-3.2h11.5l-0.5,3.2h-4l-4.4,25.2H233z"/>
		<path class="st7" d="M251.1,137.5c4.7,0,7,2,7,6.1c0,0.6-0.1,1.4-0.2,2.3c-0.5,3.2-1.9,5.3-4,6.4l1.2,13.6h-3.6l-0.9-12.8h-1.8
			l-2.3,12.8H243l5-28.4L251.1,137.5L251.1,137.5z M254.2,145.6c0.1-0.5,0.2-1.1,0.2-1.7c0-2.1-1-3.2-3-3.2H251l-1.6,9.1h1.1
			c1.1,0,1.9-0.3,2.5-1C253.5,148.2,254,147.1,254.2,145.6z"/>
		<path class="st7" d="M257.7,165.9l5-28.4h3.5l-5,28.4H257.7z"/>
		<path class="st7" d="M263.6,165.9l9.5-28.4h3.8l-0.5,28.4h-3.5l0.2-6.2H269l-2,6.2H263.6z M270.1,156.5h3.3l0.6-12.4h-0.1
			L270.1,156.5z"/>
	</g>
	<g class="st6">
		<path class="st7" d="M20.6,253.8l11.3-63.9h9.4L30,253.8L20.6,253.8L20.6,253.8z"/>
		<path class="st7" d="M36.8,253.8L48,189.9h8.7l3.5,37.9h0.2l6.6-37.9h8.4L64,253.8h-8L52.5,213h-0.2L45,253.8H36.8z"/>
		<path class="st7" d="M70.9,253.8l11.2-63.9h8.7l3.5,37.9h0.2l6.6-37.9h8.4l-11.3,63.9h-8L86.6,213h-0.2l-7.2,40.8H70.9z"/>
		<path class="st7" d="M105.1,253.8l11.3-63.9h23.5l-1.4,8.4h-14.3l-2.9,17.3h12.3l-1.6,8.5h-12.2l-3.8,21.3h14.2l-1.5,8.4
			L105.1,253.8L105.1,253.8z"/>
		<path class="st7" d="M133.8,253.8l11.2-63.9h8.7l3.5,37.9h0.2l6.6-37.9h8.4l-11.3,63.9h-8l-3.6-40.8h-0.2l-7.2,40.8L133.8,253.8
			L133.8,253.8z"/>
		<path class="st7" d="M181.4,254.7c-4.2,0-7.3-1.1-9.2-3.4c-2-2.3-2.9-5.7-2.9-10.4c0-2,0.2-4.3,0.6-6.7h8.9
			c-0.4,2.8-0.5,4.9-0.5,6.5c0,2.1,0.3,3.6,0.8,4.4c0.6,0.8,1.4,1.2,2.6,1.2c1.5,0,2.6-1,3.5-3.1s1.3-4.8,1.3-8.1
			c0-3.5-1.5-7.1-4.5-10.8c-4.3-5.5-6.5-11-6.5-16.5c0-5.9,1.2-10.6,3.7-13.9c2.4-3.3,5.8-5,10.1-5c7.7,0,11.5,4.4,11.4,13.3
			c0,1.8-0.1,3.5-0.4,5h-8.9c0.2-1.7,0.4-3.2,0.4-4.6c0-3.5-0.9-5.3-2.8-5.3c-2.8,0-4.2,3.1-4.2,9.3c0,3.5,1.5,7.2,4.5,10.9
			c4.3,5.5,6.5,11,6.5,16.5c0,6.3-1.3,11.3-3.9,15C189.2,252.9,185.7,254.7,181.4,254.7z"/>
		<path class="st7" d="M204.7,253.8l9.7-55.5h-8.9l1.4-8.4h27.2l-1.4,8.4h-9l-9.7,55.5H204.7z"/>
		<path class="st7" d="M221.3,253.8l21.2-63.9h10.4l-1.3,63.9h-9.2l0.5-12.8h-8.6l-3.9,12.8L221.3,253.8L221.3,253.8z M236.8,233.1
			h6.6l1.8-27.9h-0.3L236.8,233.1z"/>
		<path class="st7" d="M275.4,189.9c5.4,0,9.3,1.5,11.7,4.4c2.4,3,3.7,7.5,3.7,13.6c0,4.1-0.5,9.2-1.5,15.2
			c-1.9,11-4.6,18.9-8.1,23.6c-3.5,4.7-8.2,7.1-14.2,7.1h-10.4l11.3-63.9H275.4z M279.6,222.4c1.2-6.8,1.9-12,1.9-15.4
			c0-3-0.5-5.2-1.4-6.6c-0.9-1.4-2.4-2.1-4.4-2.1l-8.4,47.1h1c2.7,0,4.8-1.7,6.5-5C276.5,237,278.1,231,279.6,222.4z"/>
		<path class="st7" d="M295.5,253.8l9.7-55.5h-8.9l1.4-8.4H325l-1.4,8.4h-9l-9.7,55.5H295.5z"/>
		<path class="st7" d="M318.7,253.8l11.2-63.9h9.4l-4.9,27.9h0.2l13.2-27.9h9.3L342.2,221l4.6,32.8h-9.4l-4-29.9h-0.2l-5.2,29.9
			H318.7z"/>
		<path class="st7" d="M370.6,189.9c11,0,16.5,4.7,16.5,14.2c0,1.4-0.2,3.1-0.5,5.1c-1.2,7-4.1,11.7-8.5,14.2l2.4,30.3h-9.4
			l-1.7-27.9h-3.6l-4.9,27.9h-9.3l11.3-63.9h7.7V189.9z M367.3,217.3h1.9c2.1,0,3.8-0.7,5-2.1s2.1-3.7,2.6-6.8
			c0.2-1.2,0.4-2.4,0.4-3.6c0-4.3-2-6.5-6.1-6.5h-0.6L367.3,217.3z"/>
		<path class="st7" d="M385.4,253.8l11.3-63.9h9.4l-11.3,63.9L385.4,253.8L385.4,253.8z"/>
		<path class="st7" d="M408.4,253.8l9.7-55.5h-8.9l1.4-8.4h27.2l-1.4,8.4h-9l-9.7,55.5H408.4z"/>
		<path class="st7" d="M431.5,253.8l11.3-63.9h23.5l-1.4,8.4h-14.3l-2.9,17.3H460l-1.6,8.5h-12.2l-3.8,21.3h14.2l-1.5,8.4
			L431.5,253.8L431.5,253.8z"/>
		<path class="st7" d="M479.3,189.9c11,0,16.5,4.7,16.5,14.2c0,1.4-0.2,3.1-0.5,5.1c-1.2,7-4.1,11.7-8.5,14.2l2.4,30.3h-9.4
			l-1.7-27.9h-3.6l-4.9,27.9h-9.3l11.3-63.9h7.7V189.9z M476,217.3h1.9c2.1,0,3.8-0.7,5-2.1c1.3-1.4,2.1-3.7,2.6-6.8
			c0.2-1.2,0.4-2.4,0.4-3.6c0-4.3-2-6.5-6.1-6.5h-0.6L476,217.3z"/>
		<path class="st7" d="M494.1,253.8l11.3-63.9h9.4l-11.3,63.9L494.1,253.8L494.1,253.8z"/>
		<path class="st7" d="M524.4,254.7c-3.8,0-6.8-1.1-8.9-3.3c-2.1-2.2-3.2-5.2-3.2-9.1c0-1.5,0.1-3,0.4-4.4l8.5-48h9.4l-8.5,48.2
			c-0.3,2-0.5,3.4-0.5,4.2c0,2.7,1.2,4,3.5,4c1.2,0,2.2-0.6,3-1.7s1.3-3.1,1.8-5.8l8.7-48.9h9.1l-8.9,50.3c-0.8,4.6-2.5,8.2-5,10.7
			C531.3,253.5,528.2,254.7,524.4,254.7z"/>
		<path class="st7" d="M542.9,253.8l11.2-63.9H567l-0.9,39.8h0.2l12.9-39.8H593l-11.2,63.9h-9.1l8.9-50.9h-0.2l-16.7,50.9H559
			l1.3-50.9h-0.2l-9,50.9L542.9,253.8L542.9,253.8z"/>
	</g>
	<polygon class="st9" points="103.6,168.9 100.6,168.9 107.8,134.4 110.8,134.4 	"/>
</g>
<g id="Junioren_Rundfahrt" class="st1">
	<polyline id="Upper_Austria_53_" class="st3" points="63.5,277.3 59,298.6 53.8,299.3 49.9,298.8 45.9,297.4 45.4,297.2 
		44.9,296.8 41.9,293.6 39.4,292.1 36.8,291.8 32.4,292 30.5,292.6 29.3,293.6 28.5,295.9 28.2,296.6 26.9,297.4 22.2,298.7 
		20.1,299.5 19.8,297.9 18.3,294.5 11.1,286.9 10.1,285.4 9.2,283.5 8.7,281.5 8.9,279.4 9.5,278.3 10.2,278.1 10.9,278.1 
		11.5,277.9 11.8,277.3 63.5,277.3 	"/>
	<polygon id="Upper_Austria_27_" class="st3" points="97.3,117 103.8,86.1 102.3,87.4 98.8,89.3 84.7,91.8 74.1,96 72.4,97.2 
		68.6,100.9 65.3,102.7 63.7,104 63.8,104.4 58.2,105.5 56.6,106.3 55.7,107.3 53.8,110.3 52.5,111.9 48.4,114.7 48,115.2 
		46.9,116.9 	"/>
	<polygon class="st3" points="218.6,116.9 234.3,42.5 229.5,40.2 227.1,37.3 225.6,38.4 223.3,44.5 221.6,46.2 216.3,48.5 
		214.2,50.1 213.4,50.4 212.5,50.6 202.3,46.9 187.7,45.3 184.3,43.8 183.4,43.1 181.6,40.9 181.2,40 180.7,37.9 180.9,37.5 
		181.5,37.2 182.2,35.8 182.5,35.6 183,35.7 183.4,35.5 183.6,34.5 183.4,33.6 182.8,33.2 182,32.9 181.5,32.4 180.9,31.1 
		179.2,28.5 179.9,28.7 161.2,116.9 	"/>
	<polygon class="st3" points="185.1,277.3 169.3,352.2 165,349.2 164.1,349 162.7,349.3 158.9,351.1 153.9,352.5 151.8,353.9 
		151.2,354 150.7,352.5 150.5,351.3 149.4,348.4 144.7,342.9 140.2,343.6 138.6,343.2 135.9,342.2 132.9,341.6 131.5,341 129,339.5 
		128.1,339.4 126.9,339.6 116,345.1 114.3,346.5 113.6,346.4 127.5,277.3 	"/>
	<polygon class="st3" points="231.3,116.9 230.9,112.6 231.1,111.7 231.6,110.5 231.9,109.1 232.5,103 232.7,102 232.8,101.7 
		233,101.4 233.3,101.1 234,100.5 234.7,100.1 236.1,98.9 240.7,99 242.4,99.7 244,100.7 245.3,102.2 248.1,106.3 249.8,107.9 
		252,108.5 266.6,105 268,103.8 269.5,101.6 271.1,100.1 272.9,99.3 278,99.1 279.1,99.4 280.4,100.1 281.9,102 282,98.5 
		282.7,85.3 281.5,77.6 281,76.3 279,74.8 278.5,69.8 276,68.9 273.6,65.6 273.1,64.1 273.2,62.7 273.3,61.8 273.3,60.4 273.4,59.8 
		273.6,59.5 274,59.5 276.3,59.6 276.7,59.4 276.8,58.7 276.6,57.1 275.6,55.4 274.2,54.2 272.5,53.6 268.7,53.1 265.5,51.4 
		262.1,50 255.7,48.5 253.8,46.7 253.6,46.2 252,47.8 250.3,47.7 249.5,46.7 248.9,45.3 247.8,43.8 247.1,43.6 245.6,44.2 
		244.8,44.1 244.4,43.5 244.4,42.4 244.3,41.4 243.6,40.9 242.1,41 240.7,41.6 239.5,42.1 239.1,42.3 237.7,42.7 222.2,116.9 	"/>
	<polygon class="st3" points="196.9,277.3 197.1,277.9 197.4,278.3 197.6,278.8 197.5,279.3 197,280.3 195.8,281.6 195.7,281.9 
		195.6,282.3 195.6,283.1 195.5,283.7 194,286.3 193.6,286.8 193.1,287.1 192.3,287.3 192.2,288 194,290.2 210.5,302.8 215.9,305.4 
		219.1,306.4 221.3,307.7 223.5,309.3 224.6,310.6 225.3,311.8 225.2,314.7 223.4,317.3 222,323 221.9,326.5 221.8,328.3 220,332.1 
		213.5,337.4 198.8,343.3 197.6,344.8 197.3,345.9 196.1,347 194.4,347.9 191.1,348.8 188.6,350.4 184,353.9 181.5,354.7 
		178.5,354.7 176.4,354 174.2,353 172.9,352.5 188.6,277.3 	"/>
	<polygon class="st3" points="157.7,117 176.3,28.1 174.8,27.5 167.9,23.7 165.7,21.8 163.8,20.4 161.9,19.3 157.8,18.2 154.7,24.7 
		154.5,26.1 155,25.9 156.1,28.1 156.6,28.6 157.9,29.2 156.5,30.5 156.2,32.4 156.8,37.4 156.7,40 156.4,42.2 155.8,44.2 154,48.1 
		153.5,48.8 152.7,49.6 151.9,50 149.7,50.3 149.4,50.3 148.5,52 147.6,56.2 147.4,55.9 143.2,54 141.6,51.6 139.9,50.4 138.1,49.4 
		127.5,46.4 124.1,46.9 120.7,48.1 119.8,49 119.2,50.1 119.3,50.6 119.6,51.3 120,54.1 121,55.6 121.2,57 120.9,58.5 119.5,61.4 
		119.1,62.8 118.9,64.3 119.1,68.6 118.8,70.3 118.4,71.3 117.9,72.1 117.7,72.9 117.1,76.2 115.7,78.6 107.3,86 100.7,117 	"/>
	<polygon class="st3" points="124.3,277.3 110.1,345.9 109.5,348.1 109,350.3 108.7,352.1 108.5,355.2 108.6,356.7 108.7,357.3 
		109,358.3 109.8,359.8 110.9,361.3 112.2,362.8 113,364 114,366.1 114.4,368.6 114.5,370.6 114.1,372.2 113.8,372.9 113.4,373.4 
		110.8,375.6 110.5,376.2 109.2,376.5 108.2,377 98.7,375.1 92.8,371.4 89.2,367.7 88.4,365.6 88.2,363.3 88.8,361.3 90.4,358.7 
		90.9,357.4 91.2,355.9 90.9,354.6 89.2,351.6 93,340 92.5,338.7 91.7,337.3 89.2,337 87,336 86.1,335.5 85.5,335 85.2,334.4 
		84.7,333.3 84.9,332.6 85.6,332 89.6,331.8 91.3,331.5 92.5,329.9 90.1,327.7 71.6,323.6 70,322.5 69,321.2 68.6,319.9 67.3,314.3 
		67,312.3 66.9,310.3 67.2,306 67.4,304.1 67.8,302.8 68.1,302.1 68.6,301.7 69.4,301.5 72.1,302.4 73.6,302.5 75.1,302.1 76,301 
		76.1,299.8 75.2,298.7 74.3,298.1 73.3,297.6 70.2,295.3 63.2,298.5 62.4,298.6 66.9,277.3 	"/>
	<g class="st6">
		<path class="st7" d="M37.7,166.1l5.3-29.8h3.7l-5.3,29.8H37.7z"/>
		<path class="st7" d="M45.1,166.1l5.2-29.8h3.5l1.8,19h0.1l3.3-19h3.3l-5.2,29.8H54l-1.9-20.4H52l-3.6,20.4H45.1z"/>
		<path class="st7" d="M63.9,166.1l4.6-26.5h-4.1l0.5-3.4H77l-0.6,3.4h-4.2l-4.6,26.5H63.9z"/>
		<path class="st7" d="M74.4,166.1l5.3-29.8H90l-0.5,3.4h-6.8l-1.6,9H87l-0.6,3.4h-5.8l-1.9,10.8h6.7l-0.6,3.4H74.4V166.1z"/>
		<path class="st7" d="M96.3,136.3c4.9,0,7.4,2.1,7.4,6.4c0,0.7-0.1,1.5-0.2,2.4c-0.6,3.4-2,5.6-4.2,6.7l1.2,14.3h-3.8l-1-13.5h-1.9
			l-2.4,13.5h-3.7l5.3-29.8L96.3,136.3L96.3,136.3z M99.5,144.7c0.1-0.6,0.2-1.2,0.2-1.8c0-2.2-1.1-3.3-3.2-3.3H96l-1.7,9.6h1.1
			c1.1,0,2-0.4,2.6-1.1S99.2,146.3,99.5,144.7z"/>
		<path class="st7" d="M103.1,166.1l5.2-29.8h3.5l1.8,19h0.1l3.3-19h3.3l-5.2,29.8H112l-1.9-20.4H110l-3.6,20.4H103.1z"/>
		<path class="st7" d="M117.7,166.1l10-29.8h4l-0.5,29.8h-3.7l0.2-6.5h-4.3l-2.1,6.5H117.7z M124.5,156.2h3.4l0.7-13.1h-0.1
			L124.5,156.2z"/>
		<path class="st7" d="M134.9,166.1l4.6-26.5h-4.1l0.5-3.4H148l-0.6,3.4h-4.2l-4.6,26.5H134.9z"/>
		<path class="st7" d="M145.3,166.1l5.3-29.8h3.7l-5.3,29.8H145.3z"/>
		<path class="st7" d="M159.1,166.5c-1.8,0-3.2-0.5-4-1.5s-1.3-2.8-1.3-5.2c0-2.2,0.3-5.3,1-9.2c1-5.5,2-9.4,3.2-11.6
			c1.2-2.2,2.8-3.3,5-3.3c1.8,0,3.2,0.5,4,1.5s1.3,2.8,1.3,5.2c0,2.2-0.3,5.3-1,9.2c-1,5.5-2.1,9.4-3.2,11.5
			C162.9,165.4,161.3,166.5,159.1,166.5z M159.2,163.2c0.9,0,1.6-0.8,2.2-2.4c0.6-1.6,1.3-4.7,2.1-9.3s1.2-7.7,1.2-9.3
			c0-1.1-0.1-1.9-0.4-2.3c-0.2-0.4-0.7-0.6-1.2-0.6c-0.9,0-1.6,0.8-2.2,2.4c-0.6,1.6-1.3,4.7-2.1,9.3s-1.2,7.7-1.2,9.3
			c0,1.1,0.1,1.9,0.4,2.3C158.2,162.9,158.6,163.2,159.2,163.2z"/>
		<path class="st7" d="M167.8,166.1l5.2-29.8h3.5l1.8,19h0.1l3.3-19h3.3l-5.2,29.8h-3.2l-1.9-20.4h-0.1l-3.6,20.4H167.8z"/>
		<path class="st7" d="M182.5,166.1l10-29.8h4l-0.5,29.8h-3.7l0.2-6.5h-4.3l-2.1,6.5H182.5z M189.2,156.2h3.4l0.7-13.1h-0.1
			L189.2,156.2z"/>
		<path class="st7" d="M198.5,166.1l5.3-29.8h3.7l-4.7,26.5h6.4l-0.6,3.4L198.5,166.1L198.5,166.1z"/>
		<path class="st7" d="M211.2,166.1l5.3-29.8h10.4l-0.5,3.4h-6.8l-1.6,9h5.9l-0.6,3.4h-5.8l-1.9,10.8h6.7l-0.6,3.4h-10.5V166.1z"/>
		<path class="st7" d="M232.8,161.9c0.7,0,1.2,0.2,1.6,0.7c0.4,0.5,0.6,1.1,0.6,1.8c0,1.9-0.6,3.6-1.7,5c-1.1,1.4-2.6,2.1-4.4,2.2
			l0.4-1.8c1.7-0.2,2.7-1.3,3-3.3c-0.6,0-1.1-0.2-1.5-0.6c-0.4-0.4-0.6-0.9-0.6-1.4c0-0.7,0.2-1.3,0.7-1.8S232.1,161.9,232.8,161.9z
			 M239.3,161.9c0.7,0,1.2,0.2,1.6,0.7s0.6,1.1,0.6,1.8c0,1.9-0.6,3.6-1.7,5c-1.1,1.4-2.6,2.1-4.4,2.2l0.4-1.8
			c1.7-0.2,2.7-1.3,3-3.3c-0.6,0-1.1-0.2-1.5-0.6c-0.4-0.4-0.6-0.9-0.6-1.4c0-0.7,0.2-1.3,0.7-1.8
			C238,162.1,238.6,161.9,239.3,161.9z"/>
		<path class="st7" d="M244.3,166.1l5.2-29.8h3.7l-2.3,13.4h0.1l6.8-13.4h3.7l-7.4,14.4l2.6,15.5H253l-2.3-14.4h-0.1l-2.6,14.4
			L244.3,166.1L244.3,166.1z"/>
		<path class="st7" d="M259.3,166.1l5.3-29.8H275l-0.5,3.4h-6.8l-1.6,9h5.9l-0.6,3.4h-5.8l-1.9,10.8h6.7l-0.6,3.4h-10.5V166.1z"/>
		<path class="st7" d="M272.6,166.1l5.3-29.8h3.7l-5.3,29.8H272.6z"/>
		<path class="st7" d="M280,166.1l5.2-29.8h3.5l1.8,19h0.1l3.3-19h3.3l-5.2,29.8h-3.2l-1.9-20.4h0.1l-3.6,20.4H280z"/>
		<path class="st7" d="M295.8,166.1l5.3-29.8h10.4l-0.5,3.4h-6.8l-1.6,9h5.9l-0.6,3.4H302l-1.9,10.8h6.7l-0.6,3.4h-10.4V166.1z"/>
		<path class="st7" d="M320.9,166.5c-1.9,0-3.2-0.5-4.1-1.5c-0.8-1-1.3-2.5-1.3-4.6c0-1,0.1-2,0.3-3.3h3.6c-0.2,1.2-0.3,2.2-0.3,3
			c0,1.1,0.2,1.9,0.5,2.3c0.3,0.4,0.8,0.7,1.4,0.7c0.7,0,1.4-0.5,1.8-1.6s0.7-2.5,0.7-4.2c0-1.6-0.7-3.4-2.1-5.2
			c-2-2.5-2.9-5.1-2.9-7.6c0-2.8,0.5-4.9,1.6-6.4s2.6-2.2,4.5-2.2c3.3,0,5,2,5,5.9c0,0.8-0.1,1.6-0.2,2.4h-3.6
			c0.1-0.8,0.2-1.6,0.2-2.3c0-1.8-0.5-2.6-1.5-2.6c-0.7,0-1.3,0.4-1.7,1.3c-0.4,0.9-0.6,2.1-0.6,3.6c0,1.6,0.7,3.4,2.1,5.2
			c2,2.5,2.9,5.1,2.9,7.6c0,3-0.6,5.3-1.7,7S322.8,166.5,320.9,166.5z"/>
		<path class="st7" d="M335.3,166.5c-1.8,0-3.2-0.5-4-1.5s-1.3-2.8-1.3-5.2c0-2.2,0.3-5.3,1-9.2c1-5.5,2-9.4,3.2-11.6s2.8-3.3,5-3.3
			c1.8,0,3.2,0.5,4,1.5s1.3,2.8,1.3,5.2c0,2.2-0.3,5.3-1,9.2c-1,5.5-2.1,9.4-3.2,11.5C339,165.4,337.4,166.5,335.3,166.5z
			 M335.3,163.2c0.9,0,1.6-0.8,2.2-2.4c0.6-1.6,1.3-4.7,2.1-9.3c0.8-4.6,1.2-7.7,1.2-9.3c0-1.1-0.1-1.9-0.4-2.3s-0.7-0.6-1.2-0.6
			c-0.9,0-1.6,0.8-2.2,2.4c-0.6,1.6-1.3,4.7-2.1,9.3c-0.8,4.6-1.2,7.7-1.2,9.3c0,1.1,0.1,1.9,0.4,2.3
			C334.3,162.9,334.7,163.2,335.3,163.2z"/>
		<path class="st7" d="M352.7,136.3c4.9,0,7.4,2.1,7.4,6.4c0,0.7-0.1,1.5-0.2,2.4c-0.6,3.4-2,5.6-4.2,6.7l1.2,14.3h-3.8l-1-13.5
			h-1.9l-2.4,13.5h-3.7l5.3-29.8L352.7,136.3L352.7,136.3z M355.9,144.7c0.1-0.6,0.2-1.2,0.2-1.8c0-2.2-1.1-3.3-3.2-3.3h-0.4
			l-1.7,9.6h1.1c1.1,0,2-0.4,2.6-1.1C355.2,147.5,355.6,146.3,355.9,144.7z"/>
		<path class="st7" d="M364.7,166.5c-1.4,0-2.5-0.5-3.2-1.6s-1-2.8-1-5.2c0-2,0.3-5,1-9c0.9-5.4,2-9.3,3.2-11.5s2.8-3.3,4.9-3.3
			c1.8,0,3,0.5,3.9,1.5c0.8,1,1.2,2.7,1.2,5c0,0.7,0,1.2,0,1.6H371c0.1-1,0.1-1.6,0.1-1.9c0-1.9-0.5-2.9-1.5-2.9
			c-0.8,0-1.5,0.8-2.1,2.4c-0.6,1.6-1.3,4.7-2.1,9.3c-0.8,4.6-1.2,7.7-1.2,9.2c0,2,0.5,3,1.6,3c1.4,0,2.5-2.1,3.2-6.2l0.7-4.1h-2.4
			l0.5-3.4h6.1L371,166h-2.6l0.1-2.7h-0.1C367.6,165.5,366.3,166.5,364.7,166.5z"/>
		<path class="st7" d="M374.5,166.1l5.3-29.8h10.4l-0.5,3.4h-6.8l-1.6,9h5.9l-0.6,3.4h-5.8l-1.9,10.8h6.7l-0.6,3.4h-10.5V166.1z"/>
		<path class="st7" d="M387.8,166.1l5.2-29.8h3.5l1.8,19h0.1l3.3-19h3.3l-5.2,29.8h-3.2l-1.9-20.4h-0.1l-3.6,20.4H387.8z"/>
		<path class="st7" d="M407,143c0-1.9,0.6-3.6,1.7-5s2.6-2.1,4.4-2.2l-0.3,1.8c-1.7,0.2-2.7,1.3-3,3.3c0.6,0,1.1,0.2,1.5,0.6
			c0.4,0.4,0.6,0.9,0.6,1.4c0,0.7-0.2,1.3-0.7,1.8s-1.1,0.8-1.8,0.8c-0.7,0-1.2-0.2-1.6-0.7C407.2,144.3,407,143.7,407,143z
			 M419.1,137.6c-1.7,0.2-2.7,1.3-3,3.3c0.6,0,1.1,0.2,1.5,0.6s0.6,0.9,0.6,1.4c0,0.7-0.2,1.3-0.7,1.8s-1.1,0.8-1.8,0.8
			c-0.7,0-1.2-0.2-1.6-0.7s-0.6-1.1-0.6-1.8c0-1.9,0.6-3.6,1.7-5s2.6-2.1,4.4-2.2L419.1,137.6z"/>
	</g>
	<g class="st6">
		<path class="st7" d="M15.9,257.7l1.5-8.7c1.5,1,3.1,1.6,4.8,1.6c1.8,0,3.1-0.5,4-1.4c0.8-0.9,1.5-2.6,2-5.1l9.2-52.7h9.8
			l-9.6,54.3c-0.9,4.8-2.4,8.2-4.7,10.5c-2.3,2.2-5.4,3.3-9.5,3.3C20.6,259.5,18.1,258.9,15.9,257.7z"/>
		<path class="st7" d="M57.3,259.4c-4,0-7.2-1.1-9.4-3.4c-2.2-2.3-3.4-5.5-3.4-9.6c0-1.6,0.1-3.2,0.4-4.7l8.9-50.4h9.9L54.9,242
			c-0.3,2.1-0.5,3.6-0.5,4.5c0,2.8,1.2,4.2,3.7,4.2c1.3,0,2.3-0.6,3.1-1.8s1.4-3.2,1.9-6.1l9.1-51.4h9.6l-9.4,52.8
			c-0.9,4.9-2.6,8.6-5.2,11.3C64.6,258.1,61.3,259.4,57.3,259.4z"/>
		<path class="st7" d="M76.8,258.5l11.7-67.1h9.2l3.7,39.8h0.2l6.9-39.8h8.8l-11.9,67.1H97l-3.8-42.9H93l-7.6,42.9H76.8z"/>
		<path class="st7" d="M112.6,258.5l11.8-67.1h9.8l-11.9,67.1H112.6z"/>
		<path class="st7" d="M145,259.4c-4.5,0-7.7-1.2-9.7-3.5c-2-2.4-3-6.4-3-12c0-5,0.8-11.8,2.3-20.3c2.2-12.4,4.6-21,7.3-25.9
			s6.6-7.3,11.5-7.3c4.4,0,7.6,1.2,9.6,3.6c2,2.4,3,6.4,3,12c0,4.8-0.8,11.6-2.3,20.3c-2.2,12.4-4.7,21-7.4,25.9
			C153.8,257,149.9,259.4,145,259.4z M145.1,250.6c1.7,0,3.1-1.7,4.3-5.1c1.2-3.4,2.6-10.1,4.4-20.2c1.8-10.1,2.7-16.9,2.8-20.5
			c0-3.7-1-5.6-3.1-5.6c-1.7,0-3.1,1.7-4.3,5.1c-1.2,3.4-2.6,10.1-4.4,20.2c-1.7,10.3-2.6,17.2-2.6,20.5c0,2.1,0.2,3.5,0.7,4.3
			C143.3,250.2,144.1,250.6,145.1,250.6z"/>
		<path class="st7" d="M184.3,191.3c11.6,0,17.3,5,17.3,15c0,1.5-0.2,3.3-0.5,5.4c-1.3,7.3-4.3,12.3-8.9,15l2.5,31.8h-9.9l-1.8-29.4
			h-3.8l-5.2,29.4h-9.8l11.8-67.1L184.3,191.3L184.3,191.3z M180.8,220.1h2c2.2,0,4-0.7,5.3-2.2s2.2-3.9,2.8-7.1
			c0.3-1.2,0.4-2.5,0.4-3.8c0-4.5-2.1-6.8-6.4-6.8h-0.6L180.8,220.1z"/>
		<path class="st7" d="M199.8,258.5l11.8-67.1h24.7l-1.5,8.8h-15l-3.1,18.2h12.9l-1.7,8.9h-12.8l-4,22.4H226l-1.6,8.8L199.8,258.5
			L199.8,258.5z"/>
		<path class="st7" d="M230,258.5l11.7-67.1h9.2l3.7,39.8h0.2l6.9-39.8h8.8l-11.9,67.1h-8.4l-3.8-42.9h-0.2l-7.6,42.9H230z"/>
		<path class="st7" d="M299.5,191.3c11.6,0,17.3,5,17.3,15c0,1.5-0.2,3.3-0.5,5.4c-1.3,7.3-4.3,12.3-8.9,15l2.5,31.8H300l-1.8-29.4
			h-3.8l-5.2,29.4h-9.8l11.8-67.1L299.5,191.3L299.5,191.3z M296,220.1h2c2.2,0,4-0.7,5.3-2.2s2.2-3.9,2.8-7.1
			c0.3-1.2,0.4-2.5,0.4-3.8c0-4.5-2.1-6.8-6.4-6.8h-0.6L296,220.1z"/>
		<path class="st7" d="M329.2,259.4c-4,0-7.2-1.1-9.4-3.4c-2.2-2.3-3.4-5.5-3.4-9.6c0-1.6,0.1-3.2,0.4-4.7l8.9-50.4h9.9l-8.9,50.6
			c-0.3,2.1-0.5,3.6-0.5,4.5c0,2.8,1.2,4.2,3.7,4.2c1.3,0,2.3-0.6,3.1-1.8c0.8-1.2,1.4-3.2,1.9-6.1l9.1-51.4h9.6l-9.4,52.8
			c-0.9,4.9-2.6,8.6-5.2,11.3C336.4,258.1,333.1,259.4,329.2,259.4z"/>
		<path class="st7" d="M348.6,258.5l11.7-67.1h9.2l3.7,39.8h0.2l6.9-39.8h8.8l-11.9,67.1h-8.4l-3.8-42.9h-0.2l-7.6,42.9H348.6z"/>
		<path class="st7" d="M404.4,191.3c5.6,0,9.7,1.6,12.3,4.7c2.6,3.1,3.8,7.9,3.8,14.3c0,4.3-0.5,9.7-1.6,16
			c-2,11.6-4.8,19.8-8.5,24.8s-8.7,7.4-15,7.4h-11l11.8-67.1L404.4,191.3L404.4,191.3z M408.8,225.4c1.3-7.2,1.9-12.6,1.9-16.2
			c0-3.2-0.5-5.5-1.5-6.9s-2.5-2.2-4.7-2.2l-8.8,49.5h1.1c2.8,0,5.1-1.8,6.9-5.3C405.6,240.8,407.3,234.5,408.8,225.4z"/>
		<path class="st7" d="M419.1,258.5l11.8-67.1h24.7l-1.5,8.8h-15l-3.3,19h13l-1.7,8.8h-12.9l-5.4,30.5H419.1z"/>
		<path class="st7" d="M444,258.5l22.3-67.1h10.9l-1.4,67.1h-9.6l0.5-13.4h-9.1l-4.1,13.4H444z M460.2,236.7h6.9l1.9-29.3h-0.3
			L460.2,236.7z"/>
		<path class="st7" d="M480.9,258.5l11.7-67.1h9.8l-4.8,27h9l4.8-27h9.8l-11.9,67.1h-9.8l5.6-31.2H496l-5.5,31.2H480.9z"/>
		<path class="st7" d="M536.8,191.3c11.6,0,17.3,5,17.3,15c0,1.5-0.2,3.3-0.5,5.4c-1.3,7.3-4.3,12.3-8.9,15l2.5,31.8h-9.9l-1.8-29.4
			h-3.8l-5.2,29.4h-9.8l11.8-67.1L536.8,191.3L536.8,191.3z M533.3,220.1h2c2.2,0,4-0.7,5.3-2.2s2.2-3.9,2.8-7.1
			c0.3-1.2,0.4-2.5,0.4-3.8c0-4.5-2.1-6.8-6.4-6.8h-0.6L533.3,220.1z"/>
		<path class="st7" d="M558.7,258.5l10.2-58.3h-9.3l1.5-8.8h28.6l-1.5,8.8h-9.5l-10.2,58.3H558.7z"/>
	</g>
</g>
<g>
	<polyline id="Upper_Austria_4_" class="st11" points="116.7,281.2 112.1,303.2 106.7,303.8 102.7,303.4 98.5,301.9 98,301.7 
		97.5,301.3 94.4,298 91.8,296.5 89.2,296.1 84.7,296.3 82.7,296.9 81.4,298 80.6,300.4 80.3,301.1 79,301.9 74.1,303.3 72,304.1 
		71.7,302.4 70.1,298.9 62.7,291.1 61.7,289.5 60.7,287.6 60.2,285.5 60.4,283.4 61.1,282.3 61.7,282 62.4,282.1 63.1,281.8 
		63.4,281.2 116.7,281.2 	"/>
	<polygon id="Upper_Austria_1_" class="st11" points="151.6,115.8 158.2,84 156.7,85.3 153.1,87.3 138.6,89.9 127.6,94.2 
		125.9,95.4 122,99.2 118.6,101.1 116.9,102.5 117.1,102.8 111.2,104 109.6,104.8 108.6,105.9 106.7,109 105.3,110.5 101.1,113.5 
		100.7,114 99.6,115.8 	"/>
	<polygon class="st11" points="276.7,115.8 292.8,39 287.9,36.7 285.4,33.7 283.8,34.8 281.5,41.1 279.8,42.8 274.3,45.2 
		272.2,46.9 271.3,47.2 270.3,47.3 259.8,43.6 244.9,41.9 241.3,40.4 240.4,39.6 238.5,37.3 238.1,36.5 237.6,34.3 237.8,33.8 
		238.4,33.6 239.1,32.1 239.4,31.9 239.9,32 240.4,31.8 240.6,30.8 240.3,29.8 239.7,29.4 239,29.1 238.4,28.6 237.8,27.3 236,24.6 
		236.8,24.8 217.5,115.8 	"/>
	<polygon class="st11" points="242.1,281.2 225.8,358.4 221.4,355.3 220.5,355.1 219,355.4 215.1,357.3 209.9,358.7 207.8,360.2 
		207.1,360.3 206.6,358.8 206.4,357.5 205.3,354.6 200.5,348.9 195.8,349.5 194.2,349.1 191.4,348.1 188.2,347.5 186.8,346.9 
		184.2,345.4 183.3,345.2 182.1,345.4 170.8,351.1 169.1,352.6 168.4,352.5 182.7,281.2 	"/>
	<polygon class="st11" points="289.8,115.8 289.3,111.3 289.5,110.4 290.1,109.1 290.3,107.8 291,101.4 291.2,100.4 291.3,100.1 
		291.5,99.8 291.8,99.4 292.6,98.8 293.2,98.4 294.7,97.2 299.4,97.3 301.2,98 302.8,99.1 304.2,100.6 307.1,104.8 308.9,106.4 
		311.1,107.1 326.2,103.4 327.7,102.2 329.2,100 330.8,98.5 332.7,97.6 337.9,97.4 339.1,97.7 340.4,98.5 342,100.3 342,96.8 
		342.7,83.1 341.5,75.3 341,73.9 339,72.3 338.4,67.2 335.8,66.2 333.4,62.9 332.9,61.3 332.9,59.9 333.1,58.9 333.1,57.5 
		333.2,56.9 333.4,56.6 333.8,56.5 336.2,56.7 336.6,56.4 336.7,55.8 336.5,54.1 335.5,52.4 334,51.1 332.2,50.5 328.4,50 325,48.2 
		321.5,46.7 314.9,45.2 313,43.4 312.7,42.9 311.1,44.5 309.4,44.4 308.5,43.4 307.9,41.9 306.8,40.4 306.1,40.2 304.5,40.8 
		303.7,40.7 303.3,40 303.3,38.9 303.2,37.9 302.5,37.3 300.9,37.5 299.5,38.1 298.2,38.6 297.8,38.8 296.4,39.2 280.4,115.8 	"/>
	<polygon class="st11" points="254.3,281.2 254.5,281.8 254.8,282.2 255,282.7 255,283.3 254.4,284.3 253.2,285.7 253,286 
		252.9,286.4 252.9,287.2 252.8,287.7 251.3,290.5 250.9,291 250.4,291.3 249.5,291.5 249.4,292.3 251.3,294.5 268.3,307.4 
		273.9,310.2 277.2,311.2 279.5,312.5 281.7,314.2 282.8,315.6 283.6,316.8 283.5,319.7 281.6,322.4 280.2,328.3 280.1,331.9 
		279.9,333.8 278.1,337.7 271.4,343.1 256.2,349.2 255.1,350.8 254.7,351.9 253.5,353 251.7,354 248.4,355 245.7,356.5 241,360.2 
		238.4,361 235.3,361 233.1,360.3 230.8,359.3 229.5,358.7 245.7,281.2 	"/>
	<polygon class="st11" points="213.9,115.8 233.1,24.2 231.5,23.6 224.4,19.6 222.1,17.7 220.2,16.2 218.2,15.1 213.9,13.9 
		210.8,20.6 210.5,22.2 211.1,22 212.2,24.2 212.7,24.7 214,25.3 212.6,26.7 212.4,28.6 212.9,33.7 212.8,36.4 212.5,38.7 
		211.9,40.8 210,44.8 209.5,45.5 208.7,46.4 207.8,46.8 205.6,47.1 205.3,47 204.4,48.9 203.4,53.1 203.2,52.9 198.9,50.9 
		197.3,48.4 195.5,47.1 193.7,46.1 182.7,43.1 179.2,43.5 175.7,44.8 174.8,45.7 174.2,46.8 174.3,47.4 174.6,48.1 175,51 176,52.6 
		176.2,54 175.9,55.5 174.5,58.5 174,60 173.8,61.5 174,66 173.8,67.6 173.3,68.7 172.8,69.6 172.6,70.4 172,73.8 170.6,76.3 
		161.9,83.9 155,115.8 	"/>
	<polygon class="st11" points="179.4,281.2 164.8,352 164.2,354.2 163.6,356.5 163.4,358.3 163.1,361.5 163.2,363 163.4,363.7 
		163.6,364.7 164.4,366.3 165.6,367.8 167,369.4 167.8,370.6 168.8,372.8 169.3,375.3 169.3,377.4 168.9,379.1 168.6,379.8 
		168.1,380.3 165.5,382.6 165.1,383.2 163.8,383.5 162.9,384 153.1,382.1 147,378.2 143.2,374.4 142.4,372.2 142.2,369.9 
		142.8,367.8 144.4,365.1 145,363.8 145.3,362.2 145,360.9 143.3,357.8 147.1,345.8 146.6,344.5 145.8,343 143.2,342.7 141,341.8 
		140,341.1 139.4,340.6 139.1,340.1 138.6,338.9 138.8,338.2 139.5,337.6 143.6,337.4 145.3,337.1 146.6,335.5 144.2,333.2 
		125,328.9 123.4,327.8 122.4,326.5 122,325.1 120.6,319.3 120.3,317.3 120.2,315.2 120.5,310.8 120.8,308.9 121.1,307.5 
		121.5,306.8 122,306.3 122.8,306.2 125.6,307 127.2,307.2 128.6,306.8 129.6,305.6 129.7,304.4 128.8,303.3 127.9,302.6 
		126.8,302.1 123.6,299.8 116.4,303.1 115.6,303.2 120.2,281.2 	"/>
	<g>
		<path class="st7" d="M90.4,168l5.4-30.8h3.8L94.2,168H90.4z"/>
		<path class="st7" d="M98,168l5.4-30.8h3.7l1.8,19.6h0.1l3.4-19.6h3.4l-5.4,30.8h-3.3l-1.9-21h-0.1l-3.7,21H98z"/>
		<path class="st7" d="M117.4,168l4.8-27.3h-4.3l0.6-3.5H131l-0.6,3.5H126l-4.8,27.3H117.4z"/>
		<path class="st7" d="M128.2,168l5.4-30.8h10.7l-0.6,3.5h-7l-1.6,9.2h6l-0.6,3.5h-6l-2,11.1h6.9L139,168H128.2z"/>
		<path class="st7" d="M150.8,137.3c5.1,0,7.6,2.2,7.6,6.6c0,0.7-0.1,1.5-0.2,2.5c-0.6,3.5-2,5.8-4.3,6.9l1.3,14.8h-3.9l-1-13.9h-2
			l-2.5,13.9H142l5.4-30.8H150.8z M154.1,146c0.1-0.6,0.2-1.2,0.2-1.8c0-2.3-1.1-3.4-3.3-3.4h-0.5l-1.7,9.9h1.2
			c1.2,0,2.1-0.4,2.7-1.1C153.4,148.8,153.8,147.6,154.1,146z"/>
		<path class="st7" d="M157.8,168l5.4-30.8h3.7l1.8,19.6h0.1l3.4-19.6h3.4l-5.4,30.8H167l-1.9-21H165l-3.7,21H157.8z"/>
		<path class="st7" d="M172.9,168l10.3-30.8h4.1l-0.5,30.8H183l0.2-6.7h-4.5l-2.1,6.7H172.9z M179.9,157.8h3.5l0.7-13.5H184
			L179.9,157.8z"/>
		<path class="st7" d="M190.6,168l4.8-27.3h-4.3l0.6-3.5h12.5l-0.6,3.5h-4.4l-4.8,27.3H190.6z"/>
		<path class="st7" d="M201.4,168l5.4-30.8h3.8l-5.4,30.8H201.4z"/>
		<path class="st7" d="M215.6,168.5c-1.9,0-3.3-0.5-4.1-1.6c-0.9-1.1-1.3-2.8-1.3-5.4c0-2.3,0.4-5.4,1.1-9.5c1-5.7,2.1-9.7,3.3-11.9
			s2.9-3.4,5.1-3.4c1.9,0,3.3,0.5,4.1,1.6c0.9,1.1,1.3,2.9,1.3,5.4c0,2.3-0.4,5.4-1.1,9.5c-1,5.7-2.1,9.7-3.3,11.9
			C219.6,167.4,217.9,168.5,215.6,168.5z M215.7,165c0.9,0,1.7-0.8,2.3-2.5s1.3-4.9,2.1-9.6c0.8-4.7,1.2-7.9,1.2-9.6
			c0-1.1-0.1-1.9-0.4-2.3c-0.3-0.4-0.7-0.6-1.3-0.6c-0.9,0-1.7,0.8-2.3,2.5s-1.3,4.9-2.1,9.6c-0.8,4.7-1.2,7.9-1.2,9.6
			c0,1.1,0.1,1.9,0.4,2.3C214.7,164.8,215.1,165,215.7,165z"/>
		<path class="st7" d="M224.7,168l5.4-30.8h3.7l1.8,19.6h0.1l3.4-19.6h3.4l-5.4,30.8h-3.3l-1.9-21h-0.1l-3.7,21H224.7z"/>
		<path class="st7" d="M239.8,168l10.3-30.8h4.1l-0.5,30.8h-3.8l0.2-6.7h-4.5l-2.1,6.7H239.8z M246.8,157.8h3.5l0.7-13.5h-0.2
			L246.8,157.8z"/>
		<path class="st7" d="M256.3,168l5.4-30.8h3.8l-4.8,27.3h6.6l-0.6,3.5H256.3z"/>
		<path class="st7" d="M269.5,168l5.4-30.8h10.7l-0.6,3.5h-7l-1.6,9.2h6l-0.6,3.5h-6l-2,11.1h6.9l-0.6,3.5H269.5z"/>
		<path class="st7" d="M298.3,137.3c5.1,0,7.6,2.2,7.6,6.6c0,0.7-0.1,1.5-0.2,2.5c-0.6,3.5-2,5.8-4.3,6.9l1.3,14.8h-3.9l-1-13.9h-2
			l-2.5,13.9h-3.8l5.4-30.8H298.3z M301.7,146c0.1-0.6,0.2-1.2,0.2-1.8c0-2.3-1.1-3.4-3.3-3.4h-0.5l-1.7,9.9h1.2
			c1.2,0,2.1-0.4,2.7-1.1C300.9,148.8,301.4,147.6,301.7,146z"/>
		<path class="st7" d="M304.2,168l10.3-30.8h4.1l-0.5,30.8h-3.8l0.2-6.7H310l-2.1,6.7H304.2z M311.2,157.8h3.5l0.7-13.5h-0.2
			L311.2,157.8z"/>
		<path class="st7" d="M320.7,168l5.4-30.8h3.8l-5.4,30.8H320.7z"/>
		<path class="st7" d="M328.4,168l5.4-30.8h10.7l-0.6,3.5h-7l-1.7,9.6h6.1l-0.6,3.5h-6.1l-2.5,14.2H328.4z"/>
		<path class="st7" d="M341.8,168l5.4-30.8H358l-0.6,3.5h-7l-1.7,9.6h6.1l-0.6,3.5h-6.1l-2.5,14.2H341.8z"/>
		<path class="st7" d="M355.3,168l5.4-30.8h10.7l-0.6,3.5h-7l-1.6,9.2h6l-0.6,3.5h-6l-2,11.1h6.9l-0.6,3.5H355.3z"/>
		<path class="st7" d="M369,168l5.4-30.8h3.8l-5.4,30.8H369z"/>
		<path class="st7" d="M382.6,168.5c-1.9,0-3.3-0.5-4.2-1.6c-0.9-1.1-1.3-2.6-1.3-4.7c0-1,0.1-2.1,0.3-3.4h3.7
			c-0.2,1.3-0.3,2.3-0.3,3.1c0,1.1,0.2,1.9,0.5,2.4c0.3,0.4,0.8,0.7,1.4,0.7c0.8,0,1.4-0.6,1.9-1.7c0.5-1.1,0.7-2.6,0.7-4.3
			s-0.7-3.5-2.2-5.4c-2-2.6-3-5.2-3-7.8c0-2.9,0.5-5.1,1.6-6.6s2.7-2.3,4.7-2.3c3.4,0,5.1,2,5.1,6.1c0,0.9-0.1,1.7-0.2,2.5h-3.7
			c0.1-0.8,0.2-1.6,0.2-2.4c0-1.8-0.5-2.7-1.6-2.7c-0.7,0-1.3,0.5-1.7,1.4c-0.4,0.9-0.6,2.2-0.6,3.7c0,1.7,0.7,3.5,2.2,5.4
			c2,2.6,3,5.2,3,7.9c0,3.1-0.6,5.5-1.8,7.2C386.2,167.6,384.6,168.5,382.6,168.5z"/>
		<path class="st7" d="M390.8,168l5.4-30.8H407l-0.6,3.5h-7l-1.6,9.2h6l-0.6,3.5h-6l-2,11.1h6.9l-0.6,3.5H390.8z"/>
		<path class="st7" d="M404.5,168l5.4-30.8h3.7l1.8,19.6h0.1l3.4-19.6h3.4L417,168h-3.3l-1.9-21h-0.1l-3.7,21H404.5z"/>
	</g>
	<g>
		<path class="st7" d="M86.2,263.2c-4.7,0-8-1.2-10.1-3.7C74,257.1,73,252.9,73,247c0-5.2,0.8-12.3,2.4-21.2
			c2.2-12.9,4.8-21.9,7.6-27c2.8-5.1,6.9-7.6,12-7.6c4.6,0,7.9,1.2,10,3.7s3.1,6.7,3.1,12.5c0,5-0.8,12.1-2.4,21.2
			c-2.3,12.9-4.9,21.9-7.7,27C95.3,260.7,91.3,263.2,86.2,263.2z M86.3,254c1.7,0,3.2-1.8,4.5-5.3c1.2-3.5,2.7-10.6,4.6-21
			c1.9-10.5,2.8-17.7,2.9-21.4c0-3.9-1.1-5.8-3.3-5.8c-1.8,0-3.2,1.8-4.5,5.3c-1.2,3.6-2.7,10.6-4.6,21c-1.8,10.8-2.7,17.9-2.7,21.4
			c0,2.2,0.2,3.7,0.7,4.5C84.4,253.6,85.2,254,86.3,254z"/>
		<path class="st7" d="M122.3,263.2c-4.7,0-8-1.2-10.1-3.7s-3.1-6.6-3.1-12.5c0-5.2,0.8-12.3,2.4-21.2c2.2-12.9,4.8-21.9,7.6-27
			c2.8-5.1,6.9-7.6,12-7.6c4.6,0,7.9,1.2,10,3.7s3.1,6.7,3.1,12.5c0,5-0.8,12.1-2.4,21.2c-2.3,12.9-4.9,21.9-7.7,27
			C131.4,260.7,127.4,263.2,122.3,263.2z M122.4,254c1.7,0,3.2-1.8,4.5-5.3c1.2-3.5,2.7-10.6,4.6-21c1.9-10.5,2.8-17.7,2.9-21.4
			c0-3.9-1.1-5.8-3.3-5.8c-1.8,0-3.2,1.8-4.5,5.3c-1.2,3.6-2.7,10.6-4.6,21c-1.8,10.8-2.7,17.9-2.7,21.4c0,2.2,0.2,3.7,0.7,4.5
			C120.5,253.6,121.3,254,122.4,254z M126.6,188.2c-1.6,0-2.9-0.5-3.9-1.4s-1.5-2.2-1.5-3.7c0-1.9,0.6-3.4,1.9-4.7
			c1.2-1.2,2.8-1.9,4.6-1.9c1.6,0,2.9,0.5,3.8,1.5c0.9,1,1.4,2.3,1.4,3.8c0,1.8-0.6,3.3-1.9,4.6
			C129.9,187.6,128.4,188.2,126.6,188.2z M141.5,188.2c-1.6,0-2.9-0.5-3.8-1.4c-0.9-0.9-1.4-2.2-1.4-3.7c0-1.9,0.6-3.4,1.8-4.7
			c1.2-1.2,2.7-1.9,4.6-1.9c1.6,0,2.9,0.5,3.9,1.5s1.5,2.3,1.5,3.8c0,1.8-0.6,3.3-1.9,4.6C144.8,187.6,143.3,188.2,141.5,188.2z"/>
		<path class="st7" d="M177.4,192.2c12.1,0,18.1,5.2,18.1,15.6c0,1.6-0.2,3.4-0.5,5.6c-1.4,7.6-4.4,12.8-9.3,15.6l2.6,33.2H178
			l-1.8-30.6h-4l-5.4,30.6h-10.2l12.3-70L177.4,192.2L177.4,192.2z M173.8,222.2h2.1c2.3,0,4.2-0.8,5.5-2.3c1.4-1.6,2.3-4,2.9-7.4
			c0.3-1.3,0.4-2.6,0.4-3.9c0-4.7-2.2-7.1-6.7-7.1h-0.6L173.8,222.2z"/>
		<path class="st7" d="M208.4,263.2c-4.2,0-7.5-1.2-9.8-3.6s-3.5-5.7-3.5-10c0-1.7,0.1-3.3,0.4-4.9l9.3-52.6h10.4l-9.3,52.8
			c-0.3,2.2-0.5,3.7-0.5,4.7c0,2.9,1.3,4.4,3.9,4.4c1.4,0,2.4-0.6,3.2-1.9c0.8-1.3,1.5-3.4,2-6.3l9.5-53.5h10l-9.8,55.1
			c-0.9,5.1-2.7,9-5.4,11.8C215.9,261.8,212.5,263.2,208.4,263.2z"/>
		<path class="st7" d="M228.6,262.2l12.2-70h9.6l3.9,41.5h0.2l7.2-41.5h9.2l-12.4,70h-8.7l-4-44.7h-0.2l-7.9,44.7H228.6z"/>
		<path class="st7" d="M286.8,192.2c5.9,0,10.2,1.6,12.8,4.9c2.7,3.2,4,8.2,4,14.9c0,4.5-0.6,10.1-1.7,16.6
			c-2.1,12.1-5,20.7-8.9,25.8c-3.8,5.2-9,7.8-15.6,7.8H266l12.3-70L286.8,192.2L286.8,192.2z M291.4,227.7c1.4-7.5,2-13.1,2-16.8
			c0-3.3-0.5-5.7-1.5-7.2s-2.6-2.3-4.9-2.3l-9.2,51.6h1.1c2.9,0,5.3-1.8,7.2-5.5C288,243.8,289.8,237.2,291.4,227.7z"/>
		<path class="st7" d="M302.1,262.2l12.3-70h25.7l-1.5,9.2H323l-3.4,19.8h13.6l-1.7,9.2H318l-5.6,31.8H302.1z"/>
		<path class="st7" d="M328,262.2l23.2-70h11.4l-1.4,70h-10.1l0.5-14h-9.5l-4.3,14H328z M345,239.5h7.2l1.9-30.5h-0.3L345,239.5z"/>
		<path class="st7" d="M366.5,262.2l12.2-70H389l-5,28.2h9.4l5-28.2h10.3l-12.4,70H386l5.8-32.5h-9.5l-5.7,32.5H366.5z"/>
		<path class="st7" d="M424.8,192.2c12.1,0,18.1,5.2,18.1,15.6c0,1.6-0.2,3.4-0.5,5.6c-1.4,7.6-4.4,12.8-9.3,15.6l2.6,33.2h-10.4
			l-1.8-30.6h-4l-5.4,30.6h-10.2l12.3-70L424.8,192.2L424.8,192.2z M421.2,222.2h2.1c2.3,0,4.2-0.8,5.5-2.3c1.4-1.6,2.3-4,2.9-7.4
			c0.3-1.3,0.4-2.6,0.4-3.9c0-4.7-2.2-7.1-6.7-7.1h-0.6L421.2,222.2z"/>
		<path class="st7" d="M447.6,262.2l10.6-60.8h-9.7l1.6-9.2H480l-1.6,9.2h-9.9l-10.6,60.8H447.6z"/>
	</g>
</g>
<rect x="510.2" y="300" class="st12" width="61.8" height="61.8"/>
<g>
	<path class="st0" d="M541.1,338.1L522.2,357l-7.4-7.4l18.9-18.9L530,327l0-7.4l-2.6-2.6l0,6.1l-2.6,2.6l-9.3-9.3l-2.5,2.5
		c0-1.6,0.5-7.1,4.8-11.4c4.9-4.8,9.9-2,11.6-0.3l8.9,8.9l-2.2,2.2l4.9,4.9l4.9-4.9l-2.2-2.2l8.9-8.9c1.7-1.7,6.6-4.5,11.6,0.3
		c4.4,4.3,4.8,9.8,4.8,11.4l-2.4-2.4l-9.2,9.2l-2.6-2.6V317l-2.6,2.6l0,7.4l-3.7,3.7l18.9,18.9l-7.4,7.4L541.1,338.1z"/>
	<g>
		<path class="st7" d="M485.7,320.5h-5v14h5v-7.2c0-1.7,0.6-3.2,2.6-3.2c2.5,0,2.2,2.3,2.2,3.7v6.8h5v-8.6c0-3.4-1.5-5.8-5.3-5.8
			c-1.9,0-3.3,0.6-4.5,2.3h-0.1V320.5z M478.3,327.8c0-4.8-2.8-7.8-7.7-7.8c-4.5,0-7.7,2.8-7.7,7.5c0,4.8,3.5,7.4,8.1,7.4
			c1.6,0,3.2-0.4,4.5-1.2c1.3-0.8,2.3-2,2.6-3.6h-4.8c-0.5,0.9-1.3,1.3-2.4,1.3c-2,0-3.1-1.1-3.1-3.1h10.4V327.8z M467.9,325.5
			c0.3-1.4,1.5-2.2,2.9-2.2c1.3,0,2.6,0.9,2.8,2.2H467.9z M460.9,321c-1.4-0.7-3-0.9-4.6-0.9c-3.1,0-6.2,1.5-6.2,5
			c0,2.5,1.6,3.3,3.1,3.7c1.6,0.4,3.1,0.5,3.1,1.6c0,0.8-0.9,1.1-1.6,1.1c-1.2,0-2.9-0.7-3.9-1.4l-1.8,3.5c1.7,1,3.6,1.6,5.6,1.6
			c3.2,0,6.6-1.5,6.6-5.2c0-2.6-1.7-3.7-4.1-4.1c-0.7-0.1-2.2-0.3-2.2-1.2c0-0.7,1-1,1.6-1c0.8,0,1.9,0.3,2.7,0.7L460.9,321z
			 M444.4,312.4c-1.5,0-2.8,1.3-2.8,2.8c0,1.5,1.3,2.8,2.8,2.8c1.5,0,2.8-1.3,2.8-2.8C447.1,313.7,445.9,312.4,444.4,312.4
			 M446.8,320.5h-5v14h5V320.5z M439.4,327.8c0-4.8-2.8-7.8-7.7-7.8c-4.5,0-7.7,2.8-7.7,7.5c0,4.8,3.5,7.4,8.1,7.4
			c1.6,0,3.2-0.4,4.5-1.2c1.3-0.8,2.3-2,2.6-3.6h-4.8c-0.5,0.9-1.3,1.3-2.4,1.3c-2,0-3.1-1.1-3.1-3.1h10.4V327.8z M429.1,325.5
			c0.3-1.4,1.5-2.2,2.9-2.2c1.3,0,2.6,0.9,2.8,2.2H429.1z M419.6,324.6h3.5v-4.1h-3.5v-2.3c0-1.6,0.4-2.3,1.7-2.3
			c0.7,0,1.2,0.2,1.7,0.5v-4.3c-0.7-0.4-1.4-0.5-2.1-0.5c-1.9,0-3.6,0.8-4.9,2.2c-1.4,1.6-1.4,3-1.4,4.9v1.8h-1.7v4.1h1.7v9.9h5
			V324.6z M408.4,324.6h3.5v-4.1h-3.5v-2.3c0-1.6,0.4-2.3,1.7-2.3c0.7,0,1.2,0.2,1.7,0.5v-4.3c-0.7-0.4-1.4-0.5-2.1-0.5
			c-1.9,0-3.6,0.8-4.9,2.2c-1.4,1.6-1.4,3-1.4,4.9v1.8h-1.7v4.1h1.7v9.9h5V324.6z M397,312.4c-1.5,0-2.8,1.3-2.8,2.8
			c0,1.5,1.3,2.8,2.8,2.8c1.5,0,2.8-1.3,2.8-2.8C399.8,313.7,398.6,312.4,397,312.4 M399.5,320.5h-5v14h5V320.5z M391.2,320.5h-5
			v1.4c-1-1.2-2.7-1.8-4.3-1.8c-4.1,0-7,3.4-7,7.4c0,4,2.9,7.5,7.1,7.5c1.6,0,3.4-0.6,4.2-2h0.1v1.6h5V320.5z M383.2,324.4
			c2,0,3.2,1.4,3.2,3.2c0,1.8-1.2,3.1-3.2,3.1c-2,0-3.2-1.4-3.2-3.1C380,325.8,381.2,324.4,383.2,324.4 M363.1,318.1h0.5
			c1.7,0,3.7,0.3,3.7,2.6c0,2.2-2,2.6-3.7,2.6h-0.5V318.1z M368.4,326.1c2.9-0.5,4.5-3,4.5-5.8c0-4.4-3.1-6.3-7.1-6.3h-8v20.5h5.3
			v-7.9h0.1l5,7.9h6.6L368.4,326.1z"/>
		<path class="st7" d="M480.8,339.2v22.6h5v-7.2c0-1.6,0.6-3.3,2.6-3.3c2,0,2.2,1.7,2.2,3.3v7.2h5v-8.6c0-3.5-1.7-5.9-5.3-5.9
			c-1.9,0-3.3,0.7-4.5,2.2h-0.1v-10.4H480.8z M477.6,348.2c-1-0.5-2.1-0.8-3.3-0.8c-4.4,0-7.8,3.1-7.8,7.6c0,4.2,3.5,7.3,7.6,7.3
			c1.2,0,2.4-0.2,3.5-0.8v-4.2c-0.7,0.6-1.6,1-2.5,1c-2,0-3.5-1.4-3.5-3.4c0-1.9,1.5-3.4,3.4-3.4c1,0,1.8,0.4,2.6,1V348.2z
			 M461.7,339.7c-1.5,0-2.8,1.3-2.8,2.8c0,1.5,1.3,2.8,2.8,2.8c1.5,0,2.8-1.3,2.8-2.8C464.5,341,463.3,339.7,461.7,339.7
			 M464.2,347.8h-5v14h5V347.8z M456.8,355.1c0-4.8-2.8-7.8-7.7-7.8c-4.5,0-7.7,2.8-7.7,7.5c0,4.8,3.5,7.4,8.1,7.4
			c1.6,0,3.2-0.4,4.5-1.2c1.3-0.8,2.3-2,2.6-3.6h-4.8c-0.5,0.9-1.3,1.3-2.4,1.3c-2,0-3.1-1.1-3.1-3.1h10.4V355.1z M446.5,352.8
			c0.3-1.4,1.5-2.2,2.9-2.2c1.3,0,2.6,0.9,2.8,2.2H446.5z M434.7,347.8h-5v14h5v-5.6c0-2.4,0.7-4.2,3.4-4.2c0.8,0,1.4,0.1,2.1,0.5
			v-4.8h-1c-1.9,0-3.6,0.8-4.5,2.5h-0.1V347.8z M422.4,347.8h-5v14h5v-5.6c0-2.4,0.7-4.2,3.4-4.2c0.8,0,1.4,0.1,2.1,0.5v-4.8h-1
			c-1.9,0-3.6,0.8-4.5,2.5h-0.1V347.8z M414.9,355.1c0-4.8-2.8-7.8-7.7-7.8c-4.5,0-7.7,2.8-7.7,7.5c0,4.8,3.5,7.4,8.1,7.4
			c1.6,0,3.2-0.4,4.5-1.2c1.3-0.8,2.3-2,2.6-3.6H410c-0.5,0.9-1.3,1.3-2.4,1.3c-2,0-3.1-1.1-3.1-3.1h10.4V355.1z M404.6,352.8
			c0.3-1.4,1.5-2.2,2.9-2.2c1.3,0,2.6,0.9,2.8,2.2H404.6z M395.8,351.9h2.8v-4.1h-2.8v-4.2h-5v4.2h-1.6v4.1h1.6v9.9h5V351.9z
			 M387.3,348.3c-1.4-0.7-3-0.9-4.6-0.9c-3.1,0-6.2,1.5-6.2,5c0,2.5,1.6,3.3,3.1,3.7c1.6,0.4,3.1,0.5,3.1,1.6c0,0.8-0.9,1.1-1.6,1.1
			c-1.2,0-2.9-0.7-3.9-1.4l-1.8,3.5c1.7,1,3.6,1.6,5.6,1.6c3.2,0,6.6-1.5,6.6-5.2c0-2.6-1.7-3.7-4.1-4.1c-0.7-0.1-2.2-0.3-2.2-1.2
			c0-0.7,1-1,1.6-1c0.8,0,1.9,0.3,2.7,0.7L387.3,348.3z M369.4,340c-1.5,0-2.7,1.2-2.7,2.7c0,1.5,1.2,2.7,2.7,2.7
			c1.5,0,2.7-1.2,2.7-2.7C372.1,341.2,370.9,340,369.4,340 M362.5,340c-1.5,0-2.7,1.2-2.7,2.7c0,1.5,1.2,2.7,2.7,2.7
			c1.5,0,2.7-1.2,2.7-2.7C365.1,341.2,363.9,340,362.5,340 M365.9,351.7c2,0,3.2,1.4,3.2,3.2c0,1.8-1.2,3.1-3.2,3.1
			c-2,0-3.2-1.4-3.2-3.1C362.8,353.1,363.9,351.7,365.9,351.7 M365.9,347.4c-4.5,0-8.4,2.7-8.4,7.5c0,4.8,3.9,7.4,8.4,7.4
			c4.5,0,8.4-2.7,8.4-7.4C374.4,350.1,370.4,347.4,365.9,347.4 M350.9,347.8h-5v14h5v-5.6c0-2.4,0.7-4.2,3.4-4.2
			c0.8,0,1.4,0.1,2.1,0.5v-4.8h-1c-1.9,0-3.6,0.8-4.5,2.5h-0.1V347.8z M343.4,355.1c0-4.8-2.8-7.8-7.7-7.8c-4.5,0-7.7,2.8-7.7,7.5
			c0,4.8,3.5,7.4,8.1,7.4c1.6,0,3.2-0.4,4.5-1.2c1.3-0.8,2.3-2,2.6-3.6h-4.8c-0.5,0.9-1.3,1.3-2.4,1.3c-2,0-3.1-1.1-3.1-3.1h10.4
			V355.1z M333.1,352.8c0.3-1.4,1.5-2.2,2.9-2.2c1.3,0,2.6,0.9,2.8,2.2H333.1z M318.1,351.7c2,0,3.2,1.4,3.2,3.2
			c0,1.8-1.2,3.1-3.2,3.1c-2,0-3.2-1.4-3.2-3.1C314.9,353.1,316.1,351.7,318.1,351.7 M310.1,361.8h5v-1.6h0.1c0.9,1.4,2.6,2,4.2,2
			c4.2,0,7.1-3.4,7.1-7.5c0-4-2.9-7.4-7-7.4c-1.6,0-3.3,0.6-4.3,1.8v-10h-5V361.8z M296.2,345.8c3.2,0,5.8,2.6,5.8,5.4
			c0,3.5-2.6,6.1-5.8,6.1s-5.8-2.6-5.8-6.1C290.4,348.4,293,345.8,296.2,345.8 M296.2,340.6c-5.9,0-11.4,4.4-11.4,10.6
			c0,6.6,4.8,11.3,11.4,11.3c6.6,0,11.4-4.7,11.4-11.3C307.6,345,302.1,340.6,296.2,340.6"/>
		<rect x="284.9" y="300" class="st13" width="287.1" height="62.5"/>
	</g>
</g>
</svg>
